<?xml version="1.0" encoding="UTF-8" standalone="no"?>
<!-- Created with Inkscape (http://www.inkscape.org/) -->

<svg
   xmlns:dc="http://purl.org/dc/elements/1.1/"
   xmlns:cc="http://creativecommons.org/ns#"
   xmlns:rdf="http://www.w3.org/1999/02/22-rdf-syntax-ns#"
   xmlns:svg="http://www.w3.org/2000/svg"
   xmlns="http://www.w3.org/2000/svg"
   xmlns:xlink="http://www.w3.org/1999/xlink"
   version="1.0"
   width="460.21136"
   height="460.21078"
   viewBox="-0.811 -0.732 1572.082 1572.0801"
   id="svg11310"
   xml:space="preserve"><metadata
   id="metadata53"><rdf:RDF><cc:Work
       rdf:about=""><dc:format>image/svg+xml</dc:format><dc:type
         rdf:resource="http://purl.org/dc/dcmitype/StillImage" /><dc:title></dc:title></cc:Work></rdf:RDF></metadata>
<defs
   id="defs11312"><linearGradient
   id="linearGradient19837"><stop
     id="stop19839"
     style="stop-color:#b40000;stop-opacity:1"
     offset="0" /><stop
     id="stop19841"
     style="stop-color:#b40000;stop-opacity:0"
     offset="1" /></linearGradient><linearGradient
   id="linearGradient14977"><stop
     id="stop14979"
     style="stop-color:#ffffff;stop-opacity:0.47058824"
     offset="0" /><stop
     id="stop14981"
     style="stop-color:#ffffff;stop-opacity:0.70588237"
     offset="1" /></linearGradient><linearGradient
   id="linearGradient14071"><stop
     id="stop14073"
     style="stop-color:#ffffff;stop-opacity:1"
     offset="0" /><stop
     id="stop14075"
     style="stop-color:#ffffff;stop-opacity:0"
     offset="1" /></linearGradient><linearGradient
   id="linearGradient14012"><stop
     id="stop14014"
     style="stop-color:#dc0000;stop-opacity:1"
     offset="0" /><stop
     id="stop14016"
     style="stop-color:#ff3d01;stop-opacity:0.58823532"
     offset="1" /></linearGradient><linearGradient
   id="linearGradient14004"><stop
     id="stop14006"
     style="stop-color:#ffffff;stop-opacity:1"
     offset="0" /><stop
     id="stop14008"
     style="stop-color:#ffffff;stop-opacity:0"
     offset="1" /></linearGradient>
<linearGradient
   x1="1531.1748"
   y1="-710.26196"
   x2="514.25446"
   y2="1775.3436"
   id="linearGradient14010"
   xlink:href="#linearGradient14004"
   gradientUnits="userSpaceOnUse"
   gradientTransform="matrix(0.995461,0,0,0.995461,3.833802,3.912899)" /><linearGradient
   x1="1026.7279"
   y1="1147.7113"
   x2="1703.623"
   y2="1703.6219"
   id="linearGradient14022"
   xlink:href="#linearGradient14012"
   gradientUnits="userSpaceOnUse"
   gradientTransform="matrix(0.995461,0,0,0.995461,3.833802,3.912899)" /><linearGradient
   x1="853.22852"
   y1="6994.7397"
   x2="853.22852"
   y2="-1149.4908"
   id="linearGradient14077"
   xlink:href="#linearGradient14071"
   gradientUnits="userSpaceOnUse" /><linearGradient
   x1="1678.5588"
   y1="288.91214"
   x2="1678.5588"
   y2="1417.6237"
   id="linearGradient19843"
   xlink:href="#linearGradient19837"
   gradientUnits="userSpaceOnUse" /><filter
   color-interpolation-filters="sRGB"
   id="filter3812"><feGaussianBlur
     id="feGaussianBlur3814"
     stdDeviation="7.6873315" /></filter></defs>
















<path
   d="m 1557.3542,276.66699 c 0,-67.95976 -26.9973,-133.13624 -75.0523,-181.191528 -48.0553,-48.055105 -113.2316,-75.052288 -181.1916,-75.052288 l -1024.97881,0 c -67.9606,0 -133.1371,26.997183 -181.192394,75.052288 -48.0543,48.055288 -75.0523,113.231768 -75.0523,181.191528 l 0,1024.97761 c 0,67.9606 26.9972,133.1372 75.0523,181.1914 48.055294,48.0553 113.231794,75.0525 181.192394,75.0525 l 1024.97821,0 c 67.9606,0 133.136,-26.9972 181.1913,-75.0525 48.0551,-48.0542 75.0523,-113.2316 75.0523,-181.1914 l 0,-1024.97761 9e-4,0 z"
   id="path17668-5"
   style="fill:#000000;fill-opacity:0.91534394;fill-rule:evenodd;stroke:#000000;stroke-width:3.05048823;stroke-linecap:butt;stroke-linejoin:miter;stroke-miterlimit:4;stroke-opacity:1;stroke-dasharray:none;display:inline" /><path
   d="m 1538.6938,249.85472 c 0,-67.95977 -26.9973,-133.13624 -75.0523,-181.191539 -48.0553,-48.0551 -113.2316,-75.0522803 -181.1916,-75.0522803 l -1024.97873,0 c -67.9606,0 -133.13708,26.9971803 -181.192377,75.0522803 C 28.224493,116.71848 1.2264928,181.89495 1.2264928,249.85472 l 0,1024.97748 c 0,67.9606 26.9972002,133.1372 75.0523002,181.1915 48.055297,48.0553 113.231777,75.0525 181.192377,75.0525 l 1024.97813,0 c 67.9606,0 133.136,-26.9972 181.1913,-75.0525 48.0551,-48.0543 75.0523,-113.2317 75.0523,-181.1915 l 0,-1024.97748 9e-4,0 z"
   transform="matrix(0.97988685,0,0,0.97988685,30.756178,38.297637)"
   id="path17668-5-5"
   style="fill:none;stroke:#ffffff;stroke-width:29.98412704;stroke-linecap:butt;stroke-linejoin:miter;stroke-miterlimit:4;stroke-opacity:1;stroke-dasharray:none;display:inline;filter:url(#filter3812)" /></svg>