<?xml version="1.0" encoding="UTF-8" standalone="no"?>
<!-- Created with Inkscape (http://www.inkscape.org/) -->

<svg
   xmlns:dc="http://purl.org/dc/elements/1.1/"
   xmlns:cc="http://creativecommons.org/ns#"
   xmlns:rdf="http://www.w3.org/1999/02/22-rdf-syntax-ns#"
   xmlns:svg="http://www.w3.org/2000/svg"
   xmlns="http://www.w3.org/2000/svg"
   xmlns:xlink="http://www.w3.org/1999/xlink"
   version="1.0"
   width="525.03174"
   height="522.90314"
   viewBox="-0.811 -0.732 1793.5084 1786.2372"
   id="svg11310"
   xml:space="preserve"><metadata
   id="metadata53"><rdf:RDF><cc:Work
       rdf:about=""><dc:format>image/svg+xml</dc:format><dc:type
         rdf:resource="http://purl.org/dc/dcmitype/StillImage" /><dc:title></dc:title></cc:Work></rdf:RDF></metadata>
<defs
   id="defs11312"><linearGradient
   id="linearGradient19837"><stop
     id="stop19839"
     style="stop-color:#b40000;stop-opacity:1"
     offset="0" /><stop
     id="stop19841"
     style="stop-color:#b40000;stop-opacity:0"
     offset="1" /></linearGradient><linearGradient
   id="linearGradient14977"><stop
     id="stop14979"
     style="stop-color:#ffffff;stop-opacity:0.47058824"
     offset="0" /><stop
     id="stop14981"
     style="stop-color:#ffffff;stop-opacity:0.70588237"
     offset="1" /></linearGradient><linearGradient
   id="linearGradient14071"><stop
     id="stop14073"
     style="stop-color:#ffffff;stop-opacity:1"
     offset="0" /><stop
     id="stop14075"
     style="stop-color:#ffffff;stop-opacity:0"
     offset="1" /></linearGradient><linearGradient
   id="linearGradient14012"><stop
     id="stop14014"
     style="stop-color:#dc0000;stop-opacity:1"
     offset="0" /><stop
     id="stop14016"
     style="stop-color:#ff3d01;stop-opacity:0.58823532"
     offset="1" /></linearGradient><linearGradient
   id="linearGradient14004"><stop
     id="stop14006"
     style="stop-color:#ffffff;stop-opacity:1"
     offset="0" /><stop
     id="stop14008"
     style="stop-color:#ffffff;stop-opacity:0"
     offset="1" /></linearGradient>
<linearGradient
   x1="1531.1748"
   y1="-710.26196"
   x2="514.25446"
   y2="1775.3436"
   id="linearGradient14010"
   xlink:href="#linearGradient14004"
   gradientUnits="userSpaceOnUse"
   gradientTransform="matrix(0.995461,0,0,0.995461,3.833802,3.912899)" /><linearGradient
   x1="1026.7279"
   y1="1147.7113"
   x2="1703.623"
   y2="1703.6219"
   id="linearGradient14022"
   xlink:href="#linearGradient14012"
   gradientUnits="userSpaceOnUse"
   gradientTransform="matrix(0.995461,0,0,0.995461,3.833802,3.912899)" /><linearGradient
   x1="853.22852"
   y1="6994.7397"
   x2="853.22852"
   y2="-1149.4908"
   id="linearGradient14077"
   xlink:href="#linearGradient14071"
   gradientUnits="userSpaceOnUse" /><linearGradient
   x1="1678.5588"
   y1="288.91214"
   x2="1678.5588"
   y2="1417.6237"
   id="linearGradient19843"
   xlink:href="#linearGradient19837"
   gradientUnits="userSpaceOnUse" /><filter
   color-interpolation-filters="sRGB"
   id="filter3780"><feGaussianBlur
     stdDeviation="30.080862"
     id="feGaussianBlur3782" /></filter></defs>
















<path
   d="m 1703.5714,407.88455 c 0,-67.95976 -26.9973,-133.13624 -75.0523,-181.19154 -48.0553,-48.0551 -113.2316,-75.05228 -181.1916,-75.05228 l -1024.97865,0 c -67.96059,0 -133.13707,26.99718 -181.19237,75.05228 -48.05428,48.0553 -75.05228,113.23178 -75.05228,181.19154 l 0,1024.97775 c 0,67.9606 26.99717,133.1372 75.05228,181.1914 48.0553,48.0553 113.23178,75.0525 181.19237,75.0525 l 1024.97805,0 c 67.9606,0 133.136,-26.9972 181.1913,-75.0525 48.0551,-48.0542 75.0523,-113.2316 75.0523,-181.1914 l 0,-1024.97775 9e-4,0 z"
   id="path17668"
   style="fill:#000000;fill-opacity:0.80423279;fill-rule:evenodd;display:inline;filter:url(#filter3780)" /><path
   d="m 1654.8464,358.73566 c 0,-67.95976 -26.9973,-133.13624 -75.0523,-181.19154 -48.0553,-48.05509 -113.2316,-75.05228 -181.1916,-75.05228 l -1024.97888,0 c -67.9606,0 -133.1371,26.99719 -181.1924,75.05228 -48.0543,48.0553 -75.0523,113.23178 -75.0523,181.19154 l 0,1024.97764 c 0,67.9606 26.9972,133.1372 75.0523,181.1914 48.0553,48.0553 113.2318,75.0525 181.1924,75.0525 l 1024.97828,0 c 67.9606,0 133.136,-26.9972 181.1913,-75.0525 48.0551,-48.0542 75.0523,-113.2316 75.0523,-181.1914 l 0,-1024.97764 9e-4,0 z"
   id="path17668-5"
   style="fill:#ffffff;fill-opacity:0.93567254;fill-rule:evenodd;display:inline" /><rect
   width="1788.7261"
   height="1781.4547"
   x="1.5801501"
   y="1.6592001"
   id="rect3773"
   style="fill:none;stroke:#ff0000;stroke-width:4.78240013;stroke-miterlimit:100;stroke-opacity:0;stroke-dasharray:none" /></svg>