<?xml version="1.0"?><svg width="640" height="480" xmlns="http://www.w3.org/2000/svg">
 <title>INFINITY SINGLE</title>
 <metadata id="metadata7">image/svg+xml</metadata>
 <g>
  <path fill="#000000" stroke-width="1px" d="m391.214722,225.082886c7.076294,12.938568 15.452515,22.715881 25.128754,29.332016c9.675781,6.616348 20.579315,9.924454 32.710693,9.924362c14.585968,0.000092 26.500458,-4.925354 35.7435,-14.776276c9.242462,-9.997757 13.8638,-22.715652 13.864136,-38.153656c-0.000336,-14.84967 -4.260681,-27.199936 -12.781006,-37.050934c-8.520966,-9.850677 -19.207886,-14.776093 -32.060822,-14.776276c-11.842529,0.000183 -22.601685,4.999115 -32.277435,14.996811c-9.53183,9.851013 -19.641113,26.685654 -30.32782,50.503952m-26.428497,-23.597916c-7.076691,-12.938293 -15.452881,-22.642059 -25.128754,-29.11145c-9.531769,-6.469025 -20.435303,-9.703629 -32.710724,-9.703812c-14.730743,0.000183 -26.717438,4.852097 -35.960114,14.555695c-9.098389,9.703995 -13.647552,22.348343 -13.647491,37.933121c-0.000061,14.849884 4.260254,27.200195 12.781006,37.050964c8.520599,9.850906 19.20752,14.776382 32.060822,14.77626c11.842133,0.000122 22.601288,-4.99884 32.277435,-14.996811c9.675873,-9.997742 19.785095,-26.832382 30.32782,-50.503967m15.380524,40.35907c-10.109467,19.848831 -20.868561,34.478073 -32.277466,43.887741c-11.264771,9.262787 -23.684692,13.894165 -37.259857,13.894104c-19.640991,0.000061 -36.176849,-8.159973 -49.607635,-24.480103c-13.430923,-16.46698 -20.146378,-36.903793 -20.146317,-61.310501c-0.000061,-25.729691 5.993317,-46.534027 17.980057,-62.413193c12.131012,-15.878769 27.87262,-23.818253 47.224731,-23.818466c13.719574,0.000214 26.067322,4.631577 37.043243,13.894104c11.119995,9.262924 21.879181,24.0392 32.277435,44.328796c9.82019,-20.289597 20.434937,-35.212891 31.844208,-44.769882c11.408783,-9.703598 24.117584,-14.555511 38.126373,-14.555725c19.351746,0.000214 35.815399,8.307266 49.390991,24.921173c13.575012,16.46727 20.36261,36.977539 20.362976,61.531021c-0.000366,25.729965 -6.065887,46.4608 -18.196716,62.192673c-11.987,15.731995 -27.656342,23.597992 -47.008087,23.597931c-13.575531,0.000061 -25.778839,-4.33728 -36.609985,-13.011932c-10.687134,-8.821594 -21.735107,-23.450836 -33.143951,-43.887741" id="text1306"/>
  <title>Layer 1</title>
 </g>
</svg>