<?xml version="1.0" encoding="UTF-8" standalone="no"?>
<!-- Created with Inkscape (http://www.inkscape.org/) -->

<svg
   xmlns:dc="http://purl.org/dc/elements/1.1/"
   xmlns:cc="http://creativecommons.org/ns#"
   xmlns:rdf="http://www.w3.org/1999/02/22-rdf-syntax-ns#"
   xmlns:svg="http://www.w3.org/2000/svg"
   xmlns="http://www.w3.org/2000/svg"
   version="1.1"
   width="373.09064"
   height="134.61717"
   id="svg3045">
  <defs
     id="defs3047">
    <filter
       color-interpolation-filters="sRGB"
       id="filter3919">
      <feGaussianBlur
         id="feGaussianBlur3921"
         stdDeviation="4.4891157" />
    </filter>
  </defs>
  <metadata
     id="metadata3050">
    <rdf:RDF>
      <cc:Work
         rdf:about="">
        <dc:format>image/svg+xml</dc:format>
        <dc:type
           rdf:resource="http://purl.org/dc/dcmitype/StillImage" />
        <dc:title></dc:title>
      </cc:Work>
    </rdf:RDF>
  </metadata>
  <g
     transform="translate(-157.49894,-116.089)"
     id="layer1">
    <g
       id="text3053"
       style="font-size:126.94871521px;font-style:normal;font-variant:normal;font-weight:normal;font-stretch:normal;text-align:start;line-height:125%;letter-spacing:0px;word-spacing:0px;writing-mode:lr-tb;text-anchor:start;fill:#666666;fill-opacity:1;stroke:none;filter:url(#filter3919);font-family:Calibri;-inkscape-font-specification:Calibri">
      <path
         d="m 180.74036,213.09456 c -2e-5,0.3306 -0.0827,0.60954 -0.24795,0.83682 -0.16532,0.22728 -0.43392,0.42358 -0.80583,0.58887 -0.37193,0.1653 -0.88849,0.28927 -1.54966,0.37192 -0.66121,0.0827 -1.50836,0.12398 -2.54146,0.12398 -0.9918,0 -1.81828,-0.0413 -2.47946,-0.12398 -0.66121,-0.0827 -1.18809,-0.20662 -1.58066,-0.37192 -0.3926,-0.16529 -0.6612,-0.36159 -0.80583,-0.58887 -0.14465,-0.22728 -0.21696,-0.50622 -0.21695,-0.83682 l 0,-55.78801 c -1e-5,-0.28921 0.0723,-0.55782 0.21695,-0.80583 0.14463,-0.24789 0.41323,-0.45451 0.80583,-0.61986 0.39257,-0.16524 0.91945,-0.28922 1.58066,-0.37192 0.66118,-0.0826 1.48766,-0.12392 2.47946,-0.12398 1.0331,6e-5 1.88025,0.0414 2.54146,0.12398 0.66117,0.0827 1.17773,0.20668 1.54966,0.37192 0.37191,0.16535 0.64051,0.37197 0.80583,0.61986 0.16528,0.24801 0.24793,0.51662 0.24795,0.80583 z m 1.17775,-74.63196 c -3e-5,2.39689 -0.45459,4.02921 -1.36371,4.89695 -0.90916,0.86788 -2.5828,1.30179 -5.02092,1.30172 -2.39683,7e-5 -4.03948,-0.42351 -4.92794,-1.27073 -0.88849,-0.84708 -1.33273,-2.4484 -1.33272,-4.80397 -1e-5,-2.39674 0.45456,-4.02905 1.36371,-4.89694 0.90913,-0.86774 2.58277,-1.30164 5.02092,-1.30172 2.3968,8e-5 4.03945,0.42365 4.92794,1.27072 0.88846,0.84723 1.33269,2.44855 1.33272,4.80397 z"
         id="path4061" />
      <path
         d="m 247.80994,213.09456 c -5e-5,0.3306 -0.0827,0.60954 -0.24794,0.83682 -0.16536,0.22728 -0.43397,0.42358 -0.80583,0.58887 -0.37198,0.1653 -0.88853,0.28927 -1.54967,0.37192 -0.66124,0.0827 -1.48773,0.12398 -2.47946,0.12398 -1.03317,0 -1.88032,-0.0413 -2.54146,-0.12398 -0.66124,-0.0827 -1.17779,-0.20662 -1.54967,-0.37192 -0.37196,-0.16529 -0.64057,-0.36159 -0.80582,-0.58887 -0.16535,-0.22728 -0.248,-0.50622 -0.24795,-0.83682 l 0,-32.66698 c -5e-5,-3.18195 -0.24799,-5.74406 -0.74384,-7.68635 -0.49594,-1.9422 -1.21912,-3.61584 -2.16953,-5.02092 -0.95051,-1.40498 -2.17991,-2.47942 -3.68821,-3.22331 -1.50838,-0.74379 -3.25434,-1.1157 -5.23787,-1.11576 -2.56215,6e-5 -5.12427,0.90919 -7.68635,2.72742 -2.56214,1.81832 -5.24823,4.48374 -8.05827,7.99628 l 0,38.98962 c -2e-5,0.3306 -0.0827,0.60954 -0.24795,0.83682 -0.16531,0.22728 -0.43392,0.42358 -0.80582,0.58887 -0.37194,0.1653 -0.8885,0.28927 -1.54967,0.37192 -0.66121,0.0827 -1.50836,0.12398 -2.54145,0.12398 -0.9918,0 -1.81829,-0.0413 -2.47947,-0.12398 -0.6612,-0.0827 -1.18809,-0.20662 -1.58066,-0.37192 -0.39259,-0.16529 -0.6612,-0.36159 -0.80583,-0.58887 -0.14464,-0.22728 -0.21696,-0.50622 -0.21695,-0.83682 l 0,-55.78801 c -1e-5,-0.33054 0.062,-0.60948 0.18596,-0.83682 0.12396,-0.22723 0.37191,-0.43385 0.74384,-0.61987 0.37191,-0.1859 0.84714,-0.30987 1.42569,-0.37192 0.57853,-0.0619 1.34303,-0.0929 2.29351,-0.093 0.90912,6e-5 1.66329,0.0311 2.26251,0.093 0.59919,0.062 1.06409,0.18602 1.3947,0.37192 0.33058,0.18602 0.5682,0.39264 0.71285,0.61987 0.14462,0.22734 0.21693,0.50628 0.21695,0.83682 l 0,7.37641 c 3.14064,-3.51252 6.27096,-6.08497 9.39098,-7.71734 3.11997,-1.63225 6.27096,-2.44841 9.45297,-2.44847 3.71916,6e-5 6.84949,0.63026 9.39098,1.89059 2.54141,1.26046 4.5973,2.94443 6.16768,5.05192 1.57027,2.1076 2.69636,4.57673 3.37827,7.4074 0.6818,2.83077 1.02273,6.22971 1.02278,10.19681 z"
         id="path4063" />
      <path
         d="m 297.02736,134.37148 c -4e-5,0.78524 -0.0414,1.41544 -0.12397,1.89059 -0.0827,0.47531 -0.17567,0.85756 -0.27894,1.14676 -0.10335,0.28934 -0.23765,0.48564 -0.40291,0.58887 -0.16534,0.10339 -0.37196,0.15504 -0.61987,0.15497 -0.28931,7e-5 -0.6509,-0.0929 -1.08477,-0.27894 -0.43394,-0.18589 -0.96083,-0.39251 -1.58066,-0.61987 -0.6199,-0.22721 -1.35341,-0.43383 -2.20052,-0.61987 -0.84719,-0.18588 -1.82864,-0.27886 -2.94437,-0.27894 -1.52903,8e-5 -2.83075,0.24803 -3.90516,0.74384 -1.07446,0.49597 -1.94228,1.27081 -2.60344,2.3245 -0.66122,1.05385 -1.13645,2.41756 -1.4257,4.09112 -0.28929,1.67371 -0.43392,3.70894 -0.4339,6.10569 l 0,6.0747 12.45932,0 c 0.33056,5e-5 0.6095,0.0724 0.83682,0.21695 0.22725,0.14469 0.43387,0.39264 0.61987,0.74384 0.18592,0.35131 0.33056,0.79555 0.4339,1.33271 0.10328,0.53728 0.15493,1.19847 0.15497,1.98358 -4e-5,1.48773 -0.186,2.56216 -0.55788,3.2233 -0.37196,0.66125 -0.86785,0.99184 -1.48768,0.99179 l -12.45932,0 0,48.90749 c -2e-5,0.3306 -0.0827,0.60954 -0.24795,0.83682 -0.16532,0.22728 -0.44426,0.42358 -0.83682,0.58887 -0.3926,0.1653 -0.91949,0.28927 -1.58066,0.37192 -0.66121,0.0827 -1.4877,0.12398 -2.47947,0.12398 -0.9918,0 -1.81829,-0.0413 -2.47946,-0.12398 -0.66121,-0.0827 -1.1881,-0.20662 -1.58066,-0.37192 -0.3926,-0.16529 -0.67154,-0.36159 -0.83682,-0.58887 -0.16531,-0.22728 -0.24796,-0.50622 -0.24795,-0.83682 l 0,-48.90749 -7.87231,0 c -0.66119,5e-5 -1.15709,-0.33054 -1.48768,-0.99179 -0.3306,-0.66114 -0.49589,-1.73557 -0.49589,-3.2233 0,-0.78511 0.0413,-1.4463 0.12397,-1.98358 0.0827,-0.53716 0.20662,-0.9814 0.37192,-1.33271 0.1653,-0.3512 0.37192,-0.59915 0.61987,-0.74384 0.24794,-0.14458 0.53721,-0.2169 0.86781,-0.21695 l 7.87231,0 0,-5.76477 c -10e-6,-3.88442 0.36158,-7.22137 1.08477,-10.01084 0.72316,-2.78933 1.82859,-5.0725 3.31628,-6.84953 1.48767,-1.77687 3.3576,-3.08892 5.6098,-3.93616 2.25216,-0.84706 4.90725,-1.27064 7.96529,-1.27072 1.44632,8e-5 2.85135,0.13439 4.21509,0.40291 1.36367,0.2687 2.41744,0.55797 3.16132,0.86781 0.7438,0.31002 1.2397,0.58896 1.48768,0.83682 0.24791,0.24804 0.45453,0.5683 0.61987,0.9608 0.16526,0.39266 0.2789,0.86789 0.34092,1.42569 0.062,0.55796 0.0929,1.22949 0.093,2.01457 z"
         id="path4065" />
      <path
         d="m 315.37541,213.09456 c -2e-5,0.3306 -0.0827,0.60954 -0.24794,0.83682 -0.16532,0.22728 -0.43393,0.42358 -0.80583,0.58887 -0.37194,0.1653 -0.88849,0.28927 -1.54967,0.37192 -0.6612,0.0827 -1.50835,0.12398 -2.54145,0.12398 -0.9918,0 -1.81829,-0.0413 -2.47947,-0.12398 -0.6612,-0.0827 -1.18809,-0.20662 -1.58066,-0.37192 -0.39259,-0.16529 -0.6612,-0.36159 -0.80582,-0.58887 -0.14465,-0.22728 -0.21697,-0.50622 -0.21696,-0.83682 l 0,-55.78801 c -10e-6,-0.28921 0.0723,-0.55782 0.21696,-0.80583 0.14462,-0.24789 0.41323,-0.45451 0.80582,-0.61986 0.39257,-0.16524 0.91946,-0.28922 1.58066,-0.37192 0.66118,-0.0826 1.48767,-0.12392 2.47947,-0.12398 1.0331,6e-5 1.88025,0.0414 2.54145,0.12398 0.66118,0.0827 1.17773,0.20668 1.54967,0.37192 0.3719,0.16535 0.64051,0.37197 0.80583,0.61986 0.16528,0.24801 0.24792,0.51662 0.24794,0.80583 z m 1.17775,-74.63196 c -2e-5,2.39689 -0.45459,4.02921 -1.36371,4.89695 -0.90915,0.86788 -2.58279,1.30179 -5.02092,1.30172 -2.39683,7e-5 -4.03947,-0.42351 -4.92794,-1.27073 -0.88848,-0.84708 -1.33272,-2.4484 -1.33271,-4.80397 -10e-6,-2.39674 0.45456,-4.02905 1.36371,-4.89694 0.90912,-0.86774 2.58276,-1.30164 5.02092,-1.30172 2.3968,8e-5 4.03944,0.42365 4.92794,1.27072 0.88845,0.84723 1.33269,2.44855 1.33271,4.80397 z"
         id="path4067" />
      <path
         d="m 382.44501,213.09456 c -6e-5,0.3306 -0.0827,0.60954 -0.24795,0.83682 -0.16535,0.22728 -0.43396,0.42358 -0.80583,0.58887 -0.37197,0.1653 -0.88853,0.28927 -1.54966,0.37192 -0.66125,0.0827 -1.48774,0.12398 -2.47947,0.12398 -1.03316,0 -1.88031,-0.0413 -2.54145,-0.12398 -0.66124,-0.0827 -1.1778,-0.20662 -1.54967,-0.37192 -0.37197,-0.16529 -0.64058,-0.36159 -0.80583,-0.58887 -0.16534,-0.22728 -0.24799,-0.50622 -0.24794,-0.83682 l 0,-32.66698 c -5e-5,-3.18195 -0.248,-5.74406 -0.74384,-7.68635 -0.49594,-1.9422 -1.21912,-3.61584 -2.16954,-5.02092 -0.9505,-1.40498 -2.1799,-2.47942 -3.6882,-3.22331 -1.50839,-0.74379 -3.25434,-1.1157 -5.23788,-1.11576 -2.56215,6e-5 -5.12426,0.90919 -7.68635,2.72742 -2.56214,1.81832 -5.24822,4.48374 -8.05827,7.99628 l 0,38.98962 c -10e-6,0.3306 -0.0827,0.60954 -0.24794,0.83682 -0.16532,0.22728 -0.43393,0.42358 -0.80583,0.58887 -0.37194,0.1653 -0.88849,0.28927 -1.54967,0.37192 -0.6612,0.0827 -1.50835,0.12398 -2.54145,0.12398 -0.9918,0 -1.81829,-0.0413 -2.47947,-0.12398 -0.6612,-0.0827 -1.18809,-0.20662 -1.58066,-0.37192 -0.39259,-0.16529 -0.6612,-0.36159 -0.80582,-0.58887 -0.14465,-0.22728 -0.21697,-0.50622 -0.21696,-0.83682 l 0,-55.78801 c -10e-6,-0.33054 0.062,-0.60948 0.18596,-0.83682 0.12397,-0.22723 0.37191,-0.43385 0.74384,-0.61987 0.37191,-0.1859 0.84714,-0.30987 1.4257,-0.37192 0.57853,-0.0619 1.34303,-0.0929 2.2935,-0.093 0.90913,6e-5 1.6633,0.0311 2.26252,0.093 0.59919,0.062 1.06408,0.18602 1.3947,0.37192 0.33058,0.18602 0.56819,0.39264 0.71284,0.61987 0.14462,0.22734 0.21694,0.50628 0.21696,0.83682 l 0,7.37641 c 3.14063,-3.51252 6.27096,-6.08497 9.39098,-7.71734 3.11996,-1.63225 6.27095,-2.44841 9.45297,-2.44847 3.71916,6e-5 6.84948,0.63026 9.39098,1.89059 2.5414,1.26046 4.59729,2.94443 6.16767,5.05192 1.57028,2.1076 2.69637,4.57673 3.37828,7.4074 0.68179,2.83077 1.02272,6.22971 1.02278,10.19681 z"
         id="path4069" />
      <path
         d="m 411.3308,213.09456 c -2e-5,0.3306 -0.0827,0.60954 -0.24795,0.83682 -0.16532,0.22728 -0.43393,0.42358 -0.80583,0.58887 -0.37193,0.1653 -0.88849,0.28927 -1.54966,0.37192 -0.66121,0.0827 -1.50836,0.12398 -2.54146,0.12398 -0.9918,0 -1.81829,-0.0413 -2.47946,-0.12398 -0.66121,-0.0827 -1.18809,-0.20662 -1.58066,-0.37192 -0.3926,-0.16529 -0.66121,-0.36159 -0.80583,-0.58887 -0.14465,-0.22728 -0.21696,-0.50622 -0.21695,-0.83682 l 0,-55.78801 c -1e-5,-0.28921 0.0723,-0.55782 0.21695,-0.80583 0.14462,-0.24789 0.41323,-0.45451 0.80583,-0.61986 0.39257,-0.16524 0.91945,-0.28922 1.58066,-0.37192 0.66117,-0.0826 1.48766,-0.12392 2.47946,-0.12398 1.0331,6e-5 1.88025,0.0414 2.54146,0.12398 0.66117,0.0827 1.17773,0.20668 1.54966,0.37192 0.3719,0.16535 0.64051,0.37197 0.80583,0.61986 0.16528,0.24801 0.24793,0.51662 0.24795,0.80583 z m 1.17774,-74.63196 c -2e-5,2.39689 -0.45459,4.02921 -1.3637,4.89695 -0.90916,0.86788 -2.5828,1.30179 -5.02092,1.30172 -2.39683,7e-5 -4.03948,-0.42351 -4.92794,-1.27073 -0.88849,-0.84708 -1.33273,-2.4484 -1.33272,-4.80397 -1e-5,-2.39674 0.45456,-4.02905 1.36371,-4.89694 0.90913,-0.86774 2.58276,-1.30164 5.02092,-1.30172 2.3968,8e-5 4.03945,0.42365 4.92794,1.27072 0.88846,0.84723 1.33269,2.44855 1.33271,4.80397 z"
         id="path4071" />
      <path
         d="m 459.37047,209.00344 c -4e-5,1.19841 -0.0827,2.14887 -0.24795,2.85139 -0.16534,0.70251 -0.41328,1.21907 -0.74384,1.54966 -0.33063,0.3306 -0.82653,0.64053 -1.48768,0.9298 -0.66123,0.28927 -1.4154,0.52689 -2.26251,0.71285 -0.84719,0.18596 -1.74599,0.34093 -2.69643,0.4649 -0.95049,0.12397 -1.90095,0.18596 -2.85138,0.18596 -2.89274,0 -5.3722,-0.38225 -7.4384,-1.14675 -2.06624,-0.76451 -3.76055,-1.92159 -5.08291,-3.47126 -1.3224,-1.54966 -2.28319,-3.51257 -2.88238,-5.88873 -0.59922,-2.37615 -0.89882,-5.17588 -0.89881,-8.3992 l 0,-32.60499 -7.81032,0 c -0.61987,5e-5 -1.11576,-0.33054 -1.48768,-0.99179 -0.37192,-0.66114 -0.55788,-1.73557 -0.55788,-3.2233 0,-0.78511 0.0516,-1.4463 0.15497,-1.98358 0.10331,-0.53716 0.23761,-0.9814 0.40291,-1.33271 0.16529,-0.3512 0.38225,-0.59915 0.65086,-0.74384 0.26861,-0.14458 0.56821,-0.2169 0.89881,-0.21695 l 7.74833,0 0,-13.26515 c -1e-5,-0.2892 0.0723,-0.55781 0.21695,-0.80583 0.14463,-0.24787 0.41324,-0.46483 0.80583,-0.65086 0.39257,-0.18589 0.91946,-0.32019 1.58066,-0.40291 0.66118,-0.0826 1.48767,-0.1239 2.47947,-0.12398 1.03309,8e-5 1.88024,0.0414 2.54145,0.12398 0.66117,0.0827 1.17773,0.21702 1.54967,0.40291 0.3719,0.18603 0.64051,0.40299 0.80583,0.65086 0.16527,0.24802 0.24792,0.51663 0.24794,0.80583 l 0,13.26515 14.31893,0 c 0.33055,5e-5 0.61983,0.0724 0.86781,0.21695 0.24791,0.14469 0.46486,0.39264 0.65086,0.74384 0.18592,0.35131 0.32023,0.79555 0.40291,1.33271 0.0826,0.53728 0.12394,1.19847 0.12398,1.98358 -4e-5,1.48773 -0.186,2.56216 -0.55788,3.2233 -0.37196,0.66125 -0.86785,0.99184 -1.48768,0.99179 l -14.31893,0 0,31.11731 c -2e-5,3.84319 0.56819,6.74623 1.70464,8.70913 1.13639,1.96292 3.17162,2.94438 6.10568,2.94437 0.95044,1e-5 1.79759,-0.093 2.54146,-0.27894 0.74381,-0.18595 1.405,-0.38224 1.98357,-0.58888 0.57851,-0.20661 1.0744,-0.4029 1.48768,-0.58887 0.41321,-0.18595 0.78513,-0.27893 1.11576,-0.27894 0.20659,1e-5 0.40288,0.0517 0.58888,0.15497 0.18592,0.10332 0.33055,0.29961 0.4339,0.58887 0.10328,0.28928 0.19626,0.68186 0.27894,1.17775 0.0826,0.4959 0.12394,1.11576 0.12398,1.8596 z"
         id="path4073" />
      <path
         d="m 498.42209,214.64423 -7.4384,20.51759 c -0.24798,0.66117 -0.87817,1.16739 -1.8906,1.51867 -1.01247,0.35124 -2.5518,0.52686 -4.618,0.52689 -1.07446,-3e-5 -1.94227,-0.0517 -2.60344,-0.15497 -0.66121,-0.10333 -1.16744,-0.27896 -1.51868,-0.52689 -0.35127,-0.24797 -0.54756,-0.57856 -0.58887,-0.99178 -0.0413,-0.41327 0.062,-0.90916 0.30993,-1.48768 l 7.68635,-19.40183 c -0.37194,-0.1653 -0.7232,-0.43391 -1.05377,-0.80583 -0.33062,-0.37192 -0.55791,-0.7645 -0.68186,-1.17775 l -19.89772,-53.30854 c -0.3306,-0.86776 -0.49589,-1.54961 -0.49589,-2.04556 0,-0.49584 0.16529,-0.88842 0.49589,-1.17775 0.33059,-0.28921 0.86781,-0.4855 1.61165,-0.58887 0.74384,-0.10325 1.73563,-0.15491 2.97536,-0.15497 1.23973,6e-5 2.21085,0.0311 2.91338,0.093 0.7025,0.062 1.26038,0.17569 1.67364,0.34093 0.41323,0.16536 0.71283,0.40297 0.89881,0.71285 0.18594,0.30999 0.38223,0.73356 0.58887,1.27072 l 15.93058,44.75438 0.18596,0 15.37269,-45.00232 c 0.2479,-0.78511 0.5475,-1.29133 0.89881,-1.51868 0.35121,-0.22722 0.8781,-0.39252 1.58066,-0.49589 0.70247,-0.10325 1.71491,-0.15491 3.03735,-0.15497 1.15703,6e-5 2.10749,0.0517 2.85138,0.15497 0.74379,0.10337 1.29134,0.29966 1.64265,0.58887 0.3512,0.28933 0.52683,0.68191 0.52689,1.17775 -6e-5,0.49595 -0.12403,1.11582 -0.37192,1.8596 z"
         id="path4075" />
    </g>
    <g
       id="text3053-1"
       style="font-size:126.94871521px;font-style:normal;font-variant:normal;font-weight:normal;font-stretch:normal;text-align:start;line-height:125%;letter-spacing:0px;word-spacing:0px;writing-mode:lr-tb;text-anchor:start;fill:#000000;fill-opacity:1;stroke:none;font-family:Calibri;-inkscape-font-specification:Calibri">
      <path
         d="m 177.11749,211.15996 c -2e-5,0.3306 -0.0827,0.60953 -0.24794,0.83682 -0.16532,0.22728 -0.43393,0.42357 -0.80583,0.58887 -0.37194,0.1653 -0.88849,0.28927 -1.54967,0.37192 -0.6612,0.0827 -1.50835,0.12397 -2.54145,0.12398 -0.9918,-1e-5 -1.81829,-0.0413 -2.47947,-0.12398 -0.6612,-0.0827 -1.18809,-0.20662 -1.58066,-0.37192 -0.39259,-0.1653 -0.6612,-0.36159 -0.80582,-0.58887 -0.14465,-0.22729 -0.21697,-0.50622 -0.21696,-0.83682 l 0,-55.78801 c -1e-5,-0.28921 0.0723,-0.55782 0.21696,-0.80583 0.14462,-0.24789 0.41323,-0.45451 0.80582,-0.61986 0.39257,-0.16524 0.91946,-0.28922 1.58066,-0.37192 0.66118,-0.0826 1.48767,-0.12392 2.47947,-0.12398 1.0331,6e-5 1.88025,0.0414 2.54145,0.12398 0.66118,0.0827 1.17773,0.20668 1.54967,0.37192 0.3719,0.16535 0.64051,0.37197 0.80583,0.61986 0.16528,0.24801 0.24792,0.51662 0.24794,0.80583 z m 1.17775,-74.63196 c -2e-5,2.39689 -0.45459,4.0292 -1.36371,4.89695 -0.90915,0.86788 -2.58279,1.30179 -5.02092,1.30172 -2.39683,7e-5 -4.03947,-0.42351 -4.92794,-1.27073 -0.88848,-0.84708 -1.33272,-2.4484 -1.33271,-4.80397 -1e-5,-2.39674 0.45456,-4.02905 1.36371,-4.89695 0.90912,-0.86773 2.58276,-1.30163 5.02092,-1.30172 2.3968,9e-5 4.03944,0.42366 4.92794,1.27073 0.88845,0.84723 1.33269,2.44855 1.33271,4.80397 z"
         id="path4044" />
      <path
         d="m 244.18708,211.15996 c -6e-5,0.3306 -0.0827,0.60953 -0.24795,0.83682 -0.16535,0.22728 -0.43396,0.42357 -0.80582,0.58887 -0.37198,0.1653 -0.88854,0.28927 -1.54967,0.37192 -0.66125,0.0827 -1.48773,0.12397 -2.47947,0.12398 -1.03316,-1e-5 -1.88031,-0.0413 -2.54145,-0.12398 -0.66124,-0.0827 -1.1778,-0.20662 -1.54967,-0.37192 -0.37197,-0.1653 -0.64058,-0.36159 -0.80583,-0.58887 -0.16534,-0.22729 -0.24799,-0.50622 -0.24794,-0.83682 l 0,-32.66698 c -5e-5,-3.18195 -0.248,-5.74406 -0.74384,-7.68635 -0.49594,-1.9422 -1.21912,-3.61584 -2.16954,-5.02092 -0.9505,-1.40498 -2.1799,-2.47942 -3.6882,-3.22331 -1.50839,-0.74379 -3.25434,-1.11571 -5.23788,-1.11576 -2.56215,5e-5 -5.12426,0.90919 -7.68635,2.72742 -2.56214,1.81832 -5.24822,4.48374 -8.05826,7.99628 l 0,38.98962 c -2e-5,0.3306 -0.0827,0.60953 -0.24795,0.83682 -0.16532,0.22728 -0.43393,0.42357 -0.80583,0.58887 -0.37194,0.1653 -0.88849,0.28927 -1.54966,0.37192 -0.66121,0.0827 -1.50836,0.12397 -2.54146,0.12398 -0.9918,-1e-5 -1.81829,-0.0413 -2.47947,-0.12398 -0.6612,-0.0827 -1.18808,-0.20662 -1.58066,-0.37192 -0.39259,-0.1653 -0.6612,-0.36159 -0.80582,-0.58887 -0.14465,-0.22729 -0.21697,-0.50622 -0.21696,-0.83682 l 0,-55.78801 c -1e-5,-0.33054 0.062,-0.60948 0.18596,-0.83682 0.12397,-0.22723 0.37191,-0.43385 0.74384,-0.61987 0.37191,-0.1859 0.84714,-0.30987 1.4257,-0.37192 0.57853,-0.0619 1.34303,-0.0929 2.29351,-0.093 0.90912,6e-5 1.66329,0.0311 2.26251,0.093 0.59919,0.062 1.06409,0.18602 1.3947,0.37192 0.33058,0.18602 0.56819,0.39264 0.71285,0.61987 0.14461,0.22734 0.21693,0.50628 0.21695,0.83682 l 0,7.37641 c 3.14064,-3.51252 6.27096,-6.08497 9.39098,-7.71734 3.11997,-1.63225 6.27095,-2.44841 9.45297,-2.44847 3.71916,6e-5 6.84948,0.63026 9.39098,1.89059 2.5414,1.26045 4.59729,2.94442 6.16768,5.05192 1.57027,2.10759 2.69636,4.57673 3.37827,7.4074 0.6818,2.83077 1.02272,6.2297 1.02278,10.19681 z"
         id="path4046" />
      <path
         d="m 293.4045,132.43688 c -4e-5,0.78524 -0.0414,1.41544 -0.12397,1.89059 -0.0827,0.47531 -0.17567,0.85756 -0.27894,1.14676 -0.10335,0.28934 -0.23766,0.48563 -0.40292,0.58887 -0.16533,0.10339 -0.37196,0.15504 -0.61986,0.15497 -0.28931,7e-5 -0.6509,-0.0929 -1.08477,-0.27894 -0.43394,-0.18589 -0.96083,-0.39251 -1.58066,-0.61987 -0.6199,-0.22721 -1.35341,-0.43383 -2.20053,-0.61987 -0.84718,-0.18588 -1.82864,-0.27886 -2.94436,-0.27894 -1.52904,8e-5 -2.83076,0.24803 -3.90517,0.74384 -1.07446,0.49597 -1.94227,1.27081 -2.60344,2.3245 -0.66121,1.05385 -1.13644,2.41756 -1.42569,4.09112 -0.28929,1.67371 -0.43393,3.70894 -0.43391,6.10569 l 0,6.0747 12.45933,0 c 0.33056,5e-5 0.6095,0.0724 0.83682,0.21695 0.22724,0.14469 0.43387,0.39264 0.61986,0.74384 0.18593,0.35131 0.33056,0.79555 0.43391,1.33271 0.10327,0.53728 0.15493,1.19847 0.15497,1.98358 -4e-5,1.48773 -0.186,2.56216 -0.55788,3.2233 -0.37196,0.66125 -0.86785,0.99184 -1.48768,0.99179 l -12.45933,0 0,48.90749 c -2e-5,0.3306 -0.0827,0.60953 -0.24794,0.83682 -0.16532,0.22728 -0.44426,0.42357 -0.83682,0.58887 -0.39261,0.1653 -0.91949,0.28927 -1.58066,0.37192 -0.66121,0.0827 -1.4877,0.12397 -2.47947,0.12398 -0.9918,-1e-5 -1.81829,-0.0413 -2.47947,-0.12398 -0.6612,-0.0827 -1.18809,-0.20662 -1.58066,-0.37192 -0.39259,-0.1653 -0.67153,-0.36159 -0.83682,-0.58887 -0.16531,-0.22729 -0.24796,-0.50622 -0.24794,-0.83682 l 0,-48.90749 -7.87231,0 c -0.6612,5e-5 -1.15709,-0.33054 -1.48768,-0.99179 -0.3306,-0.66114 -0.4959,-1.73557 -0.4959,-3.2233 0,-0.78511 0.0413,-1.4463 0.12398,-1.98358 0.0826,-0.53716 0.20662,-0.9814 0.37192,-1.33271 0.16529,-0.3512 0.37191,-0.59915 0.61986,-0.74384 0.24795,-0.14458 0.53722,-0.2169 0.86782,-0.21695 l 7.87231,0 0,-5.76477 c -2e-5,-3.88443 0.36157,-7.22137 1.08476,-10.01084 0.72317,-2.78933 1.82859,-5.0725 3.31629,-6.84953 1.48766,-1.77687 3.35759,-3.08892 5.60979,-3.93616 2.25216,-0.84706 4.90726,-1.27064 7.96529,-1.27072 1.44633,8e-5 2.85136,0.13439 4.2151,0.40291 1.36367,0.2687 2.41744,0.55797 3.16132,0.86781 0.7438,0.31002 1.23969,0.58896 1.48768,0.83682 0.2479,0.24804 0.45453,0.5683 0.61986,0.9608 0.16526,0.39266 0.2789,0.86789 0.34093,1.42569 0.062,0.55796 0.0929,1.22948 0.093,2.01457 z"
         id="path4048" />
      <path
         d="m 311.75255,211.15996 c -2e-5,0.3306 -0.0827,0.60953 -0.24795,0.83682 -0.16531,0.22728 -0.43392,0.42357 -0.80582,0.58887 -0.37194,0.1653 -0.8885,0.28927 -1.54967,0.37192 -0.66121,0.0827 -1.50836,0.12397 -2.54145,0.12398 -0.9918,-1e-5 -1.81829,-0.0413 -2.47947,-0.12398 -0.6612,-0.0827 -1.18809,-0.20662 -1.58066,-0.37192 -0.39259,-0.1653 -0.6612,-0.36159 -0.80583,-0.58887 -0.14464,-0.22729 -0.21696,-0.50622 -0.21695,-0.83682 l 0,-55.78801 c -10e-6,-0.28921 0.0723,-0.55782 0.21695,-0.80583 0.14463,-0.24789 0.41324,-0.45451 0.80583,-0.61986 0.39257,-0.16524 0.91946,-0.28922 1.58066,-0.37192 0.66118,-0.0826 1.48767,-0.12392 2.47947,-0.12398 1.03309,6e-5 1.88024,0.0414 2.54145,0.12398 0.66117,0.0827 1.17773,0.20668 1.54967,0.37192 0.3719,0.16535 0.64051,0.37197 0.80582,0.61986 0.16528,0.24801 0.24793,0.51662 0.24795,0.80583 z M 312.9303,136.528 c -2e-5,2.39689 -0.45459,4.0292 -1.36371,4.89695 -0.90916,0.86788 -2.5828,1.30179 -5.02092,1.30172 -2.39683,7e-5 -4.03948,-0.42351 -4.92794,-1.27073 -0.88849,-0.84708 -1.33272,-2.4484 -1.33272,-4.80397 0,-2.39674 0.45457,-4.02905 1.36371,-4.89695 0.90913,-0.86773 2.58277,-1.30163 5.02092,-1.30172 2.3968,9e-5 4.03945,0.42366 4.92794,1.27073 0.88846,0.84723 1.3327,2.44855 1.33272,4.80397 z"
         id="path4050" />
      <path
         d="m 378.82214,211.15996 c -5e-5,0.3306 -0.0827,0.60953 -0.24794,0.83682 -0.16536,0.22728 -0.43397,0.42357 -0.80583,0.58887 -0.37198,0.1653 -0.88853,0.28927 -1.54967,0.37192 -0.66124,0.0827 -1.48773,0.12397 -2.47946,0.12398 -1.03317,-1e-5 -1.88032,-0.0413 -2.54146,-0.12398 -0.66124,-0.0827 -1.17779,-0.20662 -1.54966,-0.37192 -0.37197,-0.1653 -0.64058,-0.36159 -0.80583,-0.58887 -0.16535,-0.22729 -0.24799,-0.50622 -0.24795,-0.83682 l 0,-32.66698 c -4e-5,-3.18195 -0.24799,-5.74406 -0.74384,-7.68635 -0.49594,-1.9422 -1.21911,-3.61584 -2.16953,-5.02092 -0.95051,-1.40498 -2.17991,-2.47942 -3.68821,-3.22331 -1.50838,-0.74379 -3.25434,-1.11571 -5.23787,-1.11576 -2.56215,5e-5 -5.12427,0.90919 -7.68635,2.72742 -2.56214,1.81832 -5.24823,4.48374 -8.05827,7.99628 l 0,38.98962 c -2e-5,0.3306 -0.0827,0.60953 -0.24795,0.83682 -0.16531,0.22728 -0.43392,0.42357 -0.80582,0.58887 -0.37194,0.1653 -0.8885,0.28927 -1.54967,0.37192 -0.66121,0.0827 -1.50836,0.12397 -2.54145,0.12398 -0.9918,-1e-5 -1.81829,-0.0413 -2.47947,-0.12398 -0.6612,-0.0827 -1.18809,-0.20662 -1.58066,-0.37192 -0.39259,-0.1653 -0.6612,-0.36159 -0.80583,-0.58887 -0.14464,-0.22729 -0.21696,-0.50622 -0.21695,-0.83682 l 0,-55.78801 c -10e-6,-0.33054 0.062,-0.60948 0.18596,-0.83682 0.12396,-0.22723 0.37191,-0.43385 0.74384,-0.61987 0.37191,-0.1859 0.84714,-0.30987 1.42569,-0.37192 0.57853,-0.0619 1.34303,-0.0929 2.29351,-0.093 0.90912,6e-5 1.66329,0.0311 2.26251,0.093 0.59919,0.062 1.06409,0.18602 1.3947,0.37192 0.33058,0.18602 0.5682,0.39264 0.71285,0.61987 0.14462,0.22734 0.21694,0.50628 0.21695,0.83682 l 0,7.37641 c 3.14064,-3.51252 6.27096,-6.08497 9.39099,-7.71734 3.11996,-1.63225 6.27095,-2.44841 9.45296,-2.44847 3.71916,6e-5 6.84949,0.63026 9.39099,1.89059 2.5414,1.26045 4.59729,2.94442 6.16767,5.05192 1.57027,2.10759 2.69636,4.57673 3.37827,7.4074 0.6818,2.83077 1.02273,6.2297 1.02278,10.19681 z"
         id="path4052" />
      <path
         d="m 407.70793,211.15996 c -2e-5,0.3306 -0.0827,0.60953 -0.24794,0.83682 -0.16532,0.22728 -0.43393,0.42357 -0.80583,0.58887 -0.37194,0.1653 -0.88849,0.28927 -1.54967,0.37192 -0.6612,0.0827 -1.50836,0.12397 -2.54145,0.12398 -0.9918,-1e-5 -1.81829,-0.0413 -2.47947,-0.12398 -0.6612,-0.0827 -1.18809,-0.20662 -1.58066,-0.37192 -0.39259,-0.1653 -0.6612,-0.36159 -0.80582,-0.58887 -0.14465,-0.22729 -0.21697,-0.50622 -0.21696,-0.83682 l 0,-55.78801 c -10e-6,-0.28921 0.0723,-0.55782 0.21696,-0.80583 0.14462,-0.24789 0.41323,-0.45451 0.80582,-0.61986 0.39257,-0.16524 0.91946,-0.28922 1.58066,-0.37192 0.66118,-0.0826 1.48767,-0.12392 2.47947,-0.12398 1.03309,6e-5 1.88025,0.0414 2.54145,0.12398 0.66118,0.0827 1.17773,0.20668 1.54967,0.37192 0.3719,0.16535 0.64051,0.37197 0.80583,0.61986 0.16527,0.24801 0.24792,0.51662 0.24794,0.80583 z m 1.17775,-74.63196 c -2e-5,2.39689 -0.45459,4.0292 -1.36371,4.89695 -0.90915,0.86788 -2.58279,1.30179 -5.02092,1.30172 -2.39683,7e-5 -4.03947,-0.42351 -4.92794,-1.27073 -0.88848,-0.84708 -1.33272,-2.4484 -1.33271,-4.80397 -1e-5,-2.39674 0.45456,-4.02905 1.36371,-4.89695 0.90912,-0.86773 2.58276,-1.30163 5.02092,-1.30172 2.3968,9e-5 4.03944,0.42366 4.92794,1.27073 0.88845,0.84723 1.33269,2.44855 1.33271,4.80397 z"
         id="path4054" />
      <path
         d="m 455.7476,207.06884 c -4e-5,1.19841 -0.0827,2.14887 -0.24794,2.85138 -0.16534,0.70252 -0.41329,1.21908 -0.74384,1.54967 -0.33064,0.3306 -0.82653,0.64053 -1.48768,0.9298 -0.66123,0.28927 -1.4154,0.52689 -2.26252,0.71285 -0.84718,0.18596 -1.74599,0.34092 -2.69642,0.4649 -0.95049,0.12397 -1.90095,0.18596 -2.85139,0.18596 -2.89273,0 -5.3722,-0.38225 -7.4384,-1.14675 -2.06624,-0.76451 -3.76054,-1.92159 -5.0829,-3.47126 -1.3224,-1.54966 -2.28319,-3.51257 -2.88239,-5.88873 -0.59921,-2.37615 -0.89881,-5.17588 -0.8988,-8.3992 l 0,-32.60499 -7.81032,0 c -0.61987,5e-5 -1.11577,-0.33054 -1.48768,-0.99179 -0.37193,-0.66114 -0.55789,-1.73557 -0.55788,-3.2233 -1e-5,-0.78511 0.0516,-1.4463 0.15496,-1.98358 0.10331,-0.53716 0.23762,-0.9814 0.40292,-1.33271 0.16529,-0.3512 0.38224,-0.59915 0.65086,-0.74384 0.2686,-0.14458 0.5682,-0.2169 0.8988,-0.21695 l 7.74834,0 0,-13.26515 c -1e-5,-0.2892 0.0723,-0.55781 0.21695,-0.80583 0.14462,-0.24787 0.41323,-0.46483 0.80583,-0.65086 0.39257,-0.18589 0.91945,-0.32019 1.58066,-0.40291 0.66117,-0.0826 1.48766,-0.1239 2.47947,-0.12398 1.03309,8e-5 1.88024,0.0414 2.54145,0.12398 0.66117,0.0827 1.17773,0.21702 1.54967,0.40291 0.37189,0.18603 0.6405,0.40299 0.80582,0.65086 0.16528,0.24802 0.24793,0.51663 0.24795,0.80583 l 0,13.26515 14.31892,0 c 0.33056,5e-5 0.61983,0.0724 0.86782,0.21695 0.2479,0.14469 0.46486,0.39264 0.65086,0.74384 0.18592,0.35131 0.32022,0.79555 0.40291,1.33271 0.0826,0.53728 0.12393,1.19847 0.12397,1.98358 -4e-5,1.48773 -0.186,2.56216 -0.55788,3.2233 -0.37196,0.66125 -0.86785,0.99184 -1.48768,0.99179 l -14.31892,0 0,31.11731 c -2e-5,3.84319 0.56819,6.74623 1.70463,8.70913 1.1364,1.96292 3.17163,2.94437 6.10569,2.94437 0.95043,0 1.79758,-0.093 2.54145,-0.27894 0.74381,-0.18595 1.405,-0.38225 1.98358,-0.58888 0.57851,-0.20661 1.0744,-0.4029 1.48768,-0.58887 0.41321,-0.18595 0.78513,-0.27893 1.11576,-0.27894 0.20658,10e-6 0.40287,0.0517 0.58887,0.15497 0.18592,0.10332 0.33056,0.29961 0.43391,0.58887 0.10327,0.28928 0.19625,0.68186 0.27894,1.17775 0.0826,0.4959 0.12393,1.11576 0.12397,1.8596 z"
         id="path4056" />
      <path
         d="m 494.79923,212.70963 -7.43841,20.51759 c -0.24797,0.66117 -0.87817,1.16739 -1.89059,1.51867 -1.01247,0.35123 -2.55181,0.52686 -4.61801,0.52689 -1.07445,-3e-5 -1.94226,-0.0517 -2.60344,-0.15497 -0.66121,-0.10333 -1.16743,-0.27896 -1.51867,-0.52689 -0.35128,-0.24797 -0.54757,-0.57856 -0.58887,-0.99178 -0.0413,-0.41327 0.062,-0.90916 0.30993,-1.48768 l 7.68635,-19.40183 c -0.37195,-0.1653 -0.7232,-0.43391 -1.05378,-0.80583 -0.33061,-0.37192 -0.5579,-0.7645 -0.68185,-1.17775 l -19.89772,-53.30854 c -0.3306,-0.86776 -0.4959,-1.54961 -0.4959,-2.04556 0,-0.49584 0.1653,-0.88842 0.4959,-1.17775 0.33059,-0.28921 0.86781,-0.4855 1.61165,-0.58887 0.74384,-0.10325 1.73562,-0.15491 2.97536,-0.15497 1.23973,6e-5 2.21085,0.0311 2.91337,0.093 0.70251,0.062 1.26039,0.17569 1.67365,0.34093 0.41323,0.16535 0.71283,0.40297 0.8988,0.71285 0.18595,0.30999 0.38224,0.73356 0.58888,1.27072 l 15.93057,44.75438 0.18596,0 15.3727,-45.00232 c 0.2479,-0.78511 0.5475,-1.29134 0.8988,-1.51868 0.35122,-0.22722 0.8781,-0.39252 1.58066,-0.49589 0.70247,-0.10325 1.71492,-0.15491 3.03735,-0.15497 1.15703,6e-5 2.1075,0.0517 2.85139,0.15497 0.74379,0.10337 1.29133,0.29966 1.64265,0.58887 0.3512,0.28933 0.52683,0.68191 0.52688,1.17775 -5e-5,0.49595 -0.12403,1.11582 -0.37192,1.8596 z"
         id="path4058" />
    </g>
    <g
       id="text3053-1-9"
       style="font-size:25.92573357px;font-style:normal;font-variant:normal;font-weight:normal;font-stretch:normal;text-align:start;line-height:125%;letter-spacing:0px;word-spacing:0px;writing-mode:lr-tb;text-anchor:start;fill:#808080;fill-opacity:1;stroke:none;font-family:Calibri;-inkscape-font-specification:Calibri">
      <g
         id="text3026"
         style="font-size:20.8188591px;font-family:Sans">
        <path
           d="m 173.80807,237.78416 1.79928,0.23381 c -0.19654,1.24019 -0.69973,2.21099 -1.50957,2.9124 -0.80985,0.70142 -1.80437,1.05213 -2.98356,1.05213 -1.47738,0 -2.66505,-0.48286 -3.56299,-1.44858 -0.89795,-0.96572 -1.34693,-2.34991 -1.34693,-4.15259 0,-1.16563 0.19315,-2.18557 0.57944,-3.0598 0.38628,-0.87422 0.97418,-1.5299 1.7637,-1.96702 0.78952,-0.4371 1.6485,-0.65566 2.57695,-0.65567 1.17241,1e-5 2.13135,0.2965 2.87682,0.88948 0.74546,0.59299 1.22323,1.43503 1.43333,2.52611 l -1.77895,0.27447 c -0.16944,-0.72513 -0.46932,-1.27067 -0.89965,-1.63664 -0.43034,-0.36595 -0.95047,-0.54893 -1.5604,-0.54893 -0.92167,0 -1.67052,0.33038 -2.24656,0.99113 -0.57605,0.66076 -0.86407,1.70611 -0.86407,3.13604 0,1.45028 0.27786,2.5041 0.83357,3.16146 0.55571,0.65737 1.28084,0.98605 2.17541,0.98605 0.71835,0 1.31811,-0.22025 1.79929,-0.66076 0.48115,-0.4405 0.78612,-1.11819 0.91489,-2.03309 z"
           id="path3799" />
        <path
           d="m 176.49175,236.34067 c 0,-1.9992 0.55571,-3.47997 1.66713,-4.44231 0.92845,-0.79967 2.0602,-1.19951 3.39527,-1.19952 1.48415,1e-5 2.69722,0.48626 3.63923,1.45874 0.94199,0.9725 1.41299,2.31604 1.413,4.03061 -1e-5,1.38928 -0.2084,2.48206 -0.62518,3.27836 -0.41679,0.79629 -1.02333,1.41469 -1.81961,1.85519 -0.79631,0.4405 -1.66545,0.66076 -2.60744,0.66076 -1.51127,0 -2.73282,-0.48456 -3.66465,-1.45366 -0.93184,-0.96911 -1.39775,-2.36516 -1.39775,-4.18817 z m 1.88061,0 c 0,1.3825 0.30157,2.41768 0.90472,3.10554 0.60315,0.68787 1.36217,1.0318 2.27707,1.0318 0.9081,0 1.66374,-0.34563 2.26689,-1.03688 0.60315,-0.69125 0.90472,-1.74506 0.90473,-3.16146 -1e-5,-1.33505 -0.30328,-2.34651 -0.90981,-3.03439 -0.60655,-0.68785 -1.36048,-1.03178 -2.26181,-1.03179 -0.9149,1e-5 -1.67392,0.34225 -2.27707,1.02671 -0.60315,0.68448 -0.90472,1.71797 -0.90472,3.10047 z"
           id="path3801" />
        <path
           d="m 195.76546,241.73853 0,-1.36218 c -0.68448,1.07077 -1.69086,1.60615 -3.01914,1.60615 -0.86068,0 -1.65189,-0.2372 -2.37364,-0.71159 -0.72175,-0.47438 -1.28085,-1.13683 -1.6773,-1.98734 -0.39645,-0.85051 -0.59468,-1.82809 -0.59468,-2.93274 0,-1.07753 0.17959,-2.05511 0.53877,-2.93273 0.35918,-0.87761 0.89795,-1.55022 1.61631,-2.01785 0.71835,-0.4676 1.52143,-0.7014 2.40921,-0.70141 0.65059,1e-5 1.23002,0.13724 1.7383,0.4117 0.50826,0.27448 0.92166,0.63196 1.24018,1.07245 l 0,-5.34703 1.81962,0 0,14.90257 z m -5.78415,-5.3877 c 0,1.38251 0.29141,2.416 0.87423,3.10047 0.58282,0.68447 1.27068,1.02671 2.06359,1.02671 0.79968,0 1.47907,-0.32699 2.03817,-0.98097 0.5591,-0.65397 0.83865,-1.65188 0.83865,-2.99373 0,-1.47737 -0.28464,-2.56168 -0.85389,-3.25294 -0.56928,-0.69124 -1.27069,-1.03687 -2.10425,-1.03688 -0.81325,1e-5 -1.49264,0.33208 -2.03818,0.99622 -0.54555,0.66415 -0.81832,1.71119 -0.81832,3.14112 z"
           id="path3803" />
        <path
           d="m 207.74037,238.26194 1.89078,0.2338 c -0.2982,1.10465 -0.85052,1.96194 -1.65697,2.57187 -0.80647,0.60992 -1.83657,0.91489 -3.0903,0.91489 -1.57904,0 -2.83109,-0.48625 -3.75614,-1.45875 -0.92506,-0.97249 -1.38759,-2.33635 -1.38759,-4.09159 0,-1.81623 0.46761,-3.22583 1.40284,-4.22883 0.93522,-1.00299 2.14829,-1.50448 3.63923,-1.50449 1.44349,1e-5 2.62268,0.49134 3.53758,1.47399 0.91488,0.98267 1.37233,2.36517 1.37234,4.14751 -1e-5,0.10843 -0.003,0.27108 -0.0102,0.48794 l -8.05104,0 c 0.0678,1.18597 0.40323,2.09409 1.00638,2.72434 0.60315,0.63026 1.35539,0.94539 2.25673,0.94539 0.67092,0 1.24357,-0.1762 1.71796,-0.52861 0.47438,-0.3524 0.85051,-0.91488 1.12837,-1.68746 z m -6.00779,-2.95815 6.02812,0 c -0.0813,-0.90811 -0.31175,-1.58919 -0.69125,-2.04326 -0.58283,-0.70479 -1.33846,-1.0572 -2.2669,-1.0572 -0.84035,0 -1.54685,0.28125 -2.1195,0.84373 -0.57265,0.5625 -0.88948,1.31474 -0.95047,2.25673 z"
           id="path3805" />
        <path
           d="m 211.22712,237.26572 0,-1.83994 5.6215,0 0,1.83994 z"
           id="path3807" />
        <path
           d="m 225.93654,237.78416 1.79928,0.23381 c -0.19654,1.24019 -0.69973,2.21099 -1.50957,2.9124 -0.80985,0.70142 -1.80437,1.05213 -2.98356,1.05213 -1.47738,0 -2.66505,-0.48286 -3.56299,-1.44858 -0.89795,-0.96572 -1.34693,-2.34991 -1.34692,-4.15259 -1e-5,-1.16563 0.19314,-2.18557 0.57943,-3.0598 0.38628,-0.87422 0.97418,-1.5299 1.7637,-1.96702 0.78952,-0.4371 1.6485,-0.65566 2.57695,-0.65567 1.17241,1e-5 2.13135,0.2965 2.87682,0.88948 0.74546,0.59299 1.22324,1.43503 1.43333,2.52611 l -1.77895,0.27447 c -0.16944,-0.72513 -0.46932,-1.27067 -0.89965,-1.63664 -0.43034,-0.36595 -0.95047,-0.54893 -1.56039,-0.54893 -0.92168,0 -1.67053,0.33038 -2.24657,0.99113 -0.57605,0.66076 -0.86407,1.70611 -0.86406,3.13604 -1e-5,1.45028 0.27785,2.5041 0.83356,3.16146 0.55571,0.65737 1.28085,0.98605 2.17541,0.98605 0.71835,0 1.31812,-0.22025 1.79929,-0.66076 0.48115,-0.4405 0.78612,-1.11819 0.91489,-2.03309 z"
           id="path3809" />
        <path
           d="m 236.6916,238.26194 1.89077,0.2338 c -0.2982,1.10465 -0.85052,1.96194 -1.65697,2.57187 -0.80647,0.60992 -1.83657,0.91489 -3.0903,0.91489 -1.57904,0 -2.83108,-0.48625 -3.75614,-1.45875 -0.92505,-0.97249 -1.38758,-2.33635 -1.38758,-4.09159 0,-1.81623 0.46761,-3.22583 1.40283,-4.22883 0.93522,-1.00299 2.1483,-1.50448 3.63924,-1.50449 1.44349,1e-5 2.62268,0.49134 3.53758,1.47399 0.91488,0.98267 1.37232,2.36517 1.37233,4.14751 -1e-5,0.10843 -0.003,0.27108 -0.0102,0.48794 l -8.05104,0 c 0.0678,1.18597 0.40322,2.09409 1.00638,2.72434 0.60314,0.63026 1.35538,0.94539 2.25673,0.94539 0.67091,0 1.24356,-0.1762 1.71796,-0.52861 0.47438,-0.3524 0.8505,-0.91488 1.12837,-1.68746 z m -6.00779,-2.95815 6.02812,0 c -0.0813,-0.90811 -0.31175,-1.58919 -0.69125,-2.04326 -0.58283,-0.70479 -1.33846,-1.0572 -2.2669,-1.0572 -0.84035,0 -1.54685,0.28125 -2.1195,0.84373 -0.57266,0.5625 -0.88948,1.31474 -0.95047,2.25673 z"
           id="path3811" />
        <path
           d="m 240.88993,241.73853 0,-10.79572 1.6468,0 0,1.53498 c 0.79291,-1.18596 1.93821,-1.77894 3.43593,-1.77895 0.65058,1e-5 1.24865,0.11691 1.7942,0.35071 0.54554,0.23381 0.95385,0.54047 1.22494,0.91997 0.27107,0.37952 0.46082,0.83019 0.56927,1.35201 0.0678,0.33885 0.10164,0.93184 0.10165,1.77895 l 0,6.63805 -1.82978,0 0,-6.56689 c -1e-5,-0.74546 -0.0712,-1.30287 -0.21348,-1.67222 -0.14232,-0.36934 -0.39476,-0.66413 -0.75732,-0.88439 -0.36258,-0.22025 -0.78783,-0.33037 -1.27577,-0.33038 -0.77935,1e-5 -1.45197,0.24737 -2.01784,0.74208 -0.56588,0.49472 -0.84882,1.43333 -0.84882,2.81583 l 0,5.89597 z"
           id="path3813" />
        <path
           d="m 256.47358,240.10189 0.2643,1.6163 c -0.51505,0.10844 -0.97589,0.16265 -1.3825,0.16265 -0.66415,0 -1.1792,-0.10504 -1.54515,-0.31513 -0.36596,-0.21008 -0.62349,-0.48624 -0.77258,-0.82848 -0.14909,-0.34224 -0.22364,-1.06229 -0.22364,-2.16016 l 0,-6.2111 -1.34184,0 0,-1.42316 1.34184,0 0,-2.67352 1.81962,-1.09787 0,3.77139 1.83995,0 0,1.42316 -1.83995,0 0,6.31275 c 0,0.52183 0.0322,0.85729 0.0966,1.00638 0.0644,0.1491 0.16942,0.26769 0.31513,0.35579 0.1457,0.0881 0.35409,0.13216 0.62518,0.13215 0.2033,1e-5 0.47099,-0.0237 0.80307,-0.0711 z"
           id="path3815" />
        <path
           d="m 258.2322,241.73853 0,-10.79572 1.64681,0 0,1.63664 c 0.42016,-0.76579 0.80815,-1.27067 1.16394,-1.51466 0.35579,-0.24396 0.74716,-0.36594 1.17411,-0.36595 0.6167,1e-5 1.24357,0.19654 1.88061,0.58959 l -0.63026,1.69764 c -0.44728,-0.2643 -0.89456,-0.39645 -1.34184,-0.39646 -0.39984,1e-5 -0.75902,0.1203 -1.07754,0.36088 -0.31852,0.24059 -0.54555,0.57435 -0.68108,1.00129 -0.20331,0.6506 -0.30497,1.36218 -0.30497,2.13475 l 0,5.652 z"
           id="path3817" />
        <path
           d="m 265.21587,228.94021 0,-2.10425 1.82978,0 0,2.10425 z m 0,12.79832 0,-10.79572 1.82978,0 0,10.79572 z"
           id="path3819" />
        <path
           d="m 276.88582,237.78416 1.79928,0.23381 c -0.19654,1.24019 -0.69973,2.21099 -1.50957,2.9124 -0.80985,0.70142 -1.80437,1.05213 -2.98356,1.05213 -1.47738,0 -2.66505,-0.48286 -3.56299,-1.44858 -0.89795,-0.96572 -1.34693,-2.34991 -1.34692,-4.15259 -10e-6,-1.16563 0.19314,-2.18557 0.57943,-3.0598 0.38628,-0.87422 0.97418,-1.5299 1.7637,-1.96702 0.78952,-0.4371 1.6485,-0.65566 2.57695,-0.65567 1.17241,1e-5 2.13135,0.2965 2.87682,0.88948 0.74546,0.59299 1.22324,1.43503 1.43333,2.52611 l -1.77895,0.27447 c -0.16944,-0.72513 -0.46932,-1.27067 -0.89965,-1.63664 -0.43034,-0.36595 -0.95047,-0.54893 -1.56039,-0.54893 -0.92168,0 -1.67053,0.33038 -2.24657,0.99113 -0.57605,0.66076 -0.86407,1.70611 -0.86406,3.13604 -10e-6,1.45028 0.27785,2.5041 0.83356,3.16146 0.55571,0.65737 1.28085,0.98605 2.17541,0.98605 0.71835,0 1.31812,-0.22025 1.79929,-0.66076 0.48115,-0.4405 0.78612,-1.11819 0.91489,-2.03309 z"
           id="path3821" />
        <path
           d="m 286.02457,245.87587 0,-14.93306 1.66713,0 0,1.40283 c 0.39306,-0.54892 0.83695,-0.96062 1.33168,-1.2351 0.49471,-0.27446 1.09447,-0.41169 1.79928,-0.4117 0.92166,1e-5 1.7349,0.2372 2.43971,0.71158 0.7048,0.4744 1.23679,1.14362 1.59598,2.00768 0.35917,0.86407 0.53876,1.81115 0.53877,2.84124 -10e-6,1.10465 -0.19824,2.09917 -0.59468,2.98357 -0.39646,0.88439 -0.97251,1.56209 -1.72813,2.03309 -0.75564,0.471 -1.55024,0.7065 -2.3838,0.7065 -0.60993,0 -1.15717,-0.12877 -1.64172,-0.38629 -0.48456,-0.25753 -0.8827,-0.58282 -1.19444,-0.97589 l 0,5.25555 z m 1.65697,-9.47421 c -10e-6,1.38928 0.28124,2.41599 0.84373,3.08013 0.56248,0.66415 1.24357,0.99622 2.04326,0.99622 0.81323,0 1.50956,-0.34393 2.089,-1.0318 0.57942,-0.68786 0.86914,-1.75353 0.86914,-3.19703 0,-1.37572 -0.28294,-2.40582 -0.84881,-3.0903 -0.56589,-0.68447 -1.24189,-1.0267 -2.02801,-1.02671 -0.77936,1e-5 -1.46891,0.36427 -2.06867,1.09278 -0.59977,0.72854 -0.89965,1.78744 -0.89964,3.17671 z"
           id="path3823" />
        <path
           d="m 297.59285,241.73853 0,-10.79572 1.6468,0 0,1.63664 c 0.42017,-0.76579 0.80816,-1.27067 1.16395,-1.51466 0.35579,-0.24396 0.74716,-0.36594 1.17411,-0.36595 0.6167,1e-5 1.24357,0.19654 1.88061,0.58959 l -0.63026,1.69764 c -0.44728,-0.2643 -0.89456,-0.39645 -1.34184,-0.39646 -0.39984,1e-5 -0.75902,0.1203 -1.07754,0.36088 -0.31852,0.24059 -0.54555,0.57435 -0.68108,1.00129 -0.20332,0.6506 -0.30497,1.36218 -0.30497,2.13475 l 0,5.652 z"
           id="path3825" />
        <path
           d="m 311.95666,238.26194 1.89077,0.2338 c -0.2982,1.10465 -0.85052,1.96194 -1.65697,2.57187 -0.80647,0.60992 -1.83657,0.91489 -3.0903,0.91489 -1.57904,0 -2.83108,-0.48625 -3.75613,-1.45875 -0.92506,-0.97249 -1.38759,-2.33635 -1.38759,-4.09159 0,-1.81623 0.46761,-3.22583 1.40283,-4.22883 0.93522,-1.00299 2.1483,-1.50448 3.63924,-1.50449 1.44349,1e-5 2.62268,0.49134 3.53758,1.47399 0.91488,0.98267 1.37232,2.36517 1.37233,4.14751 -10e-6,0.10843 -0.003,0.27108 -0.0102,0.48794 l -8.05104,0 c 0.0678,1.18597 0.40322,2.09409 1.00638,2.72434 0.60314,0.63026 1.35539,0.94539 2.25673,0.94539 0.67091,0 1.24356,-0.1762 1.71796,-0.52861 0.47438,-0.3524 0.8505,-0.91488 1.12837,-1.68746 z m -6.00779,-2.95815 6.02812,0 c -0.0813,-0.90811 -0.31175,-1.58919 -0.69125,-2.04326 -0.58283,-0.70479 -1.33846,-1.0572 -2.2669,-1.0572 -0.84035,0 -1.54685,0.28125 -2.1195,0.84373 -0.57266,0.5625 -0.88948,1.31474 -0.95047,2.25673 z"
           id="path3827" />
        <path
           d="m 315.42308,238.51608 1.80945,-0.28464 c 0.10165,0.72514 0.38459,1.28085 0.84882,1.66714 0.46421,0.38629 1.11311,0.57943 1.94668,0.57943 0.84034,0 1.46382,-0.17112 1.87044,-0.51336 0.40662,-0.34223 0.60992,-0.74377 0.60993,-1.2046 -10e-6,-0.4134 -0.1796,-0.73869 -0.53877,-0.97589 -0.25075,-0.16264 -0.87423,-0.36934 -1.87044,-0.62009 -1.34185,-0.33884 -2.27198,-0.63195 -2.79042,-0.87931 -0.51844,-0.24736 -0.9115,-0.58959 -1.17919,-1.02671 -0.26769,-0.43711 -0.40154,-0.91997 -0.40154,-1.44858 0,-0.48116 0.11013,-0.92674 0.33038,-1.33676 0.22025,-0.41 0.52013,-0.75054 0.89964,-1.02163 0.28463,-0.21007 0.67261,-0.38797 1.16395,-0.53369 0.49132,-0.14569 1.01823,-0.21854 1.58073,-0.21855 0.84711,1e-5 1.59088,0.12199 2.23131,0.36595 0.64042,0.24399 1.11311,0.57436 1.41809,0.99114 0.30495,0.41679 0.51504,0.97419 0.63025,1.67221 l -1.78912,0.24398 c -0.0813,-0.55571 -0.31683,-0.98943 -0.7065,-1.30118 -0.38968,-0.31173 -0.94031,-0.46761 -1.65188,-0.46761 -0.84035,0 -1.44011,0.13893 -1.79929,0.41678 -0.35918,0.27786 -0.53877,0.60316 -0.53877,0.97588 0,0.23721 0.0745,0.45068 0.22364,0.64043 0.14909,0.19654 0.3829,0.35918 0.70142,0.48794 0.18297,0.0678 0.72174,0.22365 1.61631,0.46761 1.29439,0.34563 2.19742,0.62857 2.70909,0.84882 0.51165,0.22025 0.91319,0.54046 1.20461,0.96063 0.2914,0.42018 0.4371,0.942 0.43711,1.56548 -10e-6,0.60993 -0.1779,1.18428 -0.53368,1.72305 -0.3558,0.53877 -0.86916,0.95555 -1.54007,1.25035 -0.67093,0.2948 -1.42995,0.4422 -2.27706,0.4422 -1.40284,0 -2.47191,-0.29141 -3.20721,-0.87423 -0.7353,-0.58282 -1.2046,-1.44688 -1.40791,-2.59219 z"
           id="path3829" />
        <path
           d="m 333.9547,238.26194 1.89078,0.2338 c -0.2982,1.10465 -0.85052,1.96194 -1.65697,2.57187 -0.80647,0.60992 -1.83657,0.91489 -3.0903,0.91489 -1.57904,0 -2.83108,-0.48625 -3.75614,-1.45875 -0.92506,-0.97249 -1.38758,-2.33635 -1.38758,-4.09159 0,-1.81623 0.46761,-3.22583 1.40283,-4.22883 0.93522,-1.00299 2.1483,-1.50448 3.63923,-1.50449 1.44349,1e-5 2.62268,0.49134 3.53758,1.47399 0.91489,0.98267 1.37233,2.36517 1.37234,4.14751 -1e-5,0.10843 -0.003,0.27108 -0.0102,0.48794 l -8.05105,0 c 0.0678,1.18597 0.40323,2.09409 1.00638,2.72434 0.60315,0.63026 1.35539,0.94539 2.25673,0.94539 0.67092,0 1.24357,-0.1762 1.71797,-0.52861 0.47438,-0.3524 0.8505,-0.91488 1.12836,-1.68746 z m -6.00778,-2.95815 6.02811,0 c -0.0813,-0.90811 -0.31175,-1.58919 -0.69125,-2.04326 -0.58282,-0.70479 -1.33846,-1.0572 -2.26689,-1.0572 -0.84035,0 -1.54685,0.28125 -2.1195,0.84373 -0.57266,0.5625 -0.88948,1.31474 -0.95047,2.25673 z"
           id="path3831" />
        <path
           d="m 338.15304,241.73853 0,-10.79572 1.6468,0 0,1.53498 c 0.7929,-1.18596 1.93821,-1.77894 3.43593,-1.77895 0.65058,1e-5 1.24865,0.11691 1.7942,0.35071 0.54554,0.23381 0.95385,0.54047 1.22494,0.91997 0.27107,0.37952 0.46082,0.83019 0.56926,1.35201 0.0678,0.33885 0.10165,0.93184 0.10166,1.77895 l 0,6.63805 -1.82978,0 0,-6.56689 c -10e-6,-0.74546 -0.0712,-1.30287 -0.21348,-1.67222 -0.14232,-0.36934 -0.39477,-0.66413 -0.75733,-0.88439 -0.36257,-0.22025 -0.78783,-0.33037 -1.27576,-0.33038 -0.77936,1e-5 -1.45197,0.24737 -2.01784,0.74208 -0.56588,0.49472 -0.84882,1.43333 -0.84882,2.81583 l 0,5.89597 z"
           id="path3833" />
        <path
           d="m 353.73669,240.10189 0.2643,1.6163 c -0.51506,0.10844 -0.97589,0.16265 -1.3825,0.16265 -0.66415,0 -1.1792,-0.10504 -1.54515,-0.31513 -0.36596,-0.21008 -0.62349,-0.48624 -0.77258,-0.82848 -0.14909,-0.34224 -0.22364,-1.06229 -0.22364,-2.16016 l 0,-6.2111 -1.34184,0 0,-1.42316 1.34184,0 0,-2.67352 1.81962,-1.09787 0,3.77139 1.83995,0 0,1.42316 -1.83995,0 0,6.31275 c -1e-5,0.52183 0.0322,0.85729 0.0966,1.00638 0.0644,0.1491 0.16942,0.26769 0.31513,0.35579 0.1457,0.0881 0.35409,0.13216 0.62517,0.13215 0.20331,1e-5 0.471,-0.0237 0.80308,-0.0711 z"
           id="path3835" />
        <path
           d="m 362.56031,240.40685 c -0.6777,0.57604 -1.32999,0.98266 -1.95685,1.21986 -0.62688,0.23719 -1.29949,0.35579 -2.01784,0.35579 -1.18598,0 -2.09748,-0.28972 -2.73451,-0.86915 -0.63704,-0.57943 -0.95556,-1.31981 -0.95556,-2.22115 0,-0.5286 0.12029,-1.01146 0.36088,-1.44858 0.24058,-0.43711 0.55571,-0.78782 0.94539,-1.05213 0.38967,-0.26429 0.82848,-0.46421 1.31642,-0.59976 0.35918,-0.0949 0.90134,-0.18636 1.62648,-0.27447 1.47737,-0.17619 2.56507,-0.38628 3.26311,-0.63025 0.007,-0.25074 0.0102,-0.41 0.0102,-0.47778 0,-0.74546 -0.17282,-1.27067 -0.51843,-1.57565 -0.46762,-0.41338 -1.16226,-0.62008 -2.08392,-0.62009 -0.86068,1e-5 -1.49602,0.1508 -1.90603,0.45236 -0.41001,0.30159 -0.71328,0.83527 -0.90981,1.60106 l -1.78912,-0.24397 c 0.16265,-0.76579 0.43034,-1.38419 0.80307,-1.85519 0.37274,-0.47099 0.9115,-0.83356 1.61631,-1.08771 0.7048,-0.25412 1.52143,-0.38119 2.44988,-0.3812 0.92166,1e-5 1.67051,0.10844 2.24656,0.32529 0.57604,0.21688 0.9996,0.48965 1.27069,0.81832 0.27107,0.32869 0.46082,0.74378 0.56926,1.24527 0.061,0.31175 0.0915,0.87424 0.0915,1.68747 l 0,2.43971 c -1e-5,1.70102 0.039,2.77686 0.1169,3.22753 0.0779,0.45067 0.23211,0.8827 0.46253,1.2961 l -1.9111,0 c -0.18977,-0.37951 -0.31175,-0.82341 -0.36596,-1.33168 z m -0.15248,-4.08651 c -0.66415,0.27108 -1.66037,0.5015 -2.98865,0.69125 -0.75224,0.10843 -1.28424,0.23042 -1.59597,0.36595 -0.31175,0.13555 -0.55233,0.33377 -0.72175,0.59468 -0.16943,0.26092 -0.25414,0.55064 -0.25414,0.86915 0,0.48794 0.18467,0.89456 0.55402,1.21985 0.36934,0.3253 0.9098,0.48795 1.62139,0.48795 0.7048,0 1.33167,-0.15418 1.88061,-0.46253 0.54893,-0.30835 0.95216,-0.73022 1.20969,-1.2656 0.19652,-0.41339 0.29479,-1.02332 0.2948,-1.82978 z"
           id="path3837" />
        <path
           d="m 371.0993,240.10189 0.2643,1.6163 c -0.51506,0.10844 -0.97589,0.16265 -1.3825,0.16265 -0.66415,0 -1.1792,-0.10504 -1.54515,-0.31513 -0.36596,-0.21008 -0.62349,-0.48624 -0.77258,-0.82848 -0.14909,-0.34224 -0.22364,-1.06229 -0.22364,-2.16016 l 0,-6.2111 -1.34184,0 0,-1.42316 1.34184,0 0,-2.67352 1.81962,-1.09787 0,3.77139 1.83995,0 0,1.42316 -1.83995,0 0,6.31275 c -10e-6,0.52183 0.0322,0.85729 0.0966,1.00638 0.0644,0.1491 0.16942,0.26769 0.31513,0.35579 0.1457,0.0881 0.35409,0.13216 0.62517,0.13215 0.20331,1e-5 0.471,-0.0237 0.80308,-0.0711 z"
           id="path3839" />
        <path
           d="m 372.88841,228.94021 0,-2.10425 1.82978,0 0,2.10425 z m 0,12.79832 0,-10.79572 1.82978,0 0,10.79572 z"
           id="path3841" />
        <path
           d="m 376.83261,236.34067 c 0,-1.9992 0.55571,-3.47997 1.66713,-4.44231 0.92845,-0.79967 2.0602,-1.19951 3.39527,-1.19952 1.48415,1e-5 2.69722,0.48626 3.63923,1.45874 0.94199,0.9725 1.41299,2.31604 1.413,4.03061 -1e-5,1.38928 -0.2084,2.48206 -0.62518,3.27836 -0.41679,0.79629 -1.02333,1.41469 -1.81961,1.85519 -0.7963,0.4405 -1.66545,0.66076 -2.60744,0.66076 -1.51127,0 -2.73282,-0.48456 -3.66465,-1.45366 -0.93184,-0.96911 -1.39775,-2.36516 -1.39775,-4.18817 z m 1.88061,0 c 0,1.3825 0.30157,2.41768 0.90472,3.10554 0.60315,0.68787 1.36217,1.0318 2.27707,1.0318 0.9081,0 1.66374,-0.34563 2.26689,-1.03688 0.60315,-0.69125 0.90472,-1.74506 0.90473,-3.16146 -10e-6,-1.33505 -0.30328,-2.34651 -0.90981,-3.03439 -0.60654,-0.68785 -1.36048,-1.03178 -2.26181,-1.03179 -0.9149,1e-5 -1.67392,0.34225 -2.27707,1.02671 -0.60315,0.68448 -0.90472,1.71797 -0.90472,3.10047 z"
           id="path3843" />
        <path
           d="m 389.10232,241.73853 0,-10.79572 1.6468,0 0,1.53498 c 0.7929,-1.18596 1.93821,-1.77894 3.43593,-1.77895 0.65058,1e-5 1.24865,0.11691 1.7942,0.35071 0.54554,0.23381 0.95385,0.54047 1.22494,0.91997 0.27107,0.37952 0.46082,0.83019 0.56926,1.35201 0.0678,0.33885 0.10165,0.93184 0.10166,1.77895 l 0,6.63805 -1.82978,0 0,-6.56689 c -10e-6,-0.74546 -0.0712,-1.30287 -0.21348,-1.67222 -0.14232,-0.36934 -0.39477,-0.66413 -0.75733,-0.88439 -0.36257,-0.22025 -0.78783,-0.33037 -1.27576,-0.33038 -0.77936,1e-5 -1.45197,0.24737 -2.01784,0.74208 -0.56588,0.49472 -0.84882,1.43333 -0.84882,2.81583 l 0,5.89597 z"
           id="path3845" />
        <path
           d="m 399.95903,238.51608 1.80945,-0.28464 c 0.10165,0.72514 0.38459,1.28085 0.84881,1.66714 0.46422,0.38629 1.11312,0.57943 1.94669,0.57943 0.84034,0 1.46382,-0.17112 1.87044,-0.51336 0.40662,-0.34223 0.60992,-0.74377 0.60993,-1.2046 -1e-5,-0.4134 -0.1796,-0.73869 -0.53877,-0.97589 -0.25075,-0.16264 -0.87423,-0.36934 -1.87044,-0.62009 -1.34185,-0.33884 -2.27198,-0.63195 -2.79042,-0.87931 -0.51844,-0.24736 -0.9115,-0.58959 -1.17919,-1.02671 -0.26769,-0.43711 -0.40154,-0.91997 -0.40154,-1.44858 0,-0.48116 0.11013,-0.92674 0.33038,-1.33676 0.22025,-0.41 0.52013,-0.75054 0.89964,-1.02163 0.28463,-0.21007 0.67261,-0.38797 1.16395,-0.53369 0.49132,-0.14569 1.01823,-0.21854 1.58073,-0.21855 0.84711,1e-5 1.59088,0.12199 2.23131,0.36595 0.64042,0.24399 1.11311,0.57436 1.41809,0.99114 0.30495,0.41679 0.51504,0.97419 0.63025,1.67221 l -1.78912,0.24398 c -0.0813,-0.55571 -0.31683,-0.98943 -0.7065,-1.30118 -0.38968,-0.31173 -0.94031,-0.46761 -1.65188,-0.46761 -0.84035,0 -1.44011,0.13893 -1.79929,0.41678 -0.35918,0.27786 -0.53877,0.60316 -0.53877,0.97588 0,0.23721 0.0745,0.45068 0.22364,0.64043 0.14909,0.19654 0.3829,0.35918 0.70142,0.48794 0.18297,0.0678 0.72174,0.22365 1.61631,0.46761 1.29439,0.34563 2.19742,0.62857 2.70909,0.84882 0.51165,0.22025 0.91319,0.54046 1.20461,0.96063 0.2914,0.42018 0.4371,0.942 0.43711,1.56548 -10e-6,0.60993 -0.1779,1.18428 -0.53368,1.72305 -0.3558,0.53877 -0.86916,0.95555 -1.54007,1.25035 -0.67093,0.2948 -1.42995,0.4422 -2.27706,0.4422 -1.40284,0 -2.47191,-0.29141 -3.20721,-0.87423 -0.7353,-0.58282 -1.2046,-1.44688 -1.40791,-2.59219 z"
           id="path3847" />
      </g>
    </g>
  </g>
</svg>
