<?xml version="1.0" encoding="UTF-8" standalone="no"?>
<!-- Created with Inkscape (http://www.inkscape.org/) -->

<svg
   xmlns:dc="http://purl.org/dc/elements/1.1/"
   xmlns:cc="http://creativecommons.org/ns#"
   xmlns:rdf="http://www.w3.org/1999/02/22-rdf-syntax-ns#"
   xmlns:svg="http://www.w3.org/2000/svg"
   xmlns="http://www.w3.org/2000/svg"
   xmlns:sodipodi="http://sodipodi.sourceforge.net/DTD/sodipodi-0.dtd"
   xmlns:inkscape="http://www.inkscape.org/namespaces/inkscape"
   width="373.09064"
   height="134.61717"
   id="svg3045"
   version="1.1"
   inkscape:version="0.48.2 r9819"
   sodipodi:docname="logo_infinity.svg">
  <defs
     id="defs3047">
    <filter
       inkscape:collect="always"
       id="filter3919"
       color-interpolation-filters="sRGB">
      <feGaussianBlur
         inkscape:collect="always"
         stdDeviation="4.4891157"
         id="feGaussianBlur3921" />
    </filter>
  </defs>
  <sodipodi:namedview
     id="base"
     pagecolor="#ffffff"
     bordercolor="#666666"
     borderopacity="1.0"
     inkscape:pageopacity="0.0"
     inkscape:pageshadow="2"
     inkscape:zoom="0.98994949"
     inkscape:cx="190.71585"
     inkscape:cy="-56.88878"
     inkscape:document-units="px"
     inkscape:current-layer="layer1"
     showgrid="false"
     fit-margin-top="1"
     fit-margin-left="1"
     fit-margin-right="1"
     fit-margin-bottom="1"
     inkscape:window-width="1226"
     inkscape:window-height="784"
     inkscape:window-x="438"
     inkscape:window-y="131"
     inkscape:window-maximized="0"
     borderlayer="false"
     inkscape:showpageshadow="false"
     showborder="true" />
  <metadata
     id="metadata3050">
    <rdf:RDF>
      <cc:Work
         rdf:about="">
        <dc:format>image/svg+xml</dc:format>
        <dc:type
           rdf:resource="http://purl.org/dc/dcmitype/StillImage" />
        <dc:title></dc:title>
      </cc:Work>
    </rdf:RDF>
  </metadata>
  <g
     inkscape:label="Layer 1"
     inkscape:groupmode="layer"
     id="layer1"
     transform="translate(-157.49894,-116.089)">
    <g
       style="font-size:126.94871521px;font-style:normal;font-variant:normal;font-weight:normal;font-stretch:normal;text-align:start;line-height:125%;letter-spacing:0px;word-spacing:0px;writing-mode:lr-tb;text-anchor:start;fill:#666666;fill-opacity:1;stroke:none;filter:url(#filter3919);font-family:Calibri;-inkscape-font-specification:Calibri"
       id="text3053">
      <path
         d="m 180.74036,213.09456 c -2e-5,0.3306 -0.0827,0.60954 -0.24795,0.83682 -0.16532,0.22728 -0.43392,0.42358 -0.80583,0.58887 -0.37193,0.1653 -0.88849,0.28927 -1.54966,0.37192 -0.66121,0.0827 -1.50836,0.12398 -2.54146,0.12398 -0.9918,0 -1.81828,-0.0413 -2.47946,-0.12398 -0.66121,-0.0827 -1.18809,-0.20662 -1.58066,-0.37192 -0.3926,-0.16529 -0.6612,-0.36159 -0.80583,-0.58887 -0.14465,-0.22728 -0.21696,-0.50622 -0.21695,-0.83682 l 0,-55.78801 c -1e-5,-0.28921 0.0723,-0.55782 0.21695,-0.80583 0.14463,-0.24789 0.41323,-0.45451 0.80583,-0.61986 0.39257,-0.16524 0.91945,-0.28922 1.58066,-0.37192 0.66118,-0.0826 1.48766,-0.12392 2.47946,-0.12398 1.0331,6e-5 1.88025,0.0414 2.54146,0.12398 0.66117,0.0827 1.17773,0.20668 1.54966,0.37192 0.37191,0.16535 0.64051,0.37197 0.80583,0.61986 0.16528,0.24801 0.24793,0.51662 0.24795,0.80583 z m 1.17775,-74.63196 c -3e-5,2.39689 -0.45459,4.02921 -1.36371,4.89695 -0.90916,0.86788 -2.5828,1.30179 -5.02092,1.30172 -2.39683,7e-5 -4.03948,-0.42351 -4.92794,-1.27073 -0.88849,-0.84708 -1.33273,-2.4484 -1.33272,-4.80397 -1e-5,-2.39674 0.45456,-4.02905 1.36371,-4.89694 0.90913,-0.86774 2.58277,-1.30164 5.02092,-1.30172 2.3968,8e-5 4.03945,0.42365 4.92794,1.27072 0.88846,0.84723 1.33269,2.44855 1.33272,4.80397 z"
         id="path4061"
         inkscape:connector-curvature="0" />
      <path
         d="m 247.80994,213.09456 c -5e-5,0.3306 -0.0827,0.60954 -0.24794,0.83682 -0.16536,0.22728 -0.43397,0.42358 -0.80583,0.58887 -0.37198,0.1653 -0.88853,0.28927 -1.54967,0.37192 -0.66124,0.0827 -1.48773,0.12398 -2.47946,0.12398 -1.03317,0 -1.88032,-0.0413 -2.54146,-0.12398 -0.66124,-0.0827 -1.17779,-0.20662 -1.54967,-0.37192 -0.37196,-0.16529 -0.64057,-0.36159 -0.80582,-0.58887 -0.16535,-0.22728 -0.248,-0.50622 -0.24795,-0.83682 l 0,-32.66698 c -5e-5,-3.18195 -0.24799,-5.74406 -0.74384,-7.68635 -0.49594,-1.9422 -1.21912,-3.61584 -2.16953,-5.02092 -0.95051,-1.40498 -2.17991,-2.47942 -3.68821,-3.22331 -1.50838,-0.74379 -3.25434,-1.1157 -5.23787,-1.11576 -2.56215,6e-5 -5.12427,0.90919 -7.68635,2.72742 -2.56214,1.81832 -5.24823,4.48374 -8.05827,7.99628 l 0,38.98962 c -2e-5,0.3306 -0.0827,0.60954 -0.24795,0.83682 -0.16531,0.22728 -0.43392,0.42358 -0.80582,0.58887 -0.37194,0.1653 -0.8885,0.28927 -1.54967,0.37192 -0.66121,0.0827 -1.50836,0.12398 -2.54145,0.12398 -0.9918,0 -1.81829,-0.0413 -2.47947,-0.12398 -0.6612,-0.0827 -1.18809,-0.20662 -1.58066,-0.37192 -0.39259,-0.16529 -0.6612,-0.36159 -0.80583,-0.58887 -0.14464,-0.22728 -0.21696,-0.50622 -0.21695,-0.83682 l 0,-55.78801 c -1e-5,-0.33054 0.062,-0.60948 0.18596,-0.83682 0.12396,-0.22723 0.37191,-0.43385 0.74384,-0.61987 0.37191,-0.1859 0.84714,-0.30987 1.42569,-0.37192 0.57853,-0.0619 1.34303,-0.0929 2.29351,-0.093 0.90912,6e-5 1.66329,0.0311 2.26251,0.093 0.59919,0.062 1.06409,0.18602 1.3947,0.37192 0.33058,0.18602 0.5682,0.39264 0.71285,0.61987 0.14462,0.22734 0.21693,0.50628 0.21695,0.83682 l 0,7.37641 c 3.14064,-3.51252 6.27096,-6.08497 9.39098,-7.71734 3.11997,-1.63225 6.27096,-2.44841 9.45297,-2.44847 3.71916,6e-5 6.84949,0.63026 9.39098,1.89059 2.54141,1.26046 4.5973,2.94443 6.16768,5.05192 1.57027,2.1076 2.69636,4.57673 3.37827,7.4074 0.6818,2.83077 1.02273,6.22971 1.02278,10.19681 z"
         id="path4063"
         inkscape:connector-curvature="0" />
      <path
         d="m 297.02736,134.37148 c -4e-5,0.78524 -0.0414,1.41544 -0.12397,1.89059 -0.0827,0.47531 -0.17567,0.85756 -0.27894,1.14676 -0.10335,0.28934 -0.23765,0.48564 -0.40291,0.58887 -0.16534,0.10339 -0.37196,0.15504 -0.61987,0.15497 -0.28931,7e-5 -0.6509,-0.0929 -1.08477,-0.27894 -0.43394,-0.18589 -0.96083,-0.39251 -1.58066,-0.61987 -0.6199,-0.22721 -1.35341,-0.43383 -2.20052,-0.61987 -0.84719,-0.18588 -1.82864,-0.27886 -2.94437,-0.27894 -1.52903,8e-5 -2.83075,0.24803 -3.90516,0.74384 -1.07446,0.49597 -1.94228,1.27081 -2.60344,2.3245 -0.66122,1.05385 -1.13645,2.41756 -1.4257,4.09112 -0.28929,1.67371 -0.43392,3.70894 -0.4339,6.10569 l 0,6.0747 12.45932,0 c 0.33056,5e-5 0.6095,0.0724 0.83682,0.21695 0.22725,0.14469 0.43387,0.39264 0.61987,0.74384 0.18592,0.35131 0.33056,0.79555 0.4339,1.33271 0.10328,0.53728 0.15493,1.19847 0.15497,1.98358 -4e-5,1.48773 -0.186,2.56216 -0.55788,3.2233 -0.37196,0.66125 -0.86785,0.99184 -1.48768,0.99179 l -12.45932,0 0,48.90749 c -2e-5,0.3306 -0.0827,0.60954 -0.24795,0.83682 -0.16532,0.22728 -0.44426,0.42358 -0.83682,0.58887 -0.3926,0.1653 -0.91949,0.28927 -1.58066,0.37192 -0.66121,0.0827 -1.4877,0.12398 -2.47947,0.12398 -0.9918,0 -1.81829,-0.0413 -2.47946,-0.12398 -0.66121,-0.0827 -1.1881,-0.20662 -1.58066,-0.37192 -0.3926,-0.16529 -0.67154,-0.36159 -0.83682,-0.58887 -0.16531,-0.22728 -0.24796,-0.50622 -0.24795,-0.83682 l 0,-48.90749 -7.87231,0 c -0.66119,5e-5 -1.15709,-0.33054 -1.48768,-0.99179 -0.3306,-0.66114 -0.49589,-1.73557 -0.49589,-3.2233 0,-0.78511 0.0413,-1.4463 0.12397,-1.98358 0.0827,-0.53716 0.20662,-0.9814 0.37192,-1.33271 0.1653,-0.3512 0.37192,-0.59915 0.61987,-0.74384 0.24794,-0.14458 0.53721,-0.2169 0.86781,-0.21695 l 7.87231,0 0,-5.76477 c -10e-6,-3.88442 0.36158,-7.22137 1.08477,-10.01084 0.72316,-2.78933 1.82859,-5.0725 3.31628,-6.84953 1.48767,-1.77687 3.3576,-3.08892 5.6098,-3.93616 2.25216,-0.84706 4.90725,-1.27064 7.96529,-1.27072 1.44632,8e-5 2.85135,0.13439 4.21509,0.40291 1.36367,0.2687 2.41744,0.55797 3.16132,0.86781 0.7438,0.31002 1.2397,0.58896 1.48768,0.83682 0.24791,0.24804 0.45453,0.5683 0.61987,0.9608 0.16526,0.39266 0.2789,0.86789 0.34092,1.42569 0.062,0.55796 0.0929,1.22949 0.093,2.01457 z"
         id="path4065"
         inkscape:connector-curvature="0" />
      <path
         d="m 315.37541,213.09456 c -2e-5,0.3306 -0.0827,0.60954 -0.24794,0.83682 -0.16532,0.22728 -0.43393,0.42358 -0.80583,0.58887 -0.37194,0.1653 -0.88849,0.28927 -1.54967,0.37192 -0.6612,0.0827 -1.50835,0.12398 -2.54145,0.12398 -0.9918,0 -1.81829,-0.0413 -2.47947,-0.12398 -0.6612,-0.0827 -1.18809,-0.20662 -1.58066,-0.37192 -0.39259,-0.16529 -0.6612,-0.36159 -0.80582,-0.58887 -0.14465,-0.22728 -0.21697,-0.50622 -0.21696,-0.83682 l 0,-55.78801 c -10e-6,-0.28921 0.0723,-0.55782 0.21696,-0.80583 0.14462,-0.24789 0.41323,-0.45451 0.80582,-0.61986 0.39257,-0.16524 0.91946,-0.28922 1.58066,-0.37192 0.66118,-0.0826 1.48767,-0.12392 2.47947,-0.12398 1.0331,6e-5 1.88025,0.0414 2.54145,0.12398 0.66118,0.0827 1.17773,0.20668 1.54967,0.37192 0.3719,0.16535 0.64051,0.37197 0.80583,0.61986 0.16528,0.24801 0.24792,0.51662 0.24794,0.80583 z m 1.17775,-74.63196 c -2e-5,2.39689 -0.45459,4.02921 -1.36371,4.89695 -0.90915,0.86788 -2.58279,1.30179 -5.02092,1.30172 -2.39683,7e-5 -4.03947,-0.42351 -4.92794,-1.27073 -0.88848,-0.84708 -1.33272,-2.4484 -1.33271,-4.80397 -10e-6,-2.39674 0.45456,-4.02905 1.36371,-4.89694 0.90912,-0.86774 2.58276,-1.30164 5.02092,-1.30172 2.3968,8e-5 4.03944,0.42365 4.92794,1.27072 0.88845,0.84723 1.33269,2.44855 1.33271,4.80397 z"
         id="path4067"
         inkscape:connector-curvature="0" />
      <path
         d="m 382.44501,213.09456 c -6e-5,0.3306 -0.0827,0.60954 -0.24795,0.83682 -0.16535,0.22728 -0.43396,0.42358 -0.80583,0.58887 -0.37197,0.1653 -0.88853,0.28927 -1.54966,0.37192 -0.66125,0.0827 -1.48774,0.12398 -2.47947,0.12398 -1.03316,0 -1.88031,-0.0413 -2.54145,-0.12398 -0.66124,-0.0827 -1.1778,-0.20662 -1.54967,-0.37192 -0.37197,-0.16529 -0.64058,-0.36159 -0.80583,-0.58887 -0.16534,-0.22728 -0.24799,-0.50622 -0.24794,-0.83682 l 0,-32.66698 c -5e-5,-3.18195 -0.248,-5.74406 -0.74384,-7.68635 -0.49594,-1.9422 -1.21912,-3.61584 -2.16954,-5.02092 -0.9505,-1.40498 -2.1799,-2.47942 -3.6882,-3.22331 -1.50839,-0.74379 -3.25434,-1.1157 -5.23788,-1.11576 -2.56215,6e-5 -5.12426,0.90919 -7.68635,2.72742 -2.56214,1.81832 -5.24822,4.48374 -8.05827,7.99628 l 0,38.98962 c -10e-6,0.3306 -0.0827,0.60954 -0.24794,0.83682 -0.16532,0.22728 -0.43393,0.42358 -0.80583,0.58887 -0.37194,0.1653 -0.88849,0.28927 -1.54967,0.37192 -0.6612,0.0827 -1.50835,0.12398 -2.54145,0.12398 -0.9918,0 -1.81829,-0.0413 -2.47947,-0.12398 -0.6612,-0.0827 -1.18809,-0.20662 -1.58066,-0.37192 -0.39259,-0.16529 -0.6612,-0.36159 -0.80582,-0.58887 -0.14465,-0.22728 -0.21697,-0.50622 -0.21696,-0.83682 l 0,-55.78801 c -10e-6,-0.33054 0.062,-0.60948 0.18596,-0.83682 0.12397,-0.22723 0.37191,-0.43385 0.74384,-0.61987 0.37191,-0.1859 0.84714,-0.30987 1.4257,-0.37192 0.57853,-0.0619 1.34303,-0.0929 2.2935,-0.093 0.90913,6e-5 1.6633,0.0311 2.26252,0.093 0.59919,0.062 1.06408,0.18602 1.3947,0.37192 0.33058,0.18602 0.56819,0.39264 0.71284,0.61987 0.14462,0.22734 0.21694,0.50628 0.21696,0.83682 l 0,7.37641 c 3.14063,-3.51252 6.27096,-6.08497 9.39098,-7.71734 3.11996,-1.63225 6.27095,-2.44841 9.45297,-2.44847 3.71916,6e-5 6.84948,0.63026 9.39098,1.89059 2.5414,1.26046 4.59729,2.94443 6.16767,5.05192 1.57028,2.1076 2.69637,4.57673 3.37828,7.4074 0.68179,2.83077 1.02272,6.22971 1.02278,10.19681 z"
         id="path4069"
         inkscape:connector-curvature="0" />
      <path
         d="m 411.3308,213.09456 c -2e-5,0.3306 -0.0827,0.60954 -0.24795,0.83682 -0.16532,0.22728 -0.43393,0.42358 -0.80583,0.58887 -0.37193,0.1653 -0.88849,0.28927 -1.54966,0.37192 -0.66121,0.0827 -1.50836,0.12398 -2.54146,0.12398 -0.9918,0 -1.81829,-0.0413 -2.47946,-0.12398 -0.66121,-0.0827 -1.18809,-0.20662 -1.58066,-0.37192 -0.3926,-0.16529 -0.66121,-0.36159 -0.80583,-0.58887 -0.14465,-0.22728 -0.21696,-0.50622 -0.21695,-0.83682 l 0,-55.78801 c -1e-5,-0.28921 0.0723,-0.55782 0.21695,-0.80583 0.14462,-0.24789 0.41323,-0.45451 0.80583,-0.61986 0.39257,-0.16524 0.91945,-0.28922 1.58066,-0.37192 0.66117,-0.0826 1.48766,-0.12392 2.47946,-0.12398 1.0331,6e-5 1.88025,0.0414 2.54146,0.12398 0.66117,0.0827 1.17773,0.20668 1.54966,0.37192 0.3719,0.16535 0.64051,0.37197 0.80583,0.61986 0.16528,0.24801 0.24793,0.51662 0.24795,0.80583 z m 1.17774,-74.63196 c -2e-5,2.39689 -0.45459,4.02921 -1.3637,4.89695 -0.90916,0.86788 -2.5828,1.30179 -5.02092,1.30172 -2.39683,7e-5 -4.03948,-0.42351 -4.92794,-1.27073 -0.88849,-0.84708 -1.33273,-2.4484 -1.33272,-4.80397 -1e-5,-2.39674 0.45456,-4.02905 1.36371,-4.89694 0.90913,-0.86774 2.58276,-1.30164 5.02092,-1.30172 2.3968,8e-5 4.03945,0.42365 4.92794,1.27072 0.88846,0.84723 1.33269,2.44855 1.33271,4.80397 z"
         id="path4071"
         inkscape:connector-curvature="0" />
      <path
         d="m 459.37047,209.00344 c -4e-5,1.19841 -0.0827,2.14887 -0.24795,2.85139 -0.16534,0.70251 -0.41328,1.21907 -0.74384,1.54966 -0.33063,0.3306 -0.82653,0.64053 -1.48768,0.9298 -0.66123,0.28927 -1.4154,0.52689 -2.26251,0.71285 -0.84719,0.18596 -1.74599,0.34093 -2.69643,0.4649 -0.95049,0.12397 -1.90095,0.18596 -2.85138,0.18596 -2.89274,0 -5.3722,-0.38225 -7.4384,-1.14675 -2.06624,-0.76451 -3.76055,-1.92159 -5.08291,-3.47126 -1.3224,-1.54966 -2.28319,-3.51257 -2.88238,-5.88873 -0.59922,-2.37615 -0.89882,-5.17588 -0.89881,-8.3992 l 0,-32.60499 -7.81032,0 c -0.61987,5e-5 -1.11576,-0.33054 -1.48768,-0.99179 -0.37192,-0.66114 -0.55788,-1.73557 -0.55788,-3.2233 0,-0.78511 0.0516,-1.4463 0.15497,-1.98358 0.10331,-0.53716 0.23761,-0.9814 0.40291,-1.33271 0.16529,-0.3512 0.38225,-0.59915 0.65086,-0.74384 0.26861,-0.14458 0.56821,-0.2169 0.89881,-0.21695 l 7.74833,0 0,-13.26515 c -1e-5,-0.2892 0.0723,-0.55781 0.21695,-0.80583 0.14463,-0.24787 0.41324,-0.46483 0.80583,-0.65086 0.39257,-0.18589 0.91946,-0.32019 1.58066,-0.40291 0.66118,-0.0826 1.48767,-0.1239 2.47947,-0.12398 1.03309,8e-5 1.88024,0.0414 2.54145,0.12398 0.66117,0.0827 1.17773,0.21702 1.54967,0.40291 0.3719,0.18603 0.64051,0.40299 0.80583,0.65086 0.16527,0.24802 0.24792,0.51663 0.24794,0.80583 l 0,13.26515 14.31893,0 c 0.33055,5e-5 0.61983,0.0724 0.86781,0.21695 0.24791,0.14469 0.46486,0.39264 0.65086,0.74384 0.18592,0.35131 0.32023,0.79555 0.40291,1.33271 0.0826,0.53728 0.12394,1.19847 0.12398,1.98358 -4e-5,1.48773 -0.186,2.56216 -0.55788,3.2233 -0.37196,0.66125 -0.86785,0.99184 -1.48768,0.99179 l -14.31893,0 0,31.11731 c -2e-5,3.84319 0.56819,6.74623 1.70464,8.70913 1.13639,1.96292 3.17162,2.94438 6.10568,2.94437 0.95044,1e-5 1.79759,-0.093 2.54146,-0.27894 0.74381,-0.18595 1.405,-0.38224 1.98357,-0.58888 0.57851,-0.20661 1.0744,-0.4029 1.48768,-0.58887 0.41321,-0.18595 0.78513,-0.27893 1.11576,-0.27894 0.20659,1e-5 0.40288,0.0517 0.58888,0.15497 0.18592,0.10332 0.33055,0.29961 0.4339,0.58887 0.10328,0.28928 0.19626,0.68186 0.27894,1.17775 0.0826,0.4959 0.12394,1.11576 0.12398,1.8596 z"
         id="path4073"
         inkscape:connector-curvature="0" />
      <path
         d="m 498.42209,214.64423 -7.4384,20.51759 c -0.24798,0.66117 -0.87817,1.16739 -1.8906,1.51867 -1.01247,0.35124 -2.5518,0.52686 -4.618,0.52689 -1.07446,-3e-5 -1.94227,-0.0517 -2.60344,-0.15497 -0.66121,-0.10333 -1.16744,-0.27896 -1.51868,-0.52689 -0.35127,-0.24797 -0.54756,-0.57856 -0.58887,-0.99178 -0.0413,-0.41327 0.062,-0.90916 0.30993,-1.48768 l 7.68635,-19.40183 c -0.37194,-0.1653 -0.7232,-0.43391 -1.05377,-0.80583 -0.33062,-0.37192 -0.55791,-0.7645 -0.68186,-1.17775 l -19.89772,-53.30854 c -0.3306,-0.86776 -0.49589,-1.54961 -0.49589,-2.04556 0,-0.49584 0.16529,-0.88842 0.49589,-1.17775 0.33059,-0.28921 0.86781,-0.4855 1.61165,-0.58887 0.74384,-0.10325 1.73563,-0.15491 2.97536,-0.15497 1.23973,6e-5 2.21085,0.0311 2.91338,0.093 0.7025,0.062 1.26038,0.17569 1.67364,0.34093 0.41323,0.16536 0.71283,0.40297 0.89881,0.71285 0.18594,0.30999 0.38223,0.73356 0.58887,1.27072 l 15.93058,44.75438 0.18596,0 15.37269,-45.00232 c 0.2479,-0.78511 0.5475,-1.29133 0.89881,-1.51868 0.35121,-0.22722 0.8781,-0.39252 1.58066,-0.49589 0.70247,-0.10325 1.71491,-0.15491 3.03735,-0.15497 1.15703,6e-5 2.10749,0.0517 2.85138,0.15497 0.74379,0.10337 1.29134,0.29966 1.64265,0.58887 0.3512,0.28933 0.52683,0.68191 0.52689,1.17775 -6e-5,0.49595 -0.12403,1.11582 -0.37192,1.8596 z"
         id="path4075"
         inkscape:connector-curvature="0" />
    </g>
    <g
       style="font-size:126.94871521px;font-style:normal;font-variant:normal;font-weight:normal;font-stretch:normal;text-align:start;line-height:125%;letter-spacing:0px;word-spacing:0px;writing-mode:lr-tb;text-anchor:start;fill:#000000;fill-opacity:1;stroke:none;font-family:Calibri;-inkscape-font-specification:Calibri"
       id="text3053-1">
      <path
         d="m 177.11749,211.15996 c -2e-5,0.3306 -0.0827,0.60953 -0.24794,0.83682 -0.16532,0.22728 -0.43393,0.42357 -0.80583,0.58887 -0.37194,0.1653 -0.88849,0.28927 -1.54967,0.37192 -0.6612,0.0827 -1.50835,0.12397 -2.54145,0.12398 -0.9918,-1e-5 -1.81829,-0.0413 -2.47947,-0.12398 -0.6612,-0.0827 -1.18809,-0.20662 -1.58066,-0.37192 -0.39259,-0.1653 -0.6612,-0.36159 -0.80582,-0.58887 -0.14465,-0.22729 -0.21697,-0.50622 -0.21696,-0.83682 l 0,-55.78801 c -1e-5,-0.28921 0.0723,-0.55782 0.21696,-0.80583 0.14462,-0.24789 0.41323,-0.45451 0.80582,-0.61986 0.39257,-0.16524 0.91946,-0.28922 1.58066,-0.37192 0.66118,-0.0826 1.48767,-0.12392 2.47947,-0.12398 1.0331,6e-5 1.88025,0.0414 2.54145,0.12398 0.66118,0.0827 1.17773,0.20668 1.54967,0.37192 0.3719,0.16535 0.64051,0.37197 0.80583,0.61986 0.16528,0.24801 0.24792,0.51662 0.24794,0.80583 z m 1.17775,-74.63196 c -2e-5,2.39689 -0.45459,4.0292 -1.36371,4.89695 -0.90915,0.86788 -2.58279,1.30179 -5.02092,1.30172 -2.39683,7e-5 -4.03947,-0.42351 -4.92794,-1.27073 -0.88848,-0.84708 -1.33272,-2.4484 -1.33271,-4.80397 -1e-5,-2.39674 0.45456,-4.02905 1.36371,-4.89695 0.90912,-0.86773 2.58276,-1.30163 5.02092,-1.30172 2.3968,9e-5 4.03944,0.42366 4.92794,1.27073 0.88845,0.84723 1.33269,2.44855 1.33271,4.80397 z"
         id="path4044"
         inkscape:connector-curvature="0" />
      <path
         d="m 244.18708,211.15996 c -6e-5,0.3306 -0.0827,0.60953 -0.24795,0.83682 -0.16535,0.22728 -0.43396,0.42357 -0.80582,0.58887 -0.37198,0.1653 -0.88854,0.28927 -1.54967,0.37192 -0.66125,0.0827 -1.48773,0.12397 -2.47947,0.12398 -1.03316,-1e-5 -1.88031,-0.0413 -2.54145,-0.12398 -0.66124,-0.0827 -1.1778,-0.20662 -1.54967,-0.37192 -0.37197,-0.1653 -0.64058,-0.36159 -0.80583,-0.58887 -0.16534,-0.22729 -0.24799,-0.50622 -0.24794,-0.83682 l 0,-32.66698 c -5e-5,-3.18195 -0.248,-5.74406 -0.74384,-7.68635 -0.49594,-1.9422 -1.21912,-3.61584 -2.16954,-5.02092 -0.9505,-1.40498 -2.1799,-2.47942 -3.6882,-3.22331 -1.50839,-0.74379 -3.25434,-1.11571 -5.23788,-1.11576 -2.56215,5e-5 -5.12426,0.90919 -7.68635,2.72742 -2.56214,1.81832 -5.24822,4.48374 -8.05826,7.99628 l 0,38.98962 c -2e-5,0.3306 -0.0827,0.60953 -0.24795,0.83682 -0.16532,0.22728 -0.43393,0.42357 -0.80583,0.58887 -0.37194,0.1653 -0.88849,0.28927 -1.54966,0.37192 -0.66121,0.0827 -1.50836,0.12397 -2.54146,0.12398 -0.9918,-1e-5 -1.81829,-0.0413 -2.47947,-0.12398 -0.6612,-0.0827 -1.18808,-0.20662 -1.58066,-0.37192 -0.39259,-0.1653 -0.6612,-0.36159 -0.80582,-0.58887 -0.14465,-0.22729 -0.21697,-0.50622 -0.21696,-0.83682 l 0,-55.78801 c -1e-5,-0.33054 0.062,-0.60948 0.18596,-0.83682 0.12397,-0.22723 0.37191,-0.43385 0.74384,-0.61987 0.37191,-0.1859 0.84714,-0.30987 1.4257,-0.37192 0.57853,-0.0619 1.34303,-0.0929 2.29351,-0.093 0.90912,6e-5 1.66329,0.0311 2.26251,0.093 0.59919,0.062 1.06409,0.18602 1.3947,0.37192 0.33058,0.18602 0.56819,0.39264 0.71285,0.61987 0.14461,0.22734 0.21693,0.50628 0.21695,0.83682 l 0,7.37641 c 3.14064,-3.51252 6.27096,-6.08497 9.39098,-7.71734 3.11997,-1.63225 6.27095,-2.44841 9.45297,-2.44847 3.71916,6e-5 6.84948,0.63026 9.39098,1.89059 2.5414,1.26045 4.59729,2.94442 6.16768,5.05192 1.57027,2.10759 2.69636,4.57673 3.37827,7.4074 0.6818,2.83077 1.02272,6.2297 1.02278,10.19681 z"
         id="path4046"
         inkscape:connector-curvature="0" />
      <path
         d="m 293.4045,132.43688 c -4e-5,0.78524 -0.0414,1.41544 -0.12397,1.89059 -0.0827,0.47531 -0.17567,0.85756 -0.27894,1.14676 -0.10335,0.28934 -0.23766,0.48563 -0.40292,0.58887 -0.16533,0.10339 -0.37196,0.15504 -0.61986,0.15497 -0.28931,7e-5 -0.6509,-0.0929 -1.08477,-0.27894 -0.43394,-0.18589 -0.96083,-0.39251 -1.58066,-0.61987 -0.6199,-0.22721 -1.35341,-0.43383 -2.20053,-0.61987 -0.84718,-0.18588 -1.82864,-0.27886 -2.94436,-0.27894 -1.52904,8e-5 -2.83076,0.24803 -3.90517,0.74384 -1.07446,0.49597 -1.94227,1.27081 -2.60344,2.3245 -0.66121,1.05385 -1.13644,2.41756 -1.42569,4.09112 -0.28929,1.67371 -0.43393,3.70894 -0.43391,6.10569 l 0,6.0747 12.45933,0 c 0.33056,5e-5 0.6095,0.0724 0.83682,0.21695 0.22724,0.14469 0.43387,0.39264 0.61986,0.74384 0.18593,0.35131 0.33056,0.79555 0.43391,1.33271 0.10327,0.53728 0.15493,1.19847 0.15497,1.98358 -4e-5,1.48773 -0.186,2.56216 -0.55788,3.2233 -0.37196,0.66125 -0.86785,0.99184 -1.48768,0.99179 l -12.45933,0 0,48.90749 c -2e-5,0.3306 -0.0827,0.60953 -0.24794,0.83682 -0.16532,0.22728 -0.44426,0.42357 -0.83682,0.58887 -0.39261,0.1653 -0.91949,0.28927 -1.58066,0.37192 -0.66121,0.0827 -1.4877,0.12397 -2.47947,0.12398 -0.9918,-1e-5 -1.81829,-0.0413 -2.47947,-0.12398 -0.6612,-0.0827 -1.18809,-0.20662 -1.58066,-0.37192 -0.39259,-0.1653 -0.67153,-0.36159 -0.83682,-0.58887 -0.16531,-0.22729 -0.24796,-0.50622 -0.24794,-0.83682 l 0,-48.90749 -7.87231,0 c -0.6612,5e-5 -1.15709,-0.33054 -1.48768,-0.99179 -0.3306,-0.66114 -0.4959,-1.73557 -0.4959,-3.2233 0,-0.78511 0.0413,-1.4463 0.12398,-1.98358 0.0826,-0.53716 0.20662,-0.9814 0.37192,-1.33271 0.16529,-0.3512 0.37191,-0.59915 0.61986,-0.74384 0.24795,-0.14458 0.53722,-0.2169 0.86782,-0.21695 l 7.87231,0 0,-5.76477 c -2e-5,-3.88443 0.36157,-7.22137 1.08476,-10.01084 0.72317,-2.78933 1.82859,-5.0725 3.31629,-6.84953 1.48766,-1.77687 3.35759,-3.08892 5.60979,-3.93616 2.25216,-0.84706 4.90726,-1.27064 7.96529,-1.27072 1.44633,8e-5 2.85136,0.13439 4.2151,0.40291 1.36367,0.2687 2.41744,0.55797 3.16132,0.86781 0.7438,0.31002 1.23969,0.58896 1.48768,0.83682 0.2479,0.24804 0.45453,0.5683 0.61986,0.9608 0.16526,0.39266 0.2789,0.86789 0.34093,1.42569 0.062,0.55796 0.0929,1.22948 0.093,2.01457 z"
         id="path4048"
         inkscape:connector-curvature="0" />
      <path
         d="m 311.75255,211.15996 c -2e-5,0.3306 -0.0827,0.60953 -0.24795,0.83682 -0.16531,0.22728 -0.43392,0.42357 -0.80582,0.58887 -0.37194,0.1653 -0.8885,0.28927 -1.54967,0.37192 -0.66121,0.0827 -1.50836,0.12397 -2.54145,0.12398 -0.9918,-1e-5 -1.81829,-0.0413 -2.47947,-0.12398 -0.6612,-0.0827 -1.18809,-0.20662 -1.58066,-0.37192 -0.39259,-0.1653 -0.6612,-0.36159 -0.80583,-0.58887 -0.14464,-0.22729 -0.21696,-0.50622 -0.21695,-0.83682 l 0,-55.78801 c -10e-6,-0.28921 0.0723,-0.55782 0.21695,-0.80583 0.14463,-0.24789 0.41324,-0.45451 0.80583,-0.61986 0.39257,-0.16524 0.91946,-0.28922 1.58066,-0.37192 0.66118,-0.0826 1.48767,-0.12392 2.47947,-0.12398 1.03309,6e-5 1.88024,0.0414 2.54145,0.12398 0.66117,0.0827 1.17773,0.20668 1.54967,0.37192 0.3719,0.16535 0.64051,0.37197 0.80582,0.61986 0.16528,0.24801 0.24793,0.51662 0.24795,0.80583 z M 312.9303,136.528 c -2e-5,2.39689 -0.45459,4.0292 -1.36371,4.89695 -0.90916,0.86788 -2.5828,1.30179 -5.02092,1.30172 -2.39683,7e-5 -4.03948,-0.42351 -4.92794,-1.27073 -0.88849,-0.84708 -1.33272,-2.4484 -1.33272,-4.80397 0,-2.39674 0.45457,-4.02905 1.36371,-4.89695 0.90913,-0.86773 2.58277,-1.30163 5.02092,-1.30172 2.3968,9e-5 4.03945,0.42366 4.92794,1.27073 0.88846,0.84723 1.3327,2.44855 1.33272,4.80397 z"
         id="path4050"
         inkscape:connector-curvature="0" />
      <path
         d="m 378.82214,211.15996 c -5e-5,0.3306 -0.0827,0.60953 -0.24794,0.83682 -0.16536,0.22728 -0.43397,0.42357 -0.80583,0.58887 -0.37198,0.1653 -0.88853,0.28927 -1.54967,0.37192 -0.66124,0.0827 -1.48773,0.12397 -2.47946,0.12398 -1.03317,-1e-5 -1.88032,-0.0413 -2.54146,-0.12398 -0.66124,-0.0827 -1.17779,-0.20662 -1.54966,-0.37192 -0.37197,-0.1653 -0.64058,-0.36159 -0.80583,-0.58887 -0.16535,-0.22729 -0.24799,-0.50622 -0.24795,-0.83682 l 0,-32.66698 c -4e-5,-3.18195 -0.24799,-5.74406 -0.74384,-7.68635 -0.49594,-1.9422 -1.21911,-3.61584 -2.16953,-5.02092 -0.95051,-1.40498 -2.17991,-2.47942 -3.68821,-3.22331 -1.50838,-0.74379 -3.25434,-1.11571 -5.23787,-1.11576 -2.56215,5e-5 -5.12427,0.90919 -7.68635,2.72742 -2.56214,1.81832 -5.24823,4.48374 -8.05827,7.99628 l 0,38.98962 c -2e-5,0.3306 -0.0827,0.60953 -0.24795,0.83682 -0.16531,0.22728 -0.43392,0.42357 -0.80582,0.58887 -0.37194,0.1653 -0.8885,0.28927 -1.54967,0.37192 -0.66121,0.0827 -1.50836,0.12397 -2.54145,0.12398 -0.9918,-1e-5 -1.81829,-0.0413 -2.47947,-0.12398 -0.6612,-0.0827 -1.18809,-0.20662 -1.58066,-0.37192 -0.39259,-0.1653 -0.6612,-0.36159 -0.80583,-0.58887 -0.14464,-0.22729 -0.21696,-0.50622 -0.21695,-0.83682 l 0,-55.78801 c -10e-6,-0.33054 0.062,-0.60948 0.18596,-0.83682 0.12396,-0.22723 0.37191,-0.43385 0.74384,-0.61987 0.37191,-0.1859 0.84714,-0.30987 1.42569,-0.37192 0.57853,-0.0619 1.34303,-0.0929 2.29351,-0.093 0.90912,6e-5 1.66329,0.0311 2.26251,0.093 0.59919,0.062 1.06409,0.18602 1.3947,0.37192 0.33058,0.18602 0.5682,0.39264 0.71285,0.61987 0.14462,0.22734 0.21694,0.50628 0.21695,0.83682 l 0,7.37641 c 3.14064,-3.51252 6.27096,-6.08497 9.39099,-7.71734 3.11996,-1.63225 6.27095,-2.44841 9.45296,-2.44847 3.71916,6e-5 6.84949,0.63026 9.39099,1.89059 2.5414,1.26045 4.59729,2.94442 6.16767,5.05192 1.57027,2.10759 2.69636,4.57673 3.37827,7.4074 0.6818,2.83077 1.02273,6.2297 1.02278,10.19681 z"
         id="path4052"
         inkscape:connector-curvature="0" />
      <path
         d="m 407.70793,211.15996 c -2e-5,0.3306 -0.0827,0.60953 -0.24794,0.83682 -0.16532,0.22728 -0.43393,0.42357 -0.80583,0.58887 -0.37194,0.1653 -0.88849,0.28927 -1.54967,0.37192 -0.6612,0.0827 -1.50836,0.12397 -2.54145,0.12398 -0.9918,-1e-5 -1.81829,-0.0413 -2.47947,-0.12398 -0.6612,-0.0827 -1.18809,-0.20662 -1.58066,-0.37192 -0.39259,-0.1653 -0.6612,-0.36159 -0.80582,-0.58887 -0.14465,-0.22729 -0.21697,-0.50622 -0.21696,-0.83682 l 0,-55.78801 c -10e-6,-0.28921 0.0723,-0.55782 0.21696,-0.80583 0.14462,-0.24789 0.41323,-0.45451 0.80582,-0.61986 0.39257,-0.16524 0.91946,-0.28922 1.58066,-0.37192 0.66118,-0.0826 1.48767,-0.12392 2.47947,-0.12398 1.03309,6e-5 1.88025,0.0414 2.54145,0.12398 0.66118,0.0827 1.17773,0.20668 1.54967,0.37192 0.3719,0.16535 0.64051,0.37197 0.80583,0.61986 0.16527,0.24801 0.24792,0.51662 0.24794,0.80583 z m 1.17775,-74.63196 c -2e-5,2.39689 -0.45459,4.0292 -1.36371,4.89695 -0.90915,0.86788 -2.58279,1.30179 -5.02092,1.30172 -2.39683,7e-5 -4.03947,-0.42351 -4.92794,-1.27073 -0.88848,-0.84708 -1.33272,-2.4484 -1.33271,-4.80397 -1e-5,-2.39674 0.45456,-4.02905 1.36371,-4.89695 0.90912,-0.86773 2.58276,-1.30163 5.02092,-1.30172 2.3968,9e-5 4.03944,0.42366 4.92794,1.27073 0.88845,0.84723 1.33269,2.44855 1.33271,4.80397 z"
         id="path4054"
         inkscape:connector-curvature="0" />
      <path
         d="m 455.7476,207.06884 c -4e-5,1.19841 -0.0827,2.14887 -0.24794,2.85138 -0.16534,0.70252 -0.41329,1.21908 -0.74384,1.54967 -0.33064,0.3306 -0.82653,0.64053 -1.48768,0.9298 -0.66123,0.28927 -1.4154,0.52689 -2.26252,0.71285 -0.84718,0.18596 -1.74599,0.34092 -2.69642,0.4649 -0.95049,0.12397 -1.90095,0.18596 -2.85139,0.18596 -2.89273,0 -5.3722,-0.38225 -7.4384,-1.14675 -2.06624,-0.76451 -3.76054,-1.92159 -5.0829,-3.47126 -1.3224,-1.54966 -2.28319,-3.51257 -2.88239,-5.88873 -0.59921,-2.37615 -0.89881,-5.17588 -0.8988,-8.3992 l 0,-32.60499 -7.81032,0 c -0.61987,5e-5 -1.11577,-0.33054 -1.48768,-0.99179 -0.37193,-0.66114 -0.55789,-1.73557 -0.55788,-3.2233 -1e-5,-0.78511 0.0516,-1.4463 0.15496,-1.98358 0.10331,-0.53716 0.23762,-0.9814 0.40292,-1.33271 0.16529,-0.3512 0.38224,-0.59915 0.65086,-0.74384 0.2686,-0.14458 0.5682,-0.2169 0.8988,-0.21695 l 7.74834,0 0,-13.26515 c -1e-5,-0.2892 0.0723,-0.55781 0.21695,-0.80583 0.14462,-0.24787 0.41323,-0.46483 0.80583,-0.65086 0.39257,-0.18589 0.91945,-0.32019 1.58066,-0.40291 0.66117,-0.0826 1.48766,-0.1239 2.47947,-0.12398 1.03309,8e-5 1.88024,0.0414 2.54145,0.12398 0.66117,0.0827 1.17773,0.21702 1.54967,0.40291 0.37189,0.18603 0.6405,0.40299 0.80582,0.65086 0.16528,0.24802 0.24793,0.51663 0.24795,0.80583 l 0,13.26515 14.31892,0 c 0.33056,5e-5 0.61983,0.0724 0.86782,0.21695 0.2479,0.14469 0.46486,0.39264 0.65086,0.74384 0.18592,0.35131 0.32022,0.79555 0.40291,1.33271 0.0826,0.53728 0.12393,1.19847 0.12397,1.98358 -4e-5,1.48773 -0.186,2.56216 -0.55788,3.2233 -0.37196,0.66125 -0.86785,0.99184 -1.48768,0.99179 l -14.31892,0 0,31.11731 c -2e-5,3.84319 0.56819,6.74623 1.70463,8.70913 1.1364,1.96292 3.17163,2.94437 6.10569,2.94437 0.95043,0 1.79758,-0.093 2.54145,-0.27894 0.74381,-0.18595 1.405,-0.38225 1.98358,-0.58888 0.57851,-0.20661 1.0744,-0.4029 1.48768,-0.58887 0.41321,-0.18595 0.78513,-0.27893 1.11576,-0.27894 0.20658,10e-6 0.40287,0.0517 0.58887,0.15497 0.18592,0.10332 0.33056,0.29961 0.43391,0.58887 0.10327,0.28928 0.19625,0.68186 0.27894,1.17775 0.0826,0.4959 0.12393,1.11576 0.12397,1.8596 z"
         id="path4056"
         inkscape:connector-curvature="0" />
      <path
         d="m 494.79923,212.70963 -7.43841,20.51759 c -0.24797,0.66117 -0.87817,1.16739 -1.89059,1.51867 -1.01247,0.35123 -2.55181,0.52686 -4.61801,0.52689 -1.07445,-3e-5 -1.94226,-0.0517 -2.60344,-0.15497 -0.66121,-0.10333 -1.16743,-0.27896 -1.51867,-0.52689 -0.35128,-0.24797 -0.54757,-0.57856 -0.58887,-0.99178 -0.0413,-0.41327 0.062,-0.90916 0.30993,-1.48768 l 7.68635,-19.40183 c -0.37195,-0.1653 -0.7232,-0.43391 -1.05378,-0.80583 -0.33061,-0.37192 -0.5579,-0.7645 -0.68185,-1.17775 l -19.89772,-53.30854 c -0.3306,-0.86776 -0.4959,-1.54961 -0.4959,-2.04556 0,-0.49584 0.1653,-0.88842 0.4959,-1.17775 0.33059,-0.28921 0.86781,-0.4855 1.61165,-0.58887 0.74384,-0.10325 1.73562,-0.15491 2.97536,-0.15497 1.23973,6e-5 2.21085,0.0311 2.91337,0.093 0.70251,0.062 1.26039,0.17569 1.67365,0.34093 0.41323,0.16535 0.71283,0.40297 0.8988,0.71285 0.18595,0.30999 0.38224,0.73356 0.58888,1.27072 l 15.93057,44.75438 0.18596,0 15.3727,-45.00232 c 0.2479,-0.78511 0.5475,-1.29134 0.8988,-1.51868 0.35122,-0.22722 0.8781,-0.39252 1.58066,-0.49589 0.70247,-0.10325 1.71492,-0.15491 3.03735,-0.15497 1.15703,6e-5 2.1075,0.0517 2.85139,0.15497 0.74379,0.10337 1.29133,0.29966 1.64265,0.58887 0.3512,0.28933 0.52683,0.68191 0.52688,1.17775 -5e-5,0.49595 -0.12403,1.11582 -0.37192,1.8596 z"
         id="path4058"
         inkscape:connector-curvature="0" />
    </g>
    <g
       style="font-size:25.92573357px;font-style:normal;font-variant:normal;font-weight:normal;font-stretch:normal;text-align:start;line-height:125%;letter-spacing:0px;word-spacing:0px;writing-mode:lr-tb;text-anchor:start;fill:#808080;fill-opacity:1;stroke:none;font-family:Calibri;-inkscape-font-specification:Calibri"
       id="text3053-1-9">
      <path
         d="m 173.42977,241.68031 c -1e-5,0.58232 -0.10761,1.10134 -0.3228,1.55706 -0.21521,0.45573 -0.52114,0.83972 -0.91778,1.15197 -0.39666,0.31226 -0.86926,0.54856 -1.41782,0.70891 -0.54856,0.16035 -1.15198,0.24052 -1.81024,0.24052 -0.40509,0 -0.7912,-0.0316 -1.1583,-0.0949 -0.36712,-0.0633 -0.69625,-0.14347 -0.98741,-0.24052 -0.29116,-0.097 -0.53801,-0.19833 -0.74055,-0.30382 -0.20255,-0.10549 -0.35024,-0.20043 -0.44307,-0.28483 -0.0928,-0.0844 -0.16035,-0.20254 -0.20255,-0.35445 -0.0422,-0.15191 -0.0633,-0.35867 -0.0633,-0.62029 0,-0.16035 0.008,-0.29538 0.0253,-0.40509 0.0169,-0.10971 0.038,-0.19833 0.0633,-0.26584 0.0253,-0.0675 0.0612,-0.11604 0.1076,-0.14558 0.0464,-0.0295 0.0992,-0.0443 0.15824,-0.0443 0.0928,0 0.22997,0.057 0.41142,0.1709 0.18145,0.11393 0.40509,0.23841 0.67093,0.37344 0.26584,0.13503 0.5802,0.25951 0.9431,0.37344 0.36289,0.11393 0.78064,0.1709 1.25325,0.1709 0.35444,0 0.67514,-0.038 0.96208,-0.11393 0.28694,-0.076 0.5359,-0.18778 0.74689,-0.33547 0.21098,-0.14768 0.37343,-0.33546 0.48737,-0.56333 0.11393,-0.22786 0.17089,-0.49791 0.1709,-0.81017 -1e-5,-0.3207 -0.0823,-0.59076 -0.24685,-0.81018 -0.16458,-0.21942 -0.38189,-0.41353 -0.65194,-0.58232 -0.27007,-0.16878 -0.57389,-0.31858 -0.91146,-0.4494 -0.33757,-0.1308 -0.6857,-0.26794 -1.04437,-0.41142 -0.35867,-0.14346 -0.70891,-0.30592 -1.0507,-0.48737 -0.3418,-0.18144 -0.64772,-0.40297 -0.91778,-0.6646 -0.27006,-0.26161 -0.48737,-0.57387 -0.65194,-0.93677 -0.16457,-0.36288 -0.24685,-0.79751 -0.24685,-1.30388 0,-0.44728 0.0865,-0.87558 0.25951,-1.28489 0.173,-0.4093 0.43251,-0.76798 0.77853,-1.07602 0.34601,-0.30803 0.77853,-0.55488 1.29755,-0.74056 0.51902,-0.18565 1.12454,-0.27848 1.81658,-0.2785 0.30381,2e-5 0.60762,0.0253 0.91145,0.076 0.30381,0.0507 0.57809,0.11394 0.82284,0.18988 0.24473,0.076 0.4536,0.15825 0.62662,0.24685 0.173,0.0886 0.30381,0.16669 0.39243,0.2342 0.0886,0.0675 0.14768,0.1266 0.17723,0.17722 0.0295,0.0507 0.0506,0.10762 0.0633,0.1709 0.0127,0.0633 0.0253,0.14137 0.038,0.23419 0.0126,0.0928 0.019,0.20678 0.019,0.3418 -1e-5,0.14348 -0.006,0.26796 -0.019,0.37344 -0.0127,0.1055 -0.0338,0.19201 -0.0633,0.25951 -0.0295,0.0675 -0.0654,0.11605 -0.1076,0.14558 -0.0422,0.0296 -0.0886,0.0443 -0.13925,0.0443 -0.076,1e-5 -0.18567,-0.0464 -0.32913,-0.13925 -0.14348,-0.0928 -0.32915,-0.19199 -0.557,-0.29749 -0.22787,-0.10548 -0.49582,-0.20465 -0.80385,-0.29749 -0.30804,-0.0928 -0.66039,-0.13924 -1.05703,-0.13925 -0.35446,1e-5 -0.66672,0.0401 -0.93677,0.12026 -0.27007,0.0802 -0.4916,0.19412 -0.6646,0.3418 -0.17301,0.1477 -0.30382,0.32281 -0.39243,0.52535 -0.0886,0.20255 -0.13293,0.42198 -0.13292,0.65827 -1e-5,0.32914 0.0844,0.60553 0.25318,0.82917 0.16878,0.22365 0.38821,0.41986 0.65827,0.58864 0.27005,0.1688 0.57809,0.3207 0.92411,0.45573 0.34601,0.13503 0.69835,0.27428 1.05703,0.41775 0.35867,0.14347 0.71312,0.30382 1.06336,0.48104 0.35023,0.17723 0.66037,0.39244 0.93044,0.64561 0.27005,0.25319 0.48737,0.557 0.65194,0.91145 0.16456,0.35446 0.24684,0.77643 0.24685,1.26591 z"
         id="path3997"
         inkscape:connector-curvature="0" />
      <path
         d="m 184.59506,243.04749 c -2e-5,0.14347 -0.004,0.26795 -0.0127,0.37344 -0.008,0.10549 -0.0232,0.1941 -0.0443,0.26584 -0.0211,0.0717 -0.0464,0.13503 -0.076,0.18988 -0.0296,0.0549 -0.0971,0.13503 -0.20255,0.24052 -0.1055,0.1055 -0.28484,0.23631 -0.53801,0.39244 -0.25319,0.15612 -0.53802,0.29537 -0.85449,0.41774 -0.31648,0.12238 -0.66038,0.22154 -1.03171,0.29749 -0.37134,0.076 -0.75533,0.11393 -1.15197,0.11393 -0.81863,0 -1.54441,-0.13503 -2.17736,-0.40509 -0.63295,-0.27006 -1.16252,-0.6646 -1.58871,-1.18362 -0.42619,-0.51902 -0.7511,-1.15619 -0.97475,-1.91151 -0.22364,-0.75532 -0.33546,-1.62669 -0.33546,-2.6141 0,-1.12243 0.13714,-2.08662 0.41142,-2.89259 0.27428,-0.80595 0.64983,-1.46633 1.12665,-1.98114 0.47683,-0.51479 1.03804,-0.89667 1.68366,-1.14565 0.6456,-0.24894 1.34396,-0.37343 2.09507,-0.37344 0.36289,1e-5 0.71523,0.0338 1.05703,0.10127 0.34179,0.0675 0.65615,0.15614 0.9431,0.26584 0.28693,0.10973 0.54222,0.23632 0.76587,0.37978 0.22364,0.14348 0.38609,0.26585 0.48738,0.36711 0.10126,0.10128 0.17088,0.18146 0.20887,0.24052 0.038,0.0591 0.0696,0.12871 0.0949,0.20887 0.0253,0.0802 0.0422,0.17091 0.0506,0.27217 0.008,0.10129 0.0127,0.22788 0.0127,0.37978 -1e-5,0.32914 -0.038,0.55911 -0.11393,0.68991 -0.076,0.13082 -0.1688,0.19623 -0.2785,0.19622 -0.1266,1e-5 -0.27218,-0.0696 -0.43674,-0.20887 -0.16458,-0.13924 -0.37345,-0.29326 -0.62662,-0.46206 -0.25319,-0.16878 -0.55912,-0.3228 -0.91778,-0.46206 -0.35868,-0.13923 -0.78276,-0.20886 -1.27224,-0.20887 -1.00429,1e-5 -1.77438,0.38611 -2.31027,1.1583 -0.53591,0.77221 -0.80386,1.89254 -0.80385,3.36098 -1e-5,0.73423 0.0696,1.37773 0.20887,1.93051 0.13925,0.55278 0.3439,1.01483 0.61396,1.38616 0.27006,0.37134 0.6013,0.64773 0.99374,0.82917 0.39243,0.18145 0.84182,0.27217 1.34819,0.27217 0.48104,0 0.903,-0.0759 1.2659,-0.22786 0.36289,-0.15191 0.67725,-0.31859 0.9431,-0.50004 0.26583,-0.18144 0.48948,-0.34601 0.67093,-0.4937 0.18144,-0.14769 0.3228,-0.22153 0.42408,-0.22153 0.0591,0 0.1097,0.0169 0.15191,0.0506 0.0422,0.0338 0.078,0.0907 0.1076,0.1709 0.0295,0.0802 0.0506,0.18145 0.0633,0.30382 0.0127,0.12237 0.019,0.26795 0.019,0.43674 z"
         id="path3999"
         inkscape:connector-curvature="0" />
      <path
         d="m 189.48145,244.78178 c 0,0.0675 -0.0169,0.12448 -0.0506,0.17089 -0.0338,0.0464 -0.0886,0.0865 -0.16456,0.12026 -0.076,0.0338 -0.18145,0.0591 -0.31648,0.076 -0.13503,0.0169 -0.30804,0.0253 -0.51902,0.0253 -0.20255,0 -0.37134,-0.008 -0.50636,-0.0253 -0.13504,-0.0169 -0.24264,-0.0422 -0.32281,-0.076 -0.0802,-0.0338 -0.13503,-0.0738 -0.16457,-0.12026 -0.0295,-0.0464 -0.0443,-0.10338 -0.0443,-0.17089 l 0,-11.39315 c -1e-5,-0.0591 0.0148,-0.11392 0.0443,-0.16457 0.0295,-0.0506 0.0844,-0.0928 0.16457,-0.12659 0.0802,-0.0337 0.18777,-0.0591 0.32281,-0.0759 0.13502,-0.0169 0.30381,-0.0253 0.50636,-0.0253 0.21098,1e-5 0.38399,0.008 0.51902,0.0253 0.13503,0.0169 0.24052,0.0422 0.31648,0.0759 0.0759,0.0338 0.1308,0.076 0.16456,0.12659 0.0338,0.0506 0.0506,0.10551 0.0506,0.16457 z m 0.24052,-15.2415 c 0,0.4895 -0.0928,0.82285 -0.2785,1.00006 -0.18567,0.17725 -0.52746,0.26586 -1.02538,0.26584 -0.48949,2e-5 -0.82495,-0.0865 -1.0064,-0.25951 -0.18144,-0.17299 -0.27217,-0.50001 -0.27216,-0.98107 -1e-5,-0.48947 0.0928,-0.82282 0.27849,-1.00007 0.18567,-0.17721 0.52746,-0.26582 1.02539,-0.26584 0.48948,2e-5 0.82494,0.0865 1.00639,0.25951 0.18144,0.17303 0.27217,0.50005 0.27217,0.98108 z"
         id="path4001"
         inkscape:connector-curvature="0" />
      <path
         d="m 203.08993,238.5915 c -1e-5,0.32914 -0.0823,0.56333 -0.24685,0.70258 -0.16458,0.13925 -0.35236,0.20888 -0.56333,0.20887 l -7.46884,0 c 0,0.63296 0.0633,1.20262 0.18988,1.70897 0.12659,0.50637 0.33758,0.941 0.63296,1.30389 0.29537,0.36289 0.67936,0.64139 1.15197,0.83549 0.4726,0.19411 1.0507,0.29116 1.73429,0.29116 0.54011,0 1.02116,-0.0443 1.44313,-0.13292 0.42196,-0.0886 0.78696,-0.18777 1.09501,-0.29749 0.30803,-0.10971 0.56121,-0.20887 0.75954,-0.29748 0.19832,-0.0886 0.34812,-0.13292 0.4494,-0.13292 0.0591,0 0.11181,0.0148 0.15824,0.0443 0.0464,0.0295 0.0823,0.0738 0.1076,0.13292 0.0253,0.0591 0.0443,0.14136 0.057,0.24685 0.0127,0.1055 0.019,0.2342 0.019,0.3861 -10e-6,0.10972 -0.004,0.20466 -0.0127,0.28483 -0.008,0.0802 -0.019,0.15191 -0.0316,0.21521 -0.0127,0.0633 -0.0338,0.12026 -0.0633,0.17089 -0.0296,0.0506 -0.0675,0.0992 -0.11393,0.14558 -0.0464,0.0464 -0.18357,0.12237 -0.41142,0.22787 -0.22787,0.10549 -0.52325,0.20887 -0.88613,0.31014 -0.3629,0.10128 -0.78276,0.192 -1.25958,0.27217 -0.47683,0.0802 -0.9853,0.12026 -1.52541,0.12026 -0.93678,0 -1.75751,-0.13081 -2.46219,-0.39243 -0.70469,-0.26162 -1.29755,-0.64983 -1.7786,-1.16463 -0.48104,-0.5148 -0.84393,-1.16041 -1.08867,-1.93683 -0.24475,-0.77642 -0.36712,-1.67943 -0.36712,-2.70904 0,-0.97896 0.12659,-1.85876 0.37978,-2.63941 0.25317,-0.78063 0.61818,-1.44312 1.095,-1.98747 0.47682,-0.54433 1.05281,-0.96208 1.72796,-1.25325 0.67515,-0.29115 1.43047,-0.43672 2.26597,-0.43674 0.89457,2e-5 1.65622,0.14348 2.28496,0.43041 0.62873,0.28695 1.14564,0.67305 1.55074,1.1583 0.40507,0.48528 0.70256,1.05493 0.89246,1.70898 0.18987,0.65405 0.28482,1.35241 0.28483,2.09507 z m -2.10141,-0.62029 c 0.0253,-1.09711 -0.21732,-1.95793 -0.72789,-2.58245 -0.51059,-0.6245 -1.26802,-0.93676 -2.2723,-0.93677 -0.51481,1e-5 -0.96631,0.0971 -1.35452,0.29116 -0.38821,0.19411 -0.71313,0.45151 -0.97474,0.7722 -0.26163,0.32071 -0.46417,0.69415 -0.60764,1.12033 -0.14347,0.42619 -0.22365,0.87137 -0.24052,1.33553 z"
         id="path4003"
         inkscape:connector-curvature="0" />
      <path
         d="m 216.09077,244.78178 c -1e-5,0.0675 -0.0169,0.12448 -0.0506,0.17089 -0.0338,0.0464 -0.0886,0.0865 -0.16457,0.12026 -0.076,0.0338 -0.18146,0.0591 -0.31648,0.076 -0.13504,0.0169 -0.30383,0.0253 -0.50636,0.0253 -0.21099,0 -0.384,-0.008 -0.51902,-0.0253 -0.13504,-0.0169 -0.24053,-0.0422 -0.31648,-0.076 -0.076,-0.0338 -0.13082,-0.0738 -0.16456,-0.12026 -0.0338,-0.0464 -0.0507,-0.10338 -0.0506,-0.17089 l 0,-6.67132 c -1e-5,-0.64983 -0.0506,-1.17307 -0.15191,-1.56973 -0.10128,-0.39664 -0.24897,-0.73843 -0.44307,-1.02538 -0.19411,-0.28693 -0.44518,-0.50635 -0.75321,-0.65827 -0.30804,-0.1519 -0.66461,-0.22785 -1.06969,-0.22786 -0.52325,1e-5 -1.04649,0.18567 -1.56972,0.557 -0.52325,0.37134 -1.07181,0.91568 -1.64568,1.63301 l 0,7.96255 c 0,0.0675 -0.0169,0.12448 -0.0506,0.17089 -0.0338,0.0464 -0.0886,0.0865 -0.16457,0.12026 -0.076,0.0338 -0.18145,0.0591 -0.31648,0.076 -0.13503,0.0169 -0.30804,0.0253 -0.51902,0.0253 -0.20255,0 -0.37133,-0.008 -0.50636,-0.0253 -0.13503,-0.0169 -0.24264,-0.0422 -0.32281,-0.076 -0.0802,-0.0338 -0.13503,-0.0738 -0.16456,-0.12026 -0.0295,-0.0464 -0.0443,-0.10338 -0.0443,-0.17089 l 0,-11.39315 c 0,-0.0675 0.0127,-0.12447 0.038,-0.1709 0.0253,-0.0464 0.0759,-0.0886 0.1519,-0.12659 0.076,-0.038 0.17301,-0.0633 0.29116,-0.076 0.11815,-0.0126 0.27428,-0.019 0.46839,-0.019 0.18566,1e-5 0.33968,0.006 0.46205,0.019 0.12237,0.0127 0.21731,0.038 0.28483,0.076 0.0675,0.038 0.11604,0.0802 0.14558,0.12659 0.0295,0.0464 0.0443,0.1034 0.0443,0.1709 l 0,1.50643 c 0.64138,-0.71734 1.28067,-1.24269 1.91784,-1.57605 0.63717,-0.33335 1.28067,-0.50002 1.93051,-0.50004 0.75953,2e-5 1.39881,0.12872 1.91784,0.3861 0.51901,0.25742 0.93887,0.60132 1.25958,1.03172 0.32068,0.43041 0.55066,0.93467 0.68992,1.51275 0.13924,0.57811 0.20886,1.27225 0.20887,2.08242 z"
         id="path4005"
         inkscape:connector-curvature="0" />
      <path
         d="m 225.82558,243.94628 c -1e-5,0.24474 -0.0169,0.43885 -0.0506,0.58231 -0.0338,0.14347 -0.0844,0.24897 -0.15191,0.31648 -0.0675,0.0675 -0.16879,0.13081 -0.30381,0.18989 -0.13504,0.0591 -0.28906,0.1076 -0.46206,0.14558 -0.17301,0.038 -0.35657,0.0696 -0.55067,0.0949 -0.19411,0.0253 -0.38821,0.038 -0.58231,0.038 -0.59076,-1e-5 -1.09713,-0.0781 -1.51909,-0.2342 -0.42197,-0.15613 -0.76798,-0.39243 -1.03804,-0.7089 -0.27006,-0.31648 -0.46628,-0.71735 -0.58865,-1.20261 -0.12237,-0.48526 -0.18356,-1.05703 -0.18355,-1.7153 l 0,-6.65867 -1.59504,0 c -0.12659,2e-5 -0.22787,-0.0675 -0.30382,-0.20254 -0.076,-0.13502 -0.11393,-0.35444 -0.11393,-0.65827 0,-0.16034 0.0105,-0.29537 0.0317,-0.40509 0.0211,-0.1097 0.0485,-0.20042 0.0823,-0.27217 0.0338,-0.0717 0.0781,-0.12236 0.13292,-0.15191 0.0549,-0.0295 0.11604,-0.0443 0.18356,-0.0443 l 1.58238,0 0,-2.70904 c -1e-5,-0.0591 0.0148,-0.11392 0.0443,-0.16457 0.0295,-0.0506 0.0844,-0.0949 0.16457,-0.13292 0.0802,-0.038 0.18777,-0.0654 0.32281,-0.0823 0.13502,-0.0169 0.30381,-0.0253 0.50636,-0.0253 0.21098,1e-5 0.38399,0.008 0.51902,0.0253 0.13503,0.0169 0.24052,0.0443 0.31648,0.0823 0.0759,0.038 0.1308,0.0823 0.16456,0.13292 0.0338,0.0506 0.0506,0.10551 0.0506,0.16457 l 0,2.70904 2.92424,0 c 0.0675,1e-5 0.12658,0.0148 0.17723,0.0443 0.0506,0.0296 0.0949,0.0802 0.13292,0.15191 0.038,0.0718 0.0654,0.16247 0.0823,0.27217 0.0169,0.10972 0.0253,0.24475 0.0253,0.40509 -1e-5,0.30383 -0.038,0.52325 -0.11393,0.65827 -0.076,0.13504 -0.17724,0.20256 -0.30382,0.20254 l -2.92424,0 0,6.35485 c 0,0.78486 0.11604,1.37773 0.34812,1.77859 0.23208,0.40088 0.64772,0.60131 1.24692,0.60131 0.1941,0 0.36711,-0.019 0.51902,-0.057 0.1519,-0.038 0.28693,-0.0781 0.40509,-0.12026 0.11815,-0.0422 0.21942,-0.0823 0.30382,-0.12026 0.0844,-0.038 0.16034,-0.057 0.22786,-0.057 0.0422,0 0.0823,0.0105 0.12026,0.0316 0.038,0.0211 0.0675,0.0612 0.0886,0.12026 0.0211,0.0591 0.0401,0.13926 0.057,0.24053 0.0169,0.10127 0.0253,0.22786 0.0253,0.37977 z"
         id="path4007"
         inkscape:connector-curvature="0" />
      <path
         d="m 230.69931,244.78178 c 0,0.0675 -0.0169,0.12448 -0.0506,0.17089 -0.0338,0.0464 -0.0886,0.0865 -0.16457,0.12026 -0.076,0.0338 -0.18145,0.0591 -0.31648,0.076 -0.13503,0.0169 -0.30804,0.0253 -0.51902,0.0253 -0.20254,0 -0.37133,-0.008 -0.50636,-0.0253 -0.13503,-0.0169 -0.24263,-0.0422 -0.3228,-0.076 -0.0802,-0.0338 -0.13504,-0.0738 -0.16457,-0.12026 -0.0295,-0.0464 -0.0443,-0.10338 -0.0443,-0.17089 l 0,-11.39315 c 0,-0.0591 0.0148,-0.11392 0.0443,-0.16457 0.0295,-0.0506 0.0844,-0.0928 0.16457,-0.12659 0.0802,-0.0337 0.18777,-0.0591 0.3228,-0.0759 0.13503,-0.0169 0.30382,-0.0253 0.50636,-0.0253 0.21098,1e-5 0.38399,0.008 0.51902,0.0253 0.13503,0.0169 0.24052,0.0422 0.31648,0.0759 0.076,0.0338 0.13081,0.076 0.16457,0.12659 0.0337,0.0506 0.0506,0.10551 0.0506,0.16457 z m 0.24053,-15.2415 c -1e-5,0.4895 -0.0928,0.82285 -0.2785,1.00006 -0.18567,0.17725 -0.52747,0.26586 -1.02539,0.26584 -0.48948,2e-5 -0.82495,-0.0865 -1.00639,-0.25951 -0.18145,-0.17299 -0.27217,-0.50001 -0.27217,-0.98107 0,-0.48947 0.0928,-0.82282 0.2785,-1.00007 0.18566,-0.17721 0.52746,-0.26582 1.02538,-0.26584 0.48948,2e-5 0.82495,0.0865 1.0064,0.25951 0.18144,0.17303 0.27216,0.50005 0.27217,0.98108 z"
         id="path4009"
         inkscape:connector-curvature="0" />
      <path
         d="m 240.82655,228.70478 c -1e-5,0.16037 -0.008,0.28907 -0.0253,0.3861 -0.0169,0.0971 -0.0359,0.17514 -0.057,0.2342 -0.0211,0.0591 -0.0485,0.0992 -0.0823,0.12026 -0.0338,0.0211 -0.076,0.0317 -0.12659,0.0316 -0.0591,2e-5 -0.13293,-0.019 -0.22153,-0.057 -0.0886,-0.038 -0.19622,-0.0802 -0.32281,-0.12659 -0.1266,-0.0464 -0.27639,-0.0886 -0.44939,-0.12659 -0.17302,-0.038 -0.37345,-0.057 -0.60131,-0.057 -0.31226,2e-5 -0.5781,0.0506 -0.79752,0.15191 -0.21943,0.10129 -0.39665,0.25953 -0.53168,0.47471 -0.13503,0.21522 -0.23209,0.49372 -0.29116,0.8355 -0.0591,0.34181 -0.0886,0.75745 -0.0886,1.24692 l 0,1.24059 2.54447,0 c 0.0675,1e-5 0.12447,0.0148 0.1709,0.0443 0.0464,0.0296 0.0886,0.0802 0.12659,0.15191 0.038,0.0718 0.0675,0.16247 0.0886,0.27217 0.0211,0.10972 0.0316,0.24475 0.0317,0.40509 -1e-5,0.30383 -0.038,0.52325 -0.11393,0.65827 -0.076,0.13504 -0.17724,0.20256 -0.30382,0.20254 l -2.54447,0 0,9.988 c 0,0.0675 -0.0169,0.12448 -0.0506,0.17089 -0.0338,0.0464 -0.0907,0.0865 -0.17089,0.12026 -0.0802,0.0338 -0.18778,0.0591 -0.32281,0.076 -0.13503,0.0169 -0.30382,0.0253 -0.50636,0.0253 -0.20255,0 -0.37134,-0.008 -0.50636,-0.0253 -0.13504,-0.0169 -0.24264,-0.0422 -0.32281,-0.076 -0.0802,-0.0338 -0.13714,-0.0738 -0.1709,-0.12026 -0.0338,-0.0464 -0.0506,-0.10338 -0.0506,-0.17089 l 0,-9.988 -1.6077,0 c -0.13503,2e-5 -0.2363,-0.0675 -0.30382,-0.20254 -0.0675,-0.13502 -0.10127,-0.35444 -0.10127,-0.65827 0,-0.16034 0.008,-0.29537 0.0253,-0.40509 0.0169,-0.1097 0.0422,-0.20042 0.076,-0.27217 0.0338,-0.0717 0.076,-0.12236 0.12659,-0.15191 0.0506,-0.0295 0.10971,-0.0443 0.17723,-0.0443 l 1.6077,0 0,-1.1773 c -1e-5,-0.79328 0.0738,-1.47476 0.22153,-2.04443 0.14769,-0.56964 0.37344,-1.03592 0.67726,-1.39883 0.30381,-0.36287 0.68569,-0.63082 1.14564,-0.80385 0.45994,-0.17299 1.00217,-0.25949 1.62669,-0.25951 0.29537,2e-5 0.58231,0.0274 0.86082,0.0823 0.27849,0.0549 0.49369,0.11394 0.64561,0.17722 0.1519,0.0633 0.25317,0.12028 0.30382,0.1709 0.0506,0.0506 0.0928,0.11606 0.12659,0.19621 0.0337,0.0802 0.057,0.17725 0.0696,0.29116 0.0127,0.11395 0.019,0.25109 0.019,0.41142 z"
         id="path4011"
         inkscape:connector-curvature="0" />
      <path
         d="m 244.57364,244.78178 c -1e-5,0.0675 -0.0169,0.12448 -0.0506,0.17089 -0.0338,0.0464 -0.0886,0.0865 -0.16457,0.12026 -0.076,0.0338 -0.18145,0.0591 -0.31647,0.076 -0.13504,0.0169 -0.30804,0.0253 -0.51903,0.0253 -0.20254,0 -0.37133,-0.008 -0.50636,-0.0253 -0.13503,-0.0169 -0.24263,-0.0422 -0.3228,-0.076 -0.0802,-0.0338 -0.13504,-0.0738 -0.16457,-0.12026 -0.0295,-0.0464 -0.0443,-0.10338 -0.0443,-0.17089 l 0,-11.39315 c 0,-0.0591 0.0148,-0.11392 0.0443,-0.16457 0.0295,-0.0506 0.0844,-0.0928 0.16457,-0.12659 0.0802,-0.0337 0.18777,-0.0591 0.3228,-0.0759 0.13503,-0.0169 0.30382,-0.0253 0.50636,-0.0253 0.21099,1e-5 0.38399,0.008 0.51903,0.0253 0.13502,0.0169 0.24051,0.0422 0.31647,0.0759 0.076,0.0338 0.13081,0.076 0.16457,0.12659 0.0337,0.0506 0.0506,0.10551 0.0506,0.16457 z m 0.24052,-15.2415 c -10e-6,0.4895 -0.0928,0.82285 -0.2785,1.00006 -0.18567,0.17725 -0.52747,0.26586 -1.02538,0.26584 -0.48949,2e-5 -0.82496,-0.0865 -1.0064,-0.25951 -0.18145,-0.17299 -0.27217,-0.50001 -0.27217,-0.98107 0,-0.48947 0.0928,-0.82282 0.2785,-1.00007 0.18566,-0.17721 0.52746,-0.26582 1.02538,-0.26584 0.48948,2e-5 0.82495,0.0865 1.0064,0.25951 0.18144,0.17303 0.27216,0.50005 0.27217,0.98108 z"
         id="path4013"
         inkscape:connector-curvature="0" />
      <path
         d="m 256.65036,243.04749 c -10e-6,0.14347 -0.004,0.26795 -0.0126,0.37344 -0.008,0.10549 -0.0232,0.1941 -0.0443,0.26584 -0.0211,0.0717 -0.0464,0.13503 -0.076,0.18988 -0.0295,0.0549 -0.0971,0.13503 -0.20254,0.24052 -0.1055,0.1055 -0.28484,0.23631 -0.53801,0.39244 -0.25319,0.15612 -0.53802,0.29537 -0.85449,0.41774 -0.31648,0.12238 -0.66038,0.22154 -1.03171,0.29749 -0.37134,0.076 -0.75533,0.11393 -1.15197,0.11393 -0.81863,0 -1.54441,-0.13503 -2.17736,-0.40509 -0.63295,-0.27006 -1.16252,-0.6646 -1.58871,-1.18362 -0.42619,-0.51902 -0.7511,-1.15619 -0.97475,-1.91151 -0.22364,-0.75532 -0.33546,-1.62669 -0.33546,-2.6141 0,-1.12243 0.13714,-2.08662 0.41142,-2.89259 0.27428,-0.80595 0.64983,-1.46633 1.12665,-1.98114 0.47682,-0.51479 1.03804,-0.89667 1.68366,-1.14565 0.6456,-0.24894 1.34396,-0.37343 2.09507,-0.37344 0.36289,1e-5 0.71523,0.0338 1.05703,0.10127 0.34179,0.0675 0.65615,0.15614 0.9431,0.26584 0.28693,0.10973 0.54222,0.23632 0.76587,0.37978 0.22364,0.14348 0.38609,0.26585 0.48738,0.36711 0.10126,0.10128 0.17088,0.18146 0.20887,0.24052 0.038,0.0591 0.0696,0.12871 0.0949,0.20887 0.0253,0.0802 0.0422,0.17091 0.0506,0.27217 0.008,0.10129 0.0127,0.22788 0.0127,0.37978 -1e-5,0.32914 -0.038,0.55911 -0.11393,0.68991 -0.076,0.13082 -0.1688,0.19623 -0.2785,0.19622 -0.1266,1e-5 -0.27218,-0.0696 -0.43674,-0.20887 -0.16458,-0.13924 -0.37345,-0.29326 -0.62662,-0.46206 -0.25319,-0.16878 -0.55912,-0.3228 -0.91778,-0.46206 -0.35868,-0.13923 -0.78276,-0.20886 -1.27224,-0.20887 -1.00429,1e-5 -1.77438,0.38611 -2.31027,1.1583 -0.53591,0.77221 -0.80386,1.89254 -0.80385,3.36098 -1e-5,0.73423 0.0696,1.37773 0.20887,1.93051 0.13925,0.55278 0.3439,1.01483 0.61396,1.38616 0.27006,0.37134 0.6013,0.64773 0.99374,0.82917 0.39242,0.18145 0.84182,0.27217 1.34819,0.27217 0.48104,0 0.903,-0.0759 1.2659,-0.22786 0.36289,-0.15191 0.67725,-0.31859 0.9431,-0.50004 0.26583,-0.18144 0.48948,-0.34601 0.67093,-0.4937 0.18144,-0.14769 0.3228,-0.22153 0.42408,-0.22153 0.0591,0 0.1097,0.0169 0.15191,0.0506 0.0422,0.0338 0.078,0.0907 0.1076,0.1709 0.0295,0.0802 0.0506,0.18145 0.0633,0.30382 0.0126,0.12237 0.019,0.26795 0.019,0.43674 z"
         id="path4015"
         inkscape:connector-curvature="0" />
      <path
         d="m 275.80351,238.90798 c -2e-5,0.99585 -0.10762,1.89042 -0.32281,2.68371 -0.21521,0.79331 -0.53169,1.46635 -0.94943,2.01912 -0.41776,0.55278 -0.93467,0.97897 -1.55073,1.27857 -0.61608,0.29959 -1.32077,0.44939 -2.11406,0.44939 -0.33758,0 -0.64984,-0.0337 -0.93677,-0.10127 -0.28695,-0.0675 -0.56756,-0.17301 -0.84183,-0.31648 -0.27428,-0.14346 -0.54645,-0.32491 -0.81651,-0.54433 -0.27006,-0.21943 -0.557,-0.47683 -0.86081,-0.77221 l 0,5.69658 c -10e-6,0.0675 -0.0169,0.12658 -0.0506,0.17722 -0.0338,0.0506 -0.0886,0.0928 -0.16457,0.12659 -0.076,0.0338 -0.18145,0.0591 -0.31647,0.076 -0.13504,0.0169 -0.30804,0.0253 -0.51902,0.0253 -0.20255,-10e-6 -0.37134,-0.008 -0.50637,-0.0253 -0.13503,-0.0169 -0.24263,-0.0422 -0.3228,-0.076 -0.0802,-0.0338 -0.13503,-0.076 -0.16457,-0.12659 -0.0295,-0.0506 -0.0443,-0.10971 -0.0443,-0.17722 l 0,-15.91243 c 0,-0.0759 0.0127,-0.13713 0.038,-0.18356 0.0253,-0.0464 0.076,-0.0865 0.15191,-0.12026 0.0759,-0.0337 0.173,-0.057 0.29116,-0.0696 0.11815,-0.0126 0.26162,-0.019 0.43041,-0.019 0.17722,1e-5 0.3228,0.006 0.43673,0.019 0.11393,0.0127 0.20887,0.0359 0.28483,0.0696 0.0759,0.0338 0.1287,0.0739 0.15824,0.12026 0.0295,0.0464 0.0443,0.10762 0.0443,0.18356 l 0,1.53175 c 0.34601,-0.35445 0.67936,-0.66248 1.00006,-0.92412 0.32069,-0.2616 0.6435,-0.47892 0.96842,-0.65194 0.32491,-0.17299 0.65826,-0.3038 1.00006,-0.39243 0.34179,-0.0886 0.70257,-0.1329 1.08235,-0.13292 0.82705,2e-5 1.53174,0.16036 2.11406,0.48105 0.58231,0.3207 1.05702,0.75955 1.42415,1.31654 0.3671,0.55701 0.63505,1.20473 0.80385,1.94316 0.16877,0.73845 0.25316,1.52121 0.25318,2.34826 z m -2.20268,0.24052 c -10e-6,-0.58231 -0.0443,-1.14564 -0.13292,-1.68999 -0.0886,-0.54433 -0.24053,-1.02748 -0.45572,-1.44946 -0.21522,-0.42196 -0.50426,-0.75953 -0.86715,-1.01272 -0.3629,-0.25317 -0.81441,-0.37976 -1.35452,-0.37977 -0.27006,1e-5 -0.5359,0.0401 -0.79752,0.12026 -0.26162,0.0802 -0.52746,0.20677 -0.79752,0.37977 -0.27006,0.17302 -0.55278,0.40088 -0.84815,0.68359 -0.29539,0.28273 -0.60764,0.63085 -0.93677,1.04437 l 0,4.53194 c 0.57387,0.70047 1.11821,1.23637 1.63301,1.6077 0.5148,0.37133 1.05492,0.557 1.62036,0.557 0.52324,0 0.97263,-0.12659 1.34819,-0.37977 0.37554,-0.25318 0.67936,-0.59076 0.91145,-1.01273 0.23208,-0.42196 0.40297,-0.89457 0.51269,-1.41781 0.10971,-0.52324 0.16456,-1.0507 0.16457,-1.58238 z"
         id="path4017"
         inkscape:connector-curvature="0" />
      <path
         d="m 285.60161,234.13551 c -10e-6,0.18568 -0.004,0.34181 -0.0127,0.46839 -0.008,0.1266 -0.0253,0.22576 -0.0506,0.29749 -0.0253,0.0717 -0.057,0.1266 -0.0949,0.16456 -0.038,0.038 -0.0907,0.057 -0.15824,0.057 -0.0675,1e-5 -0.14981,-0.019 -0.24685,-0.057 -0.0971,-0.038 -0.20678,-0.0759 -0.32914,-0.11393 -0.12238,-0.038 -0.25952,-0.0738 -0.41142,-0.1076 -0.15191,-0.0338 -0.31648,-0.0506 -0.4937,-0.0506 -0.21099,2e-5 -0.41776,0.0422 -0.6203,0.1266 -0.20255,0.0844 -0.41564,0.22365 -0.63928,0.41774 -0.22365,0.19412 -0.45784,0.45152 -0.70257,0.77221 -0.24475,0.3207 -0.51481,0.71313 -0.81018,1.17729 l 0,7.49416 c -10e-6,0.0675 -0.0169,0.12448 -0.0506,0.17089 -0.0338,0.0464 -0.0886,0.0865 -0.16457,0.12026 -0.076,0.0338 -0.18145,0.0591 -0.31647,0.076 -0.13504,0.0169 -0.30804,0.0253 -0.51902,0.0253 -0.20255,0 -0.37134,-0.008 -0.50637,-0.0253 -0.13503,-0.0169 -0.24263,-0.0422 -0.3228,-0.076 -0.0802,-0.0338 -0.13503,-0.0738 -0.16457,-0.12026 -0.0295,-0.0464 -0.0443,-0.10338 -0.0443,-0.17089 l 0,-11.39315 c 0,-0.0675 0.0127,-0.12447 0.038,-0.1709 0.0253,-0.0464 0.0759,-0.0886 0.15191,-0.12659 0.076,-0.038 0.173,-0.0633 0.29116,-0.076 0.11815,-0.0126 0.27427,-0.019 0.46838,-0.019 0.18567,1e-5 0.33968,0.006 0.46206,0.019 0.12236,0.0127 0.21731,0.038 0.28483,0.076 0.0675,0.038 0.11603,0.0802 0.14558,0.12659 0.0295,0.0464 0.0443,0.1034 0.0443,0.1709 l 0,1.65834 c 0.31225,-0.45572 0.60552,-0.82705 0.87981,-1.114 0.27427,-0.28693 0.53378,-0.51268 0.77853,-0.67726 0.24473,-0.16456 0.48736,-0.27849 0.72789,-0.34179 0.24052,-0.0633 0.48315,-0.0949 0.7279,-0.0949 0.1097,2e-5 0.23418,0.006 0.37344,0.019 0.13924,0.0127 0.28482,0.0359 0.43674,0.0696 0.1519,0.0338 0.28904,0.0717 0.41142,0.11393 0.12236,0.0422 0.20886,0.0844 0.25951,0.12659 0.0506,0.0422 0.0844,0.0823 0.10127,0.12026 0.0169,0.038 0.0316,0.0865 0.0443,0.14558 0.0127,0.0591 0.0211,0.14559 0.0253,0.25951 0.004,0.11394 0.006,0.26796 0.006,0.46205 z"
         id="path4019"
         inkscape:connector-curvature="0" />
      <path
         d="m 297.72898,238.5915 c -10e-6,0.32914 -0.0823,0.56333 -0.24685,0.70258 -0.16458,0.13925 -0.35235,0.20888 -0.56332,0.20887 l -7.46884,0 c -1e-5,0.63296 0.0633,1.20262 0.18988,1.70897 0.12659,0.50637 0.33757,0.941 0.63295,1.30389 0.29538,0.36289 0.67937,0.64139 1.15198,0.83549 0.4726,0.19411 1.05069,0.29116 1.73429,0.29116 0.54011,0 1.02115,-0.0443 1.44313,-0.13292 0.42196,-0.0886 0.78696,-0.18777 1.09501,-0.29749 0.30802,-0.10971 0.5612,-0.20887 0.75954,-0.29748 0.19831,-0.0886 0.34811,-0.13292 0.4494,-0.13292 0.0591,0 0.11181,0.0148 0.15823,0.0443 0.0464,0.0295 0.0823,0.0738 0.10761,0.13292 0.0253,0.0591 0.0443,0.14136 0.057,0.24685 0.0127,0.1055 0.019,0.2342 0.019,0.3861 -1e-5,0.10972 -0.004,0.20466 -0.0127,0.28483 -0.008,0.0802 -0.019,0.15191 -0.0317,0.21521 -0.0127,0.0633 -0.0338,0.12026 -0.0633,0.17089 -0.0295,0.0506 -0.0675,0.0992 -0.11393,0.14558 -0.0464,0.0464 -0.18357,0.12237 -0.41142,0.22787 -0.22788,0.10549 -0.52325,0.20887 -0.88614,0.31014 -0.3629,0.10128 -0.78276,0.192 -1.25957,0.27217 -0.47683,0.0802 -0.9853,0.12026 -1.52542,0.12026 -0.93677,0 -1.7575,-0.13081 -2.46218,-0.39243 -0.70469,-0.26162 -1.29756,-0.64983 -1.7786,-1.16463 -0.48104,-0.5148 -0.84394,-1.16041 -1.08868,-1.93683 -0.24474,-0.77642 -0.36711,-1.67943 -0.36711,-2.70904 0,-0.97896 0.12659,-1.85876 0.37977,-2.63941 0.25318,-0.78063 0.61818,-1.44312 1.09501,-1.98747 0.47682,-0.54433 1.05281,-0.96208 1.72796,-1.25325 0.67515,-0.29115 1.43047,-0.43672 2.26597,-0.43674 0.89457,2e-5 1.65622,0.14348 2.28496,0.43041 0.62872,0.28695 1.14563,0.67305 1.55073,1.1583 0.40508,0.48528 0.70257,1.05493 0.89247,1.70898 0.18987,0.65405 0.28481,1.35241 0.28482,2.09507 z m -2.1014,-0.62029 c 0.0253,-1.09711 -0.21732,-1.95793 -0.72789,-2.58245 -0.51059,-0.6245 -1.26803,-0.93676 -2.2723,-0.93677 -0.51481,1e-5 -0.96632,0.0971 -1.35452,0.29116 -0.38822,0.19411 -0.71313,0.45151 -0.97475,0.7722 -0.26162,0.32071 -0.46417,0.69415 -0.60763,1.12033 -0.14347,0.42619 -0.22365,0.87137 -0.24052,1.33553 z"
         id="path4021"
         inkscape:connector-curvature="0" />
      <path
         d="m 308.07142,241.68031 c -10e-6,0.58232 -0.10761,1.10134 -0.3228,1.55706 -0.21522,0.45573 -0.52114,0.83972 -0.91779,1.15197 -0.39665,0.31226 -0.86926,0.54856 -1.41781,0.70891 -0.54856,0.16035 -1.15198,0.24052 -1.81024,0.24052 -0.4051,0 -0.7912,-0.0316 -1.15831,-0.0949 -0.36711,-0.0633 -0.69625,-0.14347 -0.9874,-0.24052 -0.29116,-0.097 -0.53801,-0.19833 -0.74056,-0.30382 -0.20254,-0.10549 -0.35023,-0.20043 -0.44306,-0.28483 -0.0928,-0.0844 -0.16035,-0.20254 -0.20255,-0.35445 -0.0422,-0.15191 -0.0633,-0.35867 -0.0633,-0.62029 0,-0.16035 0.008,-0.29538 0.0253,-0.40509 0.0169,-0.10971 0.038,-0.19833 0.0633,-0.26584 0.0253,-0.0675 0.0612,-0.11604 0.1076,-0.14558 0.0464,-0.0295 0.0992,-0.0443 0.15824,-0.0443 0.0928,0 0.22997,0.057 0.41142,0.1709 0.18144,0.11393 0.40509,0.23841 0.67093,0.37344 0.26584,0.13503 0.5802,0.25951 0.9431,0.37344 0.36289,0.11393 0.78064,0.1709 1.25324,0.1709 0.35445,0 0.67515,-0.038 0.96209,-0.11393 0.28693,-0.076 0.5359,-0.18778 0.74689,-0.33547 0.21097,-0.14768 0.37343,-0.33546 0.48737,-0.56333 0.11392,-0.22786 0.17089,-0.49791 0.1709,-0.81017 -10e-6,-0.3207 -0.0823,-0.59076 -0.24686,-0.81018 -0.16457,-0.21942 -0.38188,-0.41353 -0.65194,-0.58232 -0.27006,-0.16878 -0.57388,-0.31858 -0.91145,-0.4494 -0.33758,-0.1308 -0.6857,-0.26794 -1.04437,-0.41142 -0.35868,-0.14346 -0.70891,-0.30592 -1.0507,-0.48737 -0.3418,-0.18144 -0.64772,-0.40297 -0.91778,-0.6646 -0.27006,-0.26161 -0.48738,-0.57387 -0.65194,-0.93677 -0.16457,-0.36288 -0.24686,-0.79751 -0.24685,-1.30388 -10e-6,-0.44728 0.0865,-0.87558 0.25951,-1.28489 0.173,-0.4093 0.43251,-0.76798 0.77853,-1.07602 0.34601,-0.30803 0.77853,-0.55488 1.29755,-0.74056 0.51902,-0.18565 1.12454,-0.27848 1.81657,-0.2785 0.30382,2e-5 0.60763,0.0253 0.91146,0.076 0.30381,0.0507 0.57809,0.11394 0.82283,0.18988 0.24474,0.076 0.45361,0.15825 0.62663,0.24685 0.173,0.0886 0.30381,0.16669 0.39243,0.2342 0.0886,0.0675 0.14768,0.1266 0.17722,0.17722 0.0295,0.0507 0.0506,0.10762 0.0633,0.1709 0.0127,0.0633 0.0253,0.14137 0.038,0.23419 0.0127,0.0928 0.019,0.20678 0.019,0.3418 0,0.14348 -0.006,0.26796 -0.019,0.37344 -0.0127,0.1055 -0.0338,0.19201 -0.0633,0.25951 -0.0295,0.0675 -0.0654,0.11605 -0.1076,0.14558 -0.0422,0.0296 -0.0886,0.0443 -0.13925,0.0443 -0.076,1e-5 -0.18567,-0.0464 -0.32914,-0.13925 -0.14347,-0.0928 -0.32914,-0.19199 -0.55699,-0.29749 -0.22787,-0.10548 -0.49582,-0.20465 -0.80385,-0.29749 -0.30805,-0.0928 -0.66039,-0.13924 -1.05703,-0.13925 -0.35446,1e-5 -0.66672,0.0401 -0.93677,0.12026 -0.27007,0.0802 -0.4916,0.19412 -0.6646,0.3418 -0.17301,0.1477 -0.30382,0.32281 -0.39243,0.52535 -0.0886,0.20255 -0.13293,0.42198 -0.13292,0.65827 -1e-5,0.32914 0.0844,0.60553 0.25318,0.82917 0.16878,0.22365 0.3882,0.41986 0.65827,0.58864 0.27005,0.1688 0.57809,0.3207 0.92411,0.45573 0.34601,0.13503 0.69835,0.27428 1.05703,0.41775 0.35866,0.14347 0.71312,0.30382 1.06336,0.48104 0.35022,0.17723 0.66037,0.39244 0.93044,0.64561 0.27005,0.25319 0.48736,0.557 0.65194,0.91145 0.16456,0.35446 0.24684,0.77643 0.24685,1.26591 z"
         id="path4023"
         inkscape:connector-curvature="0" />
      <path
         d="m 320.76845,238.5915 c -10e-6,0.32914 -0.0823,0.56333 -0.24685,0.70258 -0.16458,0.13925 -0.35235,0.20888 -0.56333,0.20887 l -7.46884,0 c 0,0.63296 0.0633,1.20262 0.18989,1.70897 0.12659,0.50637 0.33757,0.941 0.63295,1.30389 0.29537,0.36289 0.67937,0.64139 1.15197,0.83549 0.4726,0.19411 1.0507,0.29116 1.73429,0.29116 0.54012,0 1.02116,-0.0443 1.44314,-0.13292 0.42196,-0.0886 0.78696,-0.18777 1.095,-0.29749 0.30803,-0.10971 0.56121,-0.20887 0.75955,-0.29748 0.19831,-0.0886 0.34811,-0.13292 0.44939,-0.13292 0.0591,0 0.11181,0.0148 0.15824,0.0443 0.0464,0.0295 0.0823,0.0738 0.1076,0.13292 0.0253,0.0591 0.0443,0.14136 0.057,0.24685 0.0127,0.1055 0.019,0.2342 0.019,0.3861 -10e-6,0.10972 -0.004,0.20466 -0.0127,0.28483 -0.008,0.0802 -0.019,0.15191 -0.0316,0.21521 -0.0127,0.0633 -0.0338,0.12026 -0.0633,0.17089 -0.0295,0.0506 -0.0675,0.0992 -0.11394,0.14558 -0.0464,0.0464 -0.18356,0.12237 -0.41142,0.22787 -0.22787,0.10549 -0.52325,0.20887 -0.88613,0.31014 -0.3629,0.10128 -0.78276,0.192 -1.25957,0.27217 -0.47684,0.0802 -0.98531,0.12026 -1.52542,0.12026 -0.93678,0 -1.7575,-0.13081 -2.46218,-0.39243 -0.7047,-0.26162 -1.29756,-0.64983 -1.7786,-1.16463 -0.48105,-0.5148 -0.84394,-1.16041 -1.08868,-1.93683 -0.24474,-0.77642 -0.36711,-1.67943 -0.36711,-2.70904 0,-0.97896 0.12659,-1.85876 0.37977,-2.63941 0.25318,-0.78063 0.61818,-1.44312 1.09501,-1.98747 0.47682,-0.54433 1.0528,-0.96208 1.72796,-1.25325 0.67514,-0.29115 1.43046,-0.43672 2.26597,-0.43674 0.89456,2e-5 1.65621,0.14348 2.28496,0.43041 0.62872,0.28695 1.14563,0.67305 1.55073,1.1583 0.40508,0.48528 0.70257,1.05493 0.89246,1.70898 0.18988,0.65405 0.28482,1.35241 0.28483,2.09507 z m -2.1014,-0.62029 c 0.0253,-1.09711 -0.21732,-1.95793 -0.7279,-2.58245 -0.51059,-0.6245 -1.26802,-0.93676 -2.2723,-0.93677 -0.5148,1e-5 -0.96631,0.0971 -1.35451,0.29116 -0.38822,0.19411 -0.71314,0.45151 -0.97475,0.7722 -0.26163,0.32071 -0.46417,0.69415 -0.60764,1.12033 -0.14347,0.42619 -0.22364,0.87137 -0.24052,1.33553 z"
         id="path4025"
         inkscape:connector-curvature="0" />
      <path
         d="m 333.7693,244.78178 c -2e-5,0.0675 -0.0169,0.12448 -0.0506,0.17089 -0.0338,0.0464 -0.0886,0.0865 -0.16457,0.12026 -0.076,0.0338 -0.18146,0.0591 -0.31647,0.076 -0.13505,0.0169 -0.30383,0.0253 -0.50637,0.0253 -0.21099,0 -0.384,-0.008 -0.51902,-0.0253 -0.13504,-0.0169 -0.24053,-0.0422 -0.31647,-0.076 -0.076,-0.0338 -0.13082,-0.0738 -0.16457,-0.12026 -0.0338,-0.0464 -0.0507,-0.10338 -0.0506,-0.17089 l 0,-6.67132 c -1e-5,-0.64983 -0.0506,-1.17307 -0.15191,-1.56973 -0.10128,-0.39664 -0.24897,-0.73843 -0.44306,-1.02538 -0.19412,-0.28693 -0.44519,-0.50635 -0.75322,-0.65827 -0.30804,-0.1519 -0.6646,-0.22785 -1.06969,-0.22786 -0.52324,1e-5 -1.04648,0.18567 -1.56972,0.557 -0.52324,0.37134 -1.0718,0.91568 -1.64567,1.63301 l 0,7.96255 c -1e-5,0.0675 -0.0169,0.12448 -0.0506,0.17089 -0.0338,0.0464 -0.0886,0.0865 -0.16457,0.12026 -0.076,0.0338 -0.18145,0.0591 -0.31647,0.076 -0.13504,0.0169 -0.30804,0.0253 -0.51903,0.0253 -0.20254,0 -0.37133,-0.008 -0.50636,-0.0253 -0.13503,-0.0169 -0.24263,-0.0422 -0.3228,-0.076 -0.0802,-0.0338 -0.13503,-0.0738 -0.16457,-0.12026 -0.0295,-0.0464 -0.0443,-0.10338 -0.0443,-0.17089 l 0,-11.39315 c 0,-0.0675 0.0127,-0.12447 0.038,-0.1709 0.0253,-0.0464 0.0759,-0.0886 0.15191,-0.12659 0.076,-0.038 0.173,-0.0633 0.29116,-0.076 0.11815,-0.0126 0.27427,-0.019 0.46838,-0.019 0.18566,1e-5 0.33968,0.006 0.46206,0.019 0.12236,0.0127 0.21731,0.038 0.28483,0.076 0.0675,0.038 0.11603,0.0802 0.14557,0.12659 0.0295,0.0464 0.0443,0.1034 0.0443,0.1709 l 0,1.50643 c 0.64139,-0.71734 1.28067,-1.24269 1.91785,-1.57605 0.63716,-0.33335 1.28066,-0.50002 1.9305,-0.50004 0.75954,2e-5 1.39882,0.12872 1.91785,0.3861 0.51901,0.25742 0.93887,0.60132 1.25957,1.03172 0.32069,0.43041 0.55066,0.93467 0.68992,1.51275 0.13924,0.57811 0.20886,1.27225 0.20888,2.08242 z"
         id="path4027"
         inkscape:connector-curvature="0" />
      <path
         d="m 343.50411,243.94628 c -1e-5,0.24474 -0.0169,0.43885 -0.0506,0.58231 -0.0338,0.14347 -0.0844,0.24897 -0.15191,0.31648 -0.0675,0.0675 -0.16879,0.13081 -0.30381,0.18989 -0.13504,0.0591 -0.28906,0.1076 -0.46206,0.14558 -0.17301,0.038 -0.35657,0.0696 -0.55067,0.0949 -0.19411,0.0253 -0.38822,0.038 -0.58231,0.038 -0.59077,-1e-5 -1.09713,-0.0781 -1.51909,-0.2342 -0.42197,-0.15613 -0.76799,-0.39243 -1.03804,-0.7089 -0.27007,-0.31648 -0.46628,-0.71735 -0.58865,-1.20261 -0.12237,-0.48526 -0.18356,-1.05703 -0.18355,-1.7153 l 0,-6.65867 -1.59505,0 c -0.12659,2e-5 -0.22786,-0.0675 -0.30381,-0.20254 -0.076,-0.13502 -0.11393,-0.35444 -0.11393,-0.65827 0,-0.16034 0.0105,-0.29537 0.0316,-0.40509 0.0211,-0.1097 0.0485,-0.20042 0.0823,-0.27217 0.0338,-0.0717 0.0781,-0.12236 0.13292,-0.15191 0.0548,-0.0295 0.11604,-0.0443 0.18355,-0.0443 l 1.58239,0 0,-2.70904 c -1e-5,-0.0591 0.0148,-0.11392 0.0443,-0.16457 0.0295,-0.0506 0.0844,-0.0949 0.16457,-0.13292 0.0802,-0.038 0.18777,-0.0654 0.32281,-0.0823 0.13502,-0.0169 0.30381,-0.0253 0.50636,-0.0253 0.21098,1e-5 0.38398,0.008 0.51902,0.0253 0.13502,0.0169 0.24052,0.0443 0.31647,0.0823 0.0759,0.038 0.13081,0.0823 0.16457,0.13292 0.0338,0.0506 0.0506,0.10551 0.0506,0.16457 l 0,2.70904 2.92424,0 c 0.0675,1e-5 0.12658,0.0148 0.17723,0.0443 0.0506,0.0296 0.0949,0.0802 0.13292,0.15191 0.038,0.0718 0.0654,0.16247 0.0823,0.27217 0.0169,0.10972 0.0253,0.24475 0.0253,0.40509 -10e-6,0.30383 -0.038,0.52325 -0.11393,0.65827 -0.076,0.13504 -0.17724,0.20256 -0.30382,0.20254 l -2.92424,0 0,6.35485 c -10e-6,0.78486 0.11603,1.37773 0.34812,1.77859 0.23208,0.40088 0.64772,0.60131 1.24692,0.60131 0.1941,0 0.3671,-0.019 0.51902,-0.057 0.1519,-0.038 0.28693,-0.0781 0.40509,-0.12026 0.11814,-0.0422 0.21942,-0.0823 0.30382,-0.12026 0.0844,-0.038 0.16034,-0.057 0.22786,-0.057 0.0422,0 0.0823,0.0105 0.12026,0.0316 0.038,0.0211 0.0675,0.0612 0.0886,0.12026 0.0211,0.0591 0.0401,0.13926 0.057,0.24053 0.0169,0.10127 0.0253,0.22786 0.0253,0.37977 z"
         id="path4029"
         inkscape:connector-curvature="0" />
      <path
         d="m 354.87193,244.79443 c -1e-5,0.10128 -0.0338,0.17723 -0.10127,0.22787 -0.0675,0.0506 -0.16036,0.0886 -0.2785,0.11393 -0.11816,0.0253 -0.29116,0.038 -0.51902,0.038 -0.21943,0 -0.39455,-0.0127 -0.52535,-0.038 -0.13082,-0.0253 -0.22576,-0.0633 -0.28483,-0.11393 -0.0591,-0.0506 -0.0886,-0.12659 -0.0886,-0.22787 l 0,-1.13931 c -0.49793,0.53168 -1.05282,0.94521 -1.66467,1.24059 -0.61186,0.29537 -1.25958,0.44306 -1.94316,0.44306 -0.5992,0 -1.14143,-0.0781 -1.62669,-0.23419 -0.48526,-0.15613 -0.89879,-0.38188 -1.24058,-0.67726 -0.3418,-0.29538 -0.60764,-0.65827 -0.79752,-1.08868 -0.18989,-0.4304 -0.28483,-0.91988 -0.28483,-1.46845 0,-0.64138 0.13081,-1.19838 0.39243,-1.67099 0.26162,-0.4726 0.63717,-0.86503 1.12665,-1.17729 0.48948,-0.31225 1.08868,-0.54644 1.79759,-0.70258 0.7089,-0.15612 1.50642,-0.23419 2.39256,-0.23419 l 1.56972,0 0,-0.88614 c -1e-5,-0.43883 -0.0464,-0.82704 -0.13925,-1.16463 -0.0928,-0.33756 -0.24264,-0.61817 -0.4494,-0.84182 -0.20677,-0.22364 -0.47472,-0.39243 -0.80384,-0.50637 -0.32915,-0.11392 -0.73424,-0.17088 -1.21527,-0.17089 -0.51481,1e-5 -0.97687,0.0612 -1.38617,0.18355 -0.40931,0.12238 -0.76799,0.25741 -1.07602,0.40509 -0.30804,0.1477 -0.56544,0.28273 -0.7722,0.40509 -0.20677,0.12238 -0.36079,0.18357 -0.46206,0.18356 -0.0675,1e-5 -0.12659,-0.0169 -0.17722,-0.0506 -0.0506,-0.0337 -0.0949,-0.0844 -0.13292,-0.15191 -0.038,-0.0675 -0.0654,-0.15401 -0.0823,-0.25951 -0.0169,-0.10548 -0.0253,-0.22152 -0.0253,-0.34812 -1e-5,-0.21098 0.0148,-0.37765 0.0443,-0.50003 0.0295,-0.12236 0.10127,-0.23841 0.21521,-0.34813 0.11393,-0.1097 0.31014,-0.2384 0.58864,-0.3861 0.2785,-0.14768 0.59919,-0.28271 0.96209,-0.40509 0.36289,-0.12236 0.75954,-0.22363 1.18995,-0.30382 0.4304,-0.0802 0.86503,-0.12024 1.30388,-0.12026 0.81861,2e-5 1.51486,0.0928 2.08875,0.2785 0.57386,0.18568 1.03803,0.45785 1.39249,0.81651 0.35444,0.35868 0.61184,0.80386 0.7722,1.33553 0.16034,0.53169 0.24051,1.15198 0.24052,1.86088 z m -2.07608,-5.20287 -1.78493,0 c -0.57388,1e-5 -1.0718,0.0485 -1.49376,0.14558 -0.42198,0.0971 -0.77221,0.24053 -1.0507,0.43041 -0.27851,0.18989 -0.48316,0.41775 -0.61397,0.68359 -0.13081,0.26584 -0.19622,0.57177 -0.19621,0.91778 -10e-6,0.59076 0.18777,1.06125 0.56332,1.41149 0.37555,0.35023 0.9009,0.52535 1.57606,0.52535 0.54855,0 1.05702,-0.13925 1.52541,-0.41775 0.46838,-0.2785 0.95997,-0.70469 1.47478,-1.27857 z"
         id="path4031"
         inkscape:connector-curvature="0" />
      <path
         d="m 364.6194,243.94628 c -10e-6,0.24474 -0.0169,0.43885 -0.0506,0.58231 -0.0338,0.14347 -0.0844,0.24897 -0.15191,0.31648 -0.0675,0.0675 -0.1688,0.13081 -0.30382,0.18989 -0.13504,0.0591 -0.28905,0.1076 -0.46205,0.14558 -0.17302,0.038 -0.35657,0.0696 -0.55067,0.0949 -0.19411,0.0253 -0.38822,0.038 -0.58232,0.038 -0.59076,-1e-5 -1.09712,-0.0781 -1.51909,-0.2342 -0.42197,-0.15613 -0.76798,-0.39243 -1.03804,-0.7089 -0.27006,-0.31648 -0.46628,-0.71735 -0.58864,-1.20261 -0.12238,-0.48526 -0.18356,-1.05703 -0.18356,-1.7153 l 0,-6.65867 -1.59504,0 c -0.12659,2e-5 -0.22786,-0.0675 -0.30382,-0.20254 -0.0759,-0.13502 -0.11393,-0.35444 -0.11393,-0.65827 0,-0.16034 0.0105,-0.29537 0.0317,-0.40509 0.0211,-0.1097 0.0485,-0.20042 0.0823,-0.27217 0.0338,-0.0717 0.0781,-0.12236 0.13292,-0.15191 0.0549,-0.0295 0.11604,-0.0443 0.18356,-0.0443 l 1.58238,0 0,-2.70904 c 0,-0.0591 0.0148,-0.11392 0.0443,-0.16457 0.0295,-0.0506 0.0844,-0.0949 0.16456,-0.13292 0.0802,-0.038 0.18778,-0.0654 0.32281,-0.0823 0.13503,-0.0169 0.30381,-0.0253 0.50636,-0.0253 0.21098,1e-5 0.38399,0.008 0.51902,0.0253 0.13503,0.0169 0.24052,0.0443 0.31648,0.0823 0.076,0.038 0.13081,0.0823 0.16457,0.13292 0.0337,0.0506 0.0506,0.10551 0.0506,0.16457 l 0,2.70904 2.92424,0 c 0.0675,1e-5 0.12659,0.0148 0.17723,0.0443 0.0506,0.0296 0.0949,0.0802 0.13292,0.15191 0.038,0.0718 0.0654,0.16247 0.0823,0.27217 0.0169,0.10972 0.0253,0.24475 0.0253,0.40509 -1e-5,0.30383 -0.038,0.52325 -0.11393,0.65827 -0.076,0.13504 -0.17723,0.20256 -0.30382,0.20254 l -2.92424,0 0,6.35485 c 0,0.78486 0.11604,1.37773 0.34813,1.77859 0.23207,0.40088 0.64771,0.60131 1.24691,0.60131 0.1941,0 0.36711,-0.019 0.51902,-0.057 0.15191,-0.038 0.28694,-0.0781 0.40509,-0.12026 0.11815,-0.0422 0.21942,-0.0823 0.30382,-0.12026 0.0844,-0.038 0.16034,-0.057 0.22786,-0.057 0.0422,0 0.0823,0.0105 0.12027,0.0316 0.038,0.0211 0.0675,0.0612 0.0886,0.12026 0.0211,0.0591 0.0401,0.13926 0.057,0.24053 0.0169,0.10127 0.0253,0.22786 0.0253,0.37977 z"
         id="path4033"
         inkscape:connector-curvature="0" />
      <path
         d="m 369.49314,244.78178 c -10e-6,0.0675 -0.0169,0.12448 -0.0506,0.17089 -0.0338,0.0464 -0.0886,0.0865 -0.16457,0.12026 -0.076,0.0338 -0.18145,0.0591 -0.31647,0.076 -0.13504,0.0169 -0.30804,0.0253 -0.51902,0.0253 -0.20255,0 -0.37134,-0.008 -0.50637,-0.0253 -0.13503,-0.0169 -0.24263,-0.0422 -0.3228,-0.076 -0.0802,-0.0338 -0.13503,-0.0738 -0.16457,-0.12026 -0.0295,-0.0464 -0.0443,-0.10338 -0.0443,-0.17089 l 0,-11.39315 c 0,-0.0591 0.0148,-0.11392 0.0443,-0.16457 0.0295,-0.0506 0.0844,-0.0928 0.16457,-0.12659 0.0802,-0.0337 0.18777,-0.0591 0.3228,-0.0759 0.13503,-0.0169 0.30382,-0.0253 0.50637,-0.0253 0.21098,1e-5 0.38398,0.008 0.51902,0.0253 0.13502,0.0169 0.24052,0.0422 0.31647,0.0759 0.0759,0.0338 0.13081,0.076 0.16457,0.12659 0.0337,0.0506 0.0506,0.10551 0.0506,0.16457 z m 0.24052,-15.2415 c 0,0.4895 -0.0928,0.82285 -0.2785,1.00006 -0.18567,0.17725 -0.52746,0.26586 -1.02538,0.26584 -0.48949,2e-5 -0.82495,-0.0865 -1.0064,-0.25951 -0.18145,-0.17299 -0.27217,-0.50001 -0.27217,-0.98107 0,-0.48947 0.0928,-0.82282 0.2785,-1.00007 0.18567,-0.17721 0.52746,-0.26582 1.02539,-0.26584 0.48948,2e-5 0.82494,0.0865 1.00639,0.25951 0.18144,0.17303 0.27217,0.50005 0.27217,0.98108 z"
         id="path4035"
         inkscape:connector-curvature="0" />
      <path
         d="m 383.97509,238.95861 c -2e-5,0.92834 -0.12239,1.78282 -0.36712,2.56346 -0.24475,0.78064 -0.60975,1.45368 -1.095,2.01912 -0.48528,0.56544 -1.09291,1.00639 -1.82291,1.32287 -0.73001,0.31648 -1.57606,0.47471 -2.53814,0.47471 -0.93677,0 -1.75328,-0.13925 -2.44952,-0.41775 -0.69625,-0.27849 -1.27646,-0.68358 -1.74062,-1.21526 -0.46417,-0.53168 -0.81018,-1.17729 -1.03804,-1.93684 -0.22787,-0.75954 -0.3418,-1.62035 -0.3418,-2.58244 0,-0.92833 0.12026,-1.78281 0.36078,-2.56346 0.24052,-0.78063 0.60342,-1.45367 1.08868,-2.01912 0.48526,-0.56543 1.09079,-1.00427 1.81658,-1.31654 0.72578,-0.31225 1.57393,-0.46837 2.54447,-0.46839 0.93676,2e-5 1.75326,0.13926 2.44952,0.41775 0.69624,0.27851 1.27644,0.6836 1.74062,1.21527 0.46415,0.53169 0.81228,1.1773 1.04437,1.93684 0.23207,0.75955 0.34811,1.61614 0.34813,2.56978 z m -2.20268,0.13925 c -10e-6,-0.61607 -0.057,-1.19838 -0.1709,-1.74695 -0.11394,-0.54855 -0.30171,-1.02959 -0.56332,-1.44313 -0.26163,-0.41352 -0.61609,-0.74054 -1.06336,-0.98108 -0.4473,-0.24051 -1.0043,-0.36077 -1.671,-0.36078 -0.61608,1e-5 -1.14565,0.10972 -1.58871,0.32914 -0.44307,0.21943 -0.80807,0.52958 -1.09501,0.93044 -0.28694,0.40088 -0.50003,0.87559 -0.63928,1.42414 -0.13925,0.54857 -0.20888,1.14776 -0.20887,1.79759 -10e-6,0.62451 0.057,1.21105 0.17089,1.7596 0.11393,0.54857 0.30382,1.0275 0.56966,1.43681 0.26584,0.40931 0.6224,0.73422 1.06969,0.97474 0.44728,0.24053 1.00428,0.36079 1.671,0.36079 0.60762,0 1.13508,-0.10971 1.58238,-0.32914 0.44727,-0.21942 0.81439,-0.52746 1.10133,-0.92411 0.28693,-0.39665 0.49792,-0.86925 0.63296,-1.41781 0.13502,-0.54856 0.20253,-1.15197 0.20254,-1.81025 z"
         id="path4037"
         inkscape:connector-curvature="0" />
      <path
         d="m 396.86199,244.78178 c -10e-6,0.0675 -0.0169,0.12448 -0.0506,0.17089 -0.0338,0.0464 -0.0886,0.0865 -0.16457,0.12026 -0.076,0.0338 -0.18146,0.0591 -0.31648,0.076 -0.13504,0.0169 -0.30383,0.0253 -0.50636,0.0253 -0.21099,0 -0.384,-0.008 -0.51902,-0.0253 -0.13504,-0.0169 -0.24053,-0.0422 -0.31648,-0.076 -0.076,-0.0338 -0.13082,-0.0738 -0.16456,-0.12026 -0.0338,-0.0464 -0.0507,-0.10338 -0.0506,-0.17089 l 0,-6.67132 c -1e-5,-0.64983 -0.0507,-1.17307 -0.15191,-1.56973 -0.10128,-0.39664 -0.24897,-0.73843 -0.44307,-1.02538 -0.19411,-0.28693 -0.44518,-0.50635 -0.75321,-0.65827 -0.30804,-0.1519 -0.66461,-0.22785 -1.06969,-0.22786 -0.52325,1e-5 -1.04649,0.18567 -1.56972,0.557 -0.52325,0.37134 -1.0718,0.91568 -1.64568,1.63301 l 0,7.96255 c 0,0.0675 -0.0169,0.12448 -0.0506,0.17089 -0.0338,0.0464 -0.0886,0.0865 -0.16457,0.12026 -0.076,0.0338 -0.18145,0.0591 -0.31648,0.076 -0.13503,0.0169 -0.30804,0.0253 -0.51902,0.0253 -0.20255,0 -0.37133,-0.008 -0.50636,-0.0253 -0.13503,-0.0169 -0.24263,-0.0422 -0.32281,-0.076 -0.0802,-0.0338 -0.13503,-0.0738 -0.16456,-0.12026 -0.0295,-0.0464 -0.0443,-0.10338 -0.0443,-0.17089 l 0,-11.39315 c 0,-0.0675 0.0127,-0.12447 0.038,-0.1709 0.0253,-0.0464 0.076,-0.0886 0.15191,-0.12659 0.0759,-0.038 0.173,-0.0633 0.29115,-0.076 0.11815,-0.0126 0.27428,-0.019 0.46839,-0.019 0.18566,1e-5 0.33968,0.006 0.46205,0.019 0.12237,0.0127 0.21731,0.038 0.28483,0.076 0.0675,0.038 0.11604,0.0802 0.14558,0.12659 0.0295,0.0464 0.0443,0.1034 0.0443,0.1709 l 0,1.50643 c 0.64139,-0.71734 1.28067,-1.24269 1.91784,-1.57605 0.63717,-0.33335 1.28067,-0.50002 1.93051,-0.50004 0.75953,2e-5 1.39882,0.12872 1.91785,0.3861 0.51901,0.25742 0.93886,0.60132 1.25957,1.03172 0.32069,0.43041 0.55066,0.93467 0.68992,1.51275 0.13924,0.57811 0.20886,1.27225 0.20887,2.08242 z"
         id="path4039"
         inkscape:connector-curvature="0" />
      <path
         d="m 407.82473,241.68031 c -10e-6,0.58232 -0.10761,1.10134 -0.3228,1.55706 -0.21522,0.45573 -0.52114,0.83972 -0.91778,1.15197 -0.39666,0.31226 -0.86927,0.54856 -1.41782,0.70891 -0.54856,0.16035 -1.15198,0.24052 -1.81024,0.24052 -0.4051,0 -0.7912,-0.0316 -1.15831,-0.0949 -0.36711,-0.0633 -0.69625,-0.14347 -0.9874,-0.24052 -0.29116,-0.097 -0.53801,-0.19833 -0.74056,-0.30382 -0.20254,-0.10549 -0.35023,-0.20043 -0.44306,-0.28483 -0.0928,-0.0844 -0.16035,-0.20254 -0.20255,-0.35445 -0.0422,-0.15191 -0.0633,-0.35867 -0.0633,-0.62029 0,-0.16035 0.008,-0.29538 0.0253,-0.40509 0.0169,-0.10971 0.038,-0.19833 0.0633,-0.26584 0.0253,-0.0675 0.0612,-0.11604 0.1076,-0.14558 0.0464,-0.0295 0.0992,-0.0443 0.15824,-0.0443 0.0928,0 0.22997,0.057 0.41142,0.1709 0.18144,0.11393 0.40509,0.23841 0.67093,0.37344 0.26584,0.13503 0.5802,0.25951 0.9431,0.37344 0.36289,0.11393 0.78064,0.1709 1.25324,0.1709 0.35445,0 0.67515,-0.038 0.96209,-0.11393 0.28694,-0.076 0.5359,-0.18778 0.74689,-0.33547 0.21097,-0.14768 0.37343,-0.33546 0.48737,-0.56333 0.11392,-0.22786 0.17089,-0.49791 0.1709,-0.81017 -10e-6,-0.3207 -0.0823,-0.59076 -0.24685,-0.81018 -0.16458,-0.21942 -0.38189,-0.41353 -0.65195,-0.58232 -0.27006,-0.16878 -0.57388,-0.31858 -0.91145,-0.4494 -0.33758,-0.1308 -0.6857,-0.26794 -1.04437,-0.41142 -0.35868,-0.14346 -0.70891,-0.30592 -1.0507,-0.48737 -0.3418,-0.18144 -0.64772,-0.40297 -0.91778,-0.6646 -0.27006,-0.26161 -0.48738,-0.57387 -0.65194,-0.93677 -0.16457,-0.36288 -0.24685,-0.79751 -0.24685,-1.30388 0,-0.44728 0.0865,-0.87558 0.25951,-1.28489 0.173,-0.4093 0.43251,-0.76798 0.77853,-1.07602 0.34601,-0.30803 0.77853,-0.55488 1.29755,-0.74056 0.51902,-0.18565 1.12454,-0.27848 1.81658,-0.2785 0.30381,2e-5 0.60762,0.0253 0.91145,0.076 0.30381,0.0507 0.57809,0.11394 0.82283,0.18988 0.24474,0.076 0.45361,0.15825 0.62663,0.24685 0.173,0.0886 0.30381,0.16669 0.39243,0.2342 0.0886,0.0675 0.14768,0.1266 0.17723,0.17722 0.0295,0.0507 0.0506,0.10762 0.0633,0.1709 0.0127,0.0633 0.0253,0.14137 0.038,0.23419 0.0127,0.0928 0.019,0.20678 0.019,0.3418 -10e-6,0.14348 -0.006,0.26796 -0.019,0.37344 -0.0127,0.1055 -0.0338,0.19201 -0.0633,0.25951 -0.0295,0.0675 -0.0654,0.11605 -0.1076,0.14558 -0.0422,0.0296 -0.0886,0.0443 -0.13925,0.0443 -0.076,1e-5 -0.18567,-0.0464 -0.32913,-0.13925 -0.14348,-0.0928 -0.32915,-0.19199 -0.557,-0.29749 -0.22787,-0.10548 -0.49582,-0.20465 -0.80385,-0.29749 -0.30805,-0.0928 -0.66039,-0.13924 -1.05703,-0.13925 -0.35446,1e-5 -0.66672,0.0401 -0.93677,0.12026 -0.27007,0.0802 -0.4916,0.19412 -0.6646,0.3418 -0.17301,0.1477 -0.30382,0.32281 -0.39243,0.52535 -0.0886,0.20255 -0.13293,0.42198 -0.13292,0.65827 -10e-6,0.32914 0.0844,0.60553 0.25318,0.82917 0.16878,0.22365 0.3882,0.41986 0.65827,0.58864 0.27005,0.1688 0.57809,0.3207 0.92411,0.45573 0.34601,0.13503 0.69835,0.27428 1.05703,0.41775 0.35867,0.14347 0.71312,0.30382 1.06336,0.48104 0.35023,0.17723 0.66037,0.39244 0.93044,0.64561 0.27005,0.25319 0.48736,0.557 0.65194,0.91145 0.16456,0.35446 0.24684,0.77643 0.24685,1.26591 z"
         id="path4041"
         inkscape:connector-curvature="0" />
    </g>
  </g>
</svg>
