<?xml version="1.0" encoding="UTF-8" standalone="no"?>
<!-- Created with Inkscape (http://www.inkscape.org/) -->

<svg
   xmlns:dc="http://purl.org/dc/elements/1.1/"
   xmlns:cc="http://creativecommons.org/ns#"
   xmlns:rdf="http://www.w3.org/1999/02/22-rdf-syntax-ns#"
   xmlns:svg="http://www.w3.org/2000/svg"
   xmlns="http://www.w3.org/2000/svg"
   xmlns:sodipodi="http://sodipodi.sourceforge.net/DTD/sodipodi-0.dtd"
   xmlns:inkscape="http://www.inkscape.org/namespaces/inkscape"
   version="1.1"
   width="364.20081"
   height="333.66089"
   id="svg2"
   inkscape:version="0.48.2 r9819"
   sodipodi:docname="back.svg">
  <sodipodi:namedview
     pagecolor="#ffffff"
     bordercolor="#666666"
     borderopacity="1"
     objecttolerance="10"
     gridtolerance="10"
     guidetolerance="10"
     inkscape:pageopacity="0"
     inkscape:pageshadow="2"
     inkscape:window-width="1276"
     inkscape:window-height="853"
     id="namedview8"
     showgrid="false"
     inkscape:zoom="1.4188351"
     inkscape:cx="164.06436"
     inkscape:cy="175.69036"
     inkscape:window-x="532"
     inkscape:window-y="50"
     inkscape:window-maximized="0"
     inkscape:current-layer="svg2"
     fit-margin-top="0"
     fit-margin-left="0"
     fit-margin-right="0"
     fit-margin-bottom="0" />
  <metadata
     id="metadata13">
    <rdf:RDF>
      <cc:Work
         rdf:about="">
        <dc:format>image/svg+xml</dc:format>
        <dc:type
           rdf:resource="http://purl.org/dc/dcmitype/StillImage" />
        <dc:title />
      </cc:Work>
    </rdf:RDF>
  </metadata>
  <defs
     id="defs11" />
  <rect
     style="opacity:0.78318583;fill:#e4e4e4;fill-opacity:1;stroke:#000000;stroke-width:12.87081814;stroke-opacity:1"
     y="134.66754"
     x="194.97122"
     height="0"
     width="77.224907"
     id="rect3465" />
  <g
     transform="matrix(-12.870818,0,0,12.870818,375.16267,-26.217688)"
     id="g3166"
     style="fill:#e4e4e4;fill-opacity:0.64361703999999997;stroke:#363636;stroke-width:1.04663122000000010;stroke-miterlimit:4;stroke-opacity:1;stroke-dasharray:none">
    <path
       style="fill:#e4e4e4;fill-opacity:0.64361703999999997;stroke:#363636;stroke-width:1.04663122000000010;stroke-miterlimit:4;stroke-opacity:1;stroke-dasharray:none"
       inkscape:connector-curvature="0"
       d="m 12.5,2.5625 c -1.03071,0.09714 -1.81696,0.96473 -1.8125,2 l 0,2.625 -7.3125,0 c -1.10452,1.1e-4 -1.99989,0.89548 -2,2 l 0,11.625 c 1.1e-4,1.104521 0.89548,1.999889 2,2 l 7.3125,0 0,2.625 c 1.1e-4,1.104521 0.89548,1.999889 2,2 l 2.3125,0 c 0.45426,3.4e-4 0.8951,-0.153959 1.25,-0.4375 l 11.625,-9.28125 c 0.47439,-0.37985 0.750351,-0.954769 0.75,-1.5625 l 0,-2.3125 c 3.51e-4,-0.60773 -0.27561,-1.18265 -0.75,-1.5625 L 16.25,3 C 15.8951,2.71646 15.45426,2.56216 15,2.5625 l -2.3125,0 c -0.06247,-0.00293 -0.12503,-0.00293 -0.1875,0 z"
       id="path3354" />
  </g>
</svg>
