<?xml version="1.0" encoding="UTF-8" standalone="no"?>
<!-- Created with Inkscape (http://www.inkscape.org/) -->

<svg
   xmlns:dc="http://purl.org/dc/elements/1.1/"
   xmlns:cc="http://creativecommons.org/ns#"
   xmlns:rdf="http://www.w3.org/1999/02/22-rdf-syntax-ns#"
   xmlns:svg="http://www.w3.org/2000/svg"
   xmlns="http://www.w3.org/2000/svg"
   version="1.1"
   width="26.5"
   height="26.5"
   viewBox="0 0 26.5 26.5"
   id="svg2"
   xml:space="preserve"><metadata
     id="metadata19"><rdf:RDF><cc:Work
         rdf:about=""><dc:format>image/svg+xml</dc:format><dc:type
           rdf:resource="http://purl.org/dc/dcmitype/StillImage" /><dc:title></dc:title></cc:Work></rdf:RDF></metadata><defs
     id="defs17">
	
	
	
</defs><path
     d="M 13.252,-8.9650509e-8 C 5.936,-8.9650509e-8 0,5.9469999 0,13.251 0,20.564 5.937,26.5 13.252,26.5 20.561,26.5 26.5,20.564 26.5,13.251 26.5,5.9469999 20.561,-8.9650511e-8 13.252,-8.9650511e-8 z M 13.251,17.384 c -2.282,0 -4.136,-1.853 -4.136,-4.134 0,-2.279 1.854,-4.1350001 4.136,-4.1350001 2.279,0 4.132,1.8560001 4.132,4.1350001 0,2.281 -1.852,4.134 -4.132,4.134 z"
     id="path11"
     style="fill:#ececec" /><polygon
     points="39.375,7.75 39.375,11.25 22.75,17.25 35.875,7.75 "
     transform="matrix(0.66882248,0,0,0.66882248,-6.5907114,-3.5371879)"
     id="polygon13"
     style="fill:#ffffff" /></svg>