<?xml version="1.0" encoding="UTF-8" standalone="no"?>
<svg
   xmlns:dc="http://purl.org/dc/elements/1.1/"
   xmlns:cc="http://creativecommons.org/ns#"
   xmlns:rdf="http://www.w3.org/1999/02/22-rdf-syntax-ns#"
   xmlns:svg="http://www.w3.org/2000/svg"
   xmlns="http://www.w3.org/2000/svg"
   xmlns:xlink="http://www.w3.org/1999/xlink"
   xmlns:sodipodi="http://sodipodi.sourceforge.net/DTD/sodipodi-0.dtd"
   xmlns:inkscape="http://www.inkscape.org/namespaces/inkscape"
   width="108.98332"
   height="108.63435"
   id="svg2"
   version="1.1"
   inkscape:version="0.48.2 r9819"
   sodipodi:docname="home.svg">
  <sodipodi:namedview
     pagecolor="#ffffff"
     bordercolor="#666666"
     borderopacity="1"
     objecttolerance="10"
     gridtolerance="10"
     guidetolerance="10"
     inkscape:pageopacity="0"
     inkscape:pageshadow="2"
     inkscape:window-width="640"
     inkscape:window-height="480"
     id="namedview26"
     showgrid="false"
     fit-margin-top="0"
     fit-margin-left="0"
     fit-margin-right="0"
     fit-margin-bottom="0"
     inkscape:zoom="1.4008172"
     inkscape:cx="55.844324"
     inkscape:cy="52.215254"
     inkscape:window-x="0"
     inkscape:window-y="0"
     inkscape:window-maximized="0"
     inkscape:current-layer="svg2" />
  <defs
     id="defs4">
    <linearGradient
       y2="0.77499998"
       x2="0.5"
       y1="0.089286"
       x1="0.464286"
       id="linearGradient5323"
       xlink:href="#linearGradient3952" />
    <linearGradient
       id="linearGradient3952">
      <stop
         stop-color="#0146a8"
         id="stop3954"
         offset="0" />
      <stop
         stop-color="#0146a8"
         stop-opacity="0"
         id="stop3956"
         offset="1" />
    </linearGradient>
    <linearGradient
       y2="-147.97206"
       x2="387.75485"
       y1="-310.05496"
       x1="381.89471"
       gradientTransform="matrix(0.93571428,0,0,0.97142857,96.553265,671.01127)"
       gradientUnits="userSpaceOnUse"
       id="linearGradient5325"
       xlink:href="#linearGradient3917" />
    <linearGradient
       id="linearGradient3917">
      <stop
         stop-color="#edf4fd"
         stop-opacity="0.528455"
         id="stop3919"
         offset="0" />
      <stop
         stop-color="#175bb3"
         stop-opacity="0"
         id="stop3921"
         offset="1" />
    </linearGradient>
    <linearGradient
       xlink:href="#linearGradient3917"
       id="linearGradient3003"
       x1="0.47330701"
       y1="0.057916"
       x2="0.50002301"
       y2="1.219867" />
  </defs>
  <metadata
     id="metadata2970">image/svg+xml<rdf:RDF>
  <cc:Work
     rdf:about="">
    <dc:format>image/svg+xml</dc:format>
    <dc:type
       rdf:resource="http://purl.org/dc/dcmitype/StillImage" />
  </cc:Work>
</rdf:RDF>
</metadata>
  <g
     id="g16"
     transform="matrix(1,0,0,0.99347103,-27.341834,-27.635763)"
     style="fill:#f2f2f2">
    <title
       id="title18">Layer 1</title>
    <g
       id="layer1"
       style="fill:#f2f2f2">
      <g
         transform="matrix(0.75852693,0,0,0.75852693,57.261411,203.74467)"
         id="g5314"
         style="fill:#f2f2f2">
        <g
           id="g4126"
           transform="matrix(0.85187245,0,0,0.85187245,-241.81265,5.4599703)"
           style="fill:#f2f2f2">
          <path
             stroke-miterlimit="4"
             id="path4109"
             d="m 321.53037,-278.65713 c -2.19111,0.0823 -4.33783,0.49679 -6.3125,1.21875 -2.93903,1.06912 -5.3877,2.77774 -7.03125,4.90625 l -68.40625,88.78128 c -2.36475,3.06616 -2.86988,6.75238 -1.38672,10.11938 1.48315,3.36707 4.8114,6.08978 9.13672,7.47437 l 61.4375,-79.71878 c 1.63708,-2.14008 4.08642,-3.86005 7.03125,-4.9375 7.7398,-2.82239 17.05108,-0.63791 21.3125,5 l 60.25,79.53128 c 3.90008,-1.57178 6.7918,-4.26917 8.01635,-7.47766 1.22449,-3.20844 0.67749,-6.65473 -1.51635,-9.55359 l -67.53125,-89.12503 c -3.05121,-4.04096 -8.84882,-6.44455 -15,-6.21875 z"
             inkscape:connector-curvature="0"
             style="fill:#f2f2f2;stroke-width:1.89999998;stroke-miterlimit:4" />
          <path
             stroke-miterlimit="4"
             id="rect4116"
             d="m 321.20413,-237.91473 c -1.34289,0.0451 -2.66052,0.30017 -3.875,0.75 -1.81598,0.6784 -3.32922,1.76715 -4.34375,3.125 l -42.03125,56.40625 c -0.14526,0.18307 -0.28076,0.37072 -0.40625,0.5625 -0.01,0.0143 0.01,0.0481 0,0.0625 -0.0316,0.0311 -0.0627,0.0623 -0.0937,0.0937 -1.22729,1.8742 -1.90625,4.11355 -1.90625,6.53125 l 0,49.03125 c 0,6.59774 5.28308,11.90625 11.875,11.90625 l 24.5625,0 0,-42.90625 c 0,-6.59775 5.28308,-11.90625 11.875,-11.90625 l 9.125,0 c 6.59192,0 11.875,5.3085 11.875,11.90625 l 0,42.90625 24.53125,0 c 6.59192,0 11.90625,-5.30851 11.90625,-11.90625 l 0,-49.03125 c 0,-3.11646 -1.21203,-5.91297 -3.15625,-8.03125 l -40.75,-55.5625 c -1.87463,-2.5542 -5.42181,-4.07447 -9.1875,-3.9375 l -6e-5,6e-5 z"
             inkscape:connector-curvature="0"
             style="fill:#f2f2f2;stroke-width:1.89999998;stroke-miterlimit:4" />
          <rect
             stroke-miterlimit="4"
             ry="18.430635"
             rx="18.414331"
             y="-263.75253"
             x="270.88669"
             height="39.167156"
             width="22.716951"
             id="rect4124"
             style="fill:#f2f2f2;stroke-width:1.89999998;stroke-miterlimit:4" />
        </g>
      </g>
    </g>
  </g>
</svg>
