<?xml version="1.0" encoding="UTF-8" standalone="no"?>
<!-- Created with Inkscape (http://www.inkscape.org/) -->

<svg
   xmlns:dc="http://purl.org/dc/elements/1.1/"
   xmlns:cc="http://creativecommons.org/ns#"
   xmlns:rdf="http://www.w3.org/1999/02/22-rdf-syntax-ns#"
   xmlns:svg="http://www.w3.org/2000/svg"
   xmlns="http://www.w3.org/2000/svg"
   xmlns:xlink="http://www.w3.org/1999/xlink"
   xmlns:sodipodi="http://sodipodi.sourceforge.net/DTD/sodipodi-0.dtd"
   xmlns:inkscape="http://www.inkscape.org/namespaces/inkscape"
   width="110.4211"
   height="109.8461"
   id="svg2169"
   sodipodi:version="0.32"
   inkscape:version="0.48.2 r9819"
   version="1.0"
   sodipodi:docname="pylab.svg"
   inkscape:output_extension="org.inkscape.output.svg.inkscape">
  <defs
     id="defs2171">
    <linearGradient
       id="linearGradient11301"
       inkscape:collect="always">
      <stop
         id="stop11303"
         offset="0"
         style="stop-color:#ffe052;stop-opacity:1" />
      <stop
         id="stop11305"
         offset="1"
         style="stop-color:#ffc331;stop-opacity:1" />
    </linearGradient>
    <linearGradient
       gradientUnits="userSpaceOnUse"
       y2="168.1012"
       x2="147.77737"
       y1="111.92053"
       x1="89.136749"
       id="linearGradient11307"
       xlink:href="#linearGradient11301"
       inkscape:collect="always" />
    <linearGradient
       id="linearGradient9515"
       inkscape:collect="always">
      <stop
         id="stop9517"
         offset="0"
         style="stop-color:#387eb8;stop-opacity:1" />
      <stop
         id="stop9519"
         offset="1"
         style="stop-color:#366994;stop-opacity:1" />
    </linearGradient>
    <linearGradient
       gradientUnits="userSpaceOnUse"
       y2="131.85291"
       x2="110.14919"
       y1="77.070274"
       x1="55.549179"
       id="linearGradient9521"
       xlink:href="#linearGradient9515"
       inkscape:collect="always" />
  </defs>
  <sodipodi:namedview
     id="base"
     pagecolor="#ffffff"
     bordercolor="#666666"
     borderopacity="1.0"
     inkscape:pageopacity="0.0"
     inkscape:pageshadow="2"
     inkscape:zoom="3.9597979"
     inkscape:cx="26.490073"
     inkscape:cy="54.077385"
     inkscape:document-units="px"
     inkscape:current-layer="layer1"
     width="131.10236px"
     height="184.25197px"
     inkscape:window-width="1198"
     inkscape:window-height="810"
     inkscape:window-x="485"
     inkscape:window-y="150"
     showgrid="false"
     inkscape:window-maximized="0" />
  <metadata
     id="metadata2174">
    <rdf:RDF>
      <cc:Work
         rdf:about="">
        <dc:format>image/svg+xml</dc:format>
        <dc:type
           rdf:resource="http://purl.org/dc/dcmitype/StillImage" />
        <dc:title />
      </cc:Work>
    </rdf:RDF>
  </metadata>
  <g
     inkscape:label="Calque 1"
     inkscape:groupmode="layer"
     id="layer1"
     transform="translate(-473.36088,-251.72485)">
    <g
       id="g1894"
       transform="translate(428.42338,184.2561)">
      <path
         style="opacity:1;color:#000000;fill:url(#linearGradient9521);fill-opacity:1;fill-rule:nonzero;stroke:none;stroke-width:1;stroke-linecap:butt;stroke-linejoin:miter;marker:none;marker-start:none;marker-mid:none;marker-end:none;stroke-miterlimit:4;stroke-dasharray:none;stroke-dashoffset:0;stroke-opacity:1;visibility:visible;display:inline;overflow:visible"
         d="M 99.75,67.46875 C 71.718268,67.468752 73.46875,79.625 73.46875,79.625 L 73.5,92.21875 L 100.25,92.21875 L 100.25,96 L 62.875,96 C 62.875,96 44.9375,93.965724 44.9375,122.25 C 44.937498,150.53427 60.59375,149.53125 60.59375,149.53125 L 69.9375,149.53125 L 69.9375,136.40625 C 69.9375,136.40625 69.433848,120.75 85.34375,120.75 C 101.25365,120.75 111.875,120.75 111.875,120.75 C 111.875,120.75 126.78125,120.99096 126.78125,106.34375 C 126.78125,91.696544 126.78125,82.125 126.78125,82.125 C 126.78125,82.124998 129.04443,67.46875 99.75,67.46875 z M 85,75.9375 C 87.661429,75.937498 89.8125,78.088571 89.8125,80.75 C 89.812502,83.411429 87.661429,85.5625 85,85.5625 C 82.338571,85.562502 80.1875,83.411429 80.1875,80.75 C 80.187498,78.088571 82.338571,75.9375 85,75.9375 z "
         id="path8615" />
      <path
         id="path8620"
         d="M 100.5461,177.31485 C 128.57784,177.31485 126.82735,165.1586 126.82735,165.1586 L 126.7961,152.56485 L 100.0461,152.56485 L 100.0461,148.7836 L 137.4211,148.7836 C 137.4211,148.7836 155.3586,150.81787 155.3586,122.53359 C 155.35861,94.249323 139.70235,95.252343 139.70235,95.252343 L 130.3586,95.252343 L 130.3586,108.37734 C 130.3586,108.37734 130.86226,124.03359 114.95235,124.03359 C 99.042448,124.03359 88.421098,124.03359 88.421098,124.03359 C 88.421098,124.03359 73.514848,123.79263 73.514848,138.43985 C 73.514848,153.08705 73.514848,162.6586 73.514848,162.6586 C 73.514848,162.6586 71.251668,177.31485 100.5461,177.31485 z M 115.2961,168.8461 C 112.63467,168.8461 110.4836,166.69503 110.4836,164.0336 C 110.4836,161.37217 112.63467,159.2211 115.2961,159.2211 C 117.95753,159.2211 120.1086,161.37217 120.1086,164.0336 C 120.10861,166.69503 117.95753,168.8461 115.2961,168.8461 z "
         style="opacity:1;color:#000000;fill:url(#linearGradient11307);fill-opacity:1;fill-rule:nonzero;stroke:none;stroke-width:1;stroke-linecap:butt;stroke-linejoin:miter;marker:none;marker-start:none;marker-mid:none;marker-end:none;stroke-miterlimit:4;stroke-dasharray:none;stroke-dashoffset:0;stroke-opacity:1;visibility:visible;display:inline;overflow:visible" />
    </g>
    <path
       d="m 535.73909,283.07264 c 3.79124,3.72247 3.21903,6.53657 3.26022,11.04237 l 0.13017,14.22936 -18.46633,27.66226 c -4.46885,7.45051 -1.44568,14.73996 5.88404,14.3095 l 42.38623,0.0429 c 7.92266,-0.0333 10.81539,-7.37484 4.67538,-15.1106 l -17.51664,-26.83524 -0.32966,-14.25218 c -0.0412,-4.5058 -0.66483,-7.30893 3.0577,-11.10017 l -23.08111,0.0113 z"
       id="rect3162"
       stroke-miterlimit="4"
       inkscape:connector-curvature="0"
       style="fill:#f2f2f2;stroke:#5a5a5a;stroke-width:3.48164964;stroke-linecap:round;stroke-linejoin:round;stroke-miterlimit:4;stroke-opacity:1;stroke-dasharray:none;stroke-dashoffset:0;marker-start:none;marker-mid:none;marker-end:none" />
    <path
       d="m 554.57411,293.95847 -6.32816,0"
       id="path3180"
       stroke-miterlimit="4"
       inkscape:connector-curvature="0"
       style="fill:none;stroke:#585858;stroke-width:3.48171639;stroke-linecap:round;stroke-miterlimit:4;stroke-opacity:1" />
    <path
       id="path3182"
       d="m 555.15441,305.11989 -6.32819,0"
       stroke-miterlimit="4"
       inkscape:connector-curvature="0"
       style="fill:none;stroke:#585858;stroke-width:3.48171639;stroke-linecap:round;stroke-miterlimit:4;stroke-opacity:1" />
    <path
       d="m 531.46284,323.08248 -9.70102,14.48684 c -4.46345,5.40197 -1.38863,13.08742 8.53689,12.28796 0.51571,-0.0415 33.50083,-0.12935 33.50083,-0.12935 13.38,0.47781 12.74821,-8.91767 9.0543,-13.32274 l -8.92496,-13.06403 -32.46604,-0.25868 z"
       id="path3997"
       inkscape:connector-curvature="0"
       style="fill:#aad400;fill-rule:evenodd;stroke-width:1px" />
  </g>
</svg>
