<?xml version="1.0" encoding="UTF-8" standalone="no"?>
<!-- Created with Inkscape (http://www.inkscape.org/) -->

<svg
   xmlns:dc="http://purl.org/dc/elements/1.1/"
   xmlns:cc="http://creativecommons.org/ns#"
   xmlns:rdf="http://www.w3.org/1999/02/22-rdf-syntax-ns#"
   xmlns:svg="http://www.w3.org/2000/svg"
   xmlns="http://www.w3.org/2000/svg"
   xmlns:sodipodi="http://sodipodi.sourceforge.net/DTD/sodipodi-0.dtd"
   xmlns:inkscape="http://www.inkscape.org/namespaces/inkscape"
   version="1.0"
   width="123.0625"
   height="123.0625"
   id="svg2575"
   inkscape:version="0.48.2 r9819"
   sodipodi:docname="scale_m3.svg">
  <sodipodi:namedview
     pagecolor="#ffffff"
     bordercolor="#666666"
     borderopacity="1"
     objecttolerance="10"
     gridtolerance="10"
     guidetolerance="10"
     inkscape:pageopacity="0"
     inkscape:pageshadow="2"
     inkscape:window-width="1170"
     inkscape:window-height="752"
     id="namedview12"
     showgrid="false"
     inkscape:zoom="3.8354495"
     inkscape:cx="21.170685"
     inkscape:cy="53.186217"
     inkscape:window-x="88"
     inkscape:window-y="19"
     inkscape:window-maximized="0"
     inkscape:current-layer="layer1" />
  <defs
     id="defs2577" />
  <metadata
     id="metadata2580">
    <rdf:RDF>
      <cc:Work
         rdf:about="">
        <dc:format>image/svg+xml</dc:format>
        <dc:type
           rdf:resource="http://purl.org/dc/dcmitype/StillImage" />
        <dc:title />
      </cc:Work>
    </rdf:RDF>
  </metadata>
  <g
     transform="translate(-116.6875,-247.8125)"
     id="layer1">
    <rect
       width="122.05878"
       height="122.05878"
       x="117.18592"
       y="248.30763"
       id="rect2989"
       style="opacity:0;fill:none;stroke:#d1d1d1;stroke-width:1;stroke-linecap:butt;stroke-linejoin:miter;stroke-miterlimit:4;stroke-opacity:1;stroke-dasharray:none" />
    <g
       transform="scale(0.96550874,1.0357234)"
       style="font-size:73.39572906px;font-style:normal;font-variant:normal;font-weight:bold;font-stretch:normal;text-align:start;line-height:125%;letter-spacing:0px;word-spacing:0px;writing-mode:lr-tb;text-anchor:start;fill:#cccccc;fill-opacity:1;stroke:none;font-family:Courier New;-inkscape-font-specification:Courier New Bold"
       id="text3012" />
    <g
       style="font-size:127.36364746px;font-style:normal;font-variant:normal;font-weight:bold;font-stretch:normal;text-align:start;line-height:125%;letter-spacing:0px;word-spacing:0px;writing-mode:lr-tb;text-anchor:start;fill:#f2f2f2;fill-opacity:1;stroke:none;font-family:Calibri;-inkscape-font-specification:Calibri Bold"
       id="text2987">
      <path
         d="m 161.26473,314.485 c -3e-5,2.40468 -0.22806,4.08379 -0.68408,5.03733 -0.45609,0.95359 -1.18163,1.43038 -2.17662,1.43035 l -25.87074,0 c -1.0365,3e-5 -1.78277,-0.48712 -2.23882,-1.46145 -0.45606,-0.97427 -0.68408,-2.64301 -0.68408,-5.00623 0,-2.3217 0.22802,-3.95935 0.68408,-4.91296 0.45605,-0.95353 1.20232,-1.43031 2.23882,-1.43035 l 25.87074,0 c 0.49748,4e-5 0.92244,0.10369 1.27488,0.31095 0.35237,0.20733 0.65295,0.55974 0.90174,1.05721 0.24872,0.49755 0.42493,1.16091 0.52861,1.99006 0.10362,0.82922 0.15544,1.82425 0.15547,2.98509 z"
         style=""
         id="path2987" />
      <path
         d="m 224.07591,322.19647 c -6e-5,4.02159 -0.76706,7.58711 -2.30101,10.69655 -1.53405,3.10948 -3.66922,5.72142 -6.40549,7.83585 -2.73638,2.11444 -6.01168,3.721 -9.82591,4.81967 -3.81431,1.09868 -7.98099,1.64802 -12.50004,1.64802 -2.73636,0 -5.30685,-0.19694 -7.71148,-0.5908 -2.40467,-0.39387 -4.52946,-0.88101 -6.3744,-1.46145 -1.84496,-0.58043 -3.36859,-1.18159 -4.57091,-1.80349 -1.20233,-0.62189 -1.99006,-1.09867 -2.36319,-1.43035 -0.37314,-0.33167 -0.653,-0.70481 -0.83956,-1.11941 -0.18657,-0.41459 -0.35241,-0.90174 -0.49751,-1.46145 -0.14511,-0.55969 -0.24876,-1.2645 -0.31095,-2.11443 -0.0622,-0.84991 -0.0933,-1.87603 -0.0933,-3.07837 -1e-5,-1.99004 0.16583,-3.36857 0.49751,-4.13559 0.33167,-0.76698 0.82919,-1.15048 1.49255,-1.1505 0.41458,2e-5 1.12976,0.27987 2.14553,0.83956 1.01574,0.55971 2.31135,1.16088 3.88683,1.80348 1.57544,0.64264 3.42039,1.2438 5.53484,1.80349 2.11442,0.55972 4.51907,0.83957 7.21396,0.83956 2.28024,10e-6 4.29103,-0.26948 6.03236,-0.80846 1.74126,-0.53896 3.22344,-1.2956 4.44653,-2.26991 1.22302,-0.97428 2.13513,-2.15588 2.73633,-3.54479 0.60112,-1.38887 0.90171,-2.93324 0.90175,-4.6331 -4e-5,-1.86565 -0.36282,-3.54476 -1.08832,-5.03733 -0.72558,-1.49252 -1.80352,-2.76739 -3.23384,-3.82464 -1.43039,-1.05719 -3.23387,-1.87601 -5.41047,-2.45648 -2.17665,-0.5804 -4.73677,-0.87061 -7.68037,-0.87065 l -6.9652,0 c -0.53899,4e-5 -0.99505,-0.0725 -1.36817,-0.21766 -0.37315,-0.14508 -0.68409,-0.44566 -0.93284,-0.90175 -0.24877,-0.45601 -0.42497,-1.08827 -0.5286,-1.89677 -0.10367,-0.80842 -0.15549,-1.85527 -0.15548,-3.14056 -1e-5,-1.20228 0.0518,-2.18694 0.15548,-2.95399 0.10363,-0.76696 0.26947,-1.35775 0.49751,-1.77239 0.22801,-0.41455 0.51823,-0.70477 0.87065,-0.87065 0.35239,-0.16579 0.77735,-0.24871 1.27488,-0.24876 l 7.02739,0 c 2.40463,5e-5 4.53979,-0.27981 6.40549,-0.83956 1.86565,-0.55965 3.43075,-1.35775 4.69529,-2.39428 1.26449,-1.03644 2.22842,-2.29059 2.89181,-3.76245 0.66331,-1.47176 0.99499,-3.09905 0.99502,-4.88186 -3e-5,-1.36811 -0.22806,-2.66372 -0.68408,-3.88683 -0.45609,-1.223 -1.1298,-2.28021 -2.02115,-3.17166 -0.89141,-0.89131 -2.04191,-1.59612 -3.4515,-2.11443 -1.40966,-0.51818 -3.06804,-0.7773 -4.97515,-0.77737 -2.15592,7e-5 -4.18743,0.32138 -6.09455,0.96394 -1.90715,0.64269 -3.61736,1.3475 -5.13061,2.11443 -1.51329,0.76707 -2.79853,1.48224 -3.85574,2.14553 -1.05723,0.66342 -1.83459,0.99509 -2.3321,0.99503 -0.33168,6e-5 -0.6219,-0.0725 -0.87064,-0.21766 -0.24877,-0.14505 -0.45607,-0.4249 -0.6219,-0.83956 -0.16584,-0.41453 -0.29022,-1.01569 -0.37313,-1.80349 -0.0829,-0.78766 -0.12439,-1.80342 -0.12438,-3.04727 -1e-5,-1.03642 0.0207,-1.8967 0.0622,-2.58086 0.0414,-0.68401 0.12437,-1.25408 0.24875,-1.7102 0.12438,-0.45598 0.27985,-0.84985 0.46642,-1.1816 0.18656,-0.3316 0.48714,-0.69437 0.90175,-1.08831 0.41458,-0.39379 1.2645,-0.98459 2.54976,-1.7724 1.28523,-0.78765 2.90215,-1.55465 4.85076,-2.301 1.94858,-0.74619 4.19776,-1.37845 6.74754,-1.89677 2.54974,-0.51816 5.31716,-0.77729 8.30227,-0.77737 3.89716,8e-5 7.34866,0.45614 10.35451,1.36817 3.00577,0.91219 5.5348,2.22852 7.5871,3.94902 2.05219,1.72064 3.60692,3.83507 4.66419,6.3433 1.05717,2.50837 1.58577,5.33798 1.58583,8.48884 -6e-5,2.44617 -0.311,4.72644 -0.93284,6.84082 -0.62195,2.11449 -1.53406,4.00089 -2.73633,5.65922 -1.20237,1.65843 -2.70528,3.06806 -4.50872,4.22888 -1.80354,1.16091 -3.88687,2.03155 -6.25002,2.61195 l 0,0.18656 c 2.8192,0.33172 5.34823,1.0469 7.58709,2.14553 2.23876,1.09872 4.13553,2.47725 5.69032,4.13559 1.55467,1.65842 2.74663,3.53446 3.57588,5.62813 0.82913,2.09373 1.24373,4.34291 1.24379,6.74754 z"
         style=""
         id="path2989" />
    </g>
  </g>
</svg>
