<?xml version="1.0" encoding="UTF-8" standalone="no"?>
<!-- Created with Inkscape (http://www.inkscape.org/) -->

<svg
   xmlns:dc="http://purl.org/dc/elements/1.1/"
   xmlns:cc="http://creativecommons.org/ns#"
   xmlns:rdf="http://www.w3.org/1999/02/22-rdf-syntax-ns#"
   xmlns:svg="http://www.w3.org/2000/svg"
   xmlns="http://www.w3.org/2000/svg"
   xmlns:sodipodi="http://sodipodi.sourceforge.net/DTD/sodipodi-0.dtd"
   xmlns:inkscape="http://www.inkscape.org/namespaces/inkscape"
   version="1.0"
   width="123.0625"
   height="123.0625"
   id="svg2575"
   inkscape:version="0.48.2 r9819"
   sodipodi:docname="scale_p3.svg">
  <sodipodi:namedview
     pagecolor="#ffffff"
     bordercolor="#666666"
     borderopacity="1"
     objecttolerance="10"
     gridtolerance="10"
     guidetolerance="10"
     inkscape:pageopacity="0"
     inkscape:pageshadow="2"
     inkscape:window-width="1170"
     inkscape:window-height="752"
     id="namedview12"
     showgrid="false"
     inkscape:zoom="3.8354495"
     inkscape:cx="21.170685"
     inkscape:cy="53.186217"
     inkscape:window-x="88"
     inkscape:window-y="19"
     inkscape:window-maximized="0"
     inkscape:current-layer="layer1" />
  <defs
     id="defs2577" />
  <metadata
     id="metadata2580">
    <rdf:RDF>
      <cc:Work
         rdf:about="">
        <dc:format>image/svg+xml</dc:format>
        <dc:type
           rdf:resource="http://purl.org/dc/dcmitype/StillImage" />
        <dc:title />
      </cc:Work>
    </rdf:RDF>
  </metadata>
  <g
     transform="translate(-116.6875,-247.8125)"
     id="layer1">
    <rect
       width="122.05878"
       height="122.05878"
       x="117.18592"
       y="248.30763"
       id="rect2989"
       style="opacity:0;fill:none;stroke:#d1d1d1;stroke-width:1;stroke-linecap:butt;stroke-linejoin:miter;stroke-miterlimit:4;stroke-opacity:1;stroke-dasharray:none" />
    <g
       transform="scale(0.96550874,1.0357234)"
       style="font-size:73.39572906px;font-style:normal;font-variant:normal;font-weight:bold;font-stretch:normal;text-align:start;line-height:125%;letter-spacing:0px;word-spacing:0px;writing-mode:lr-tb;text-anchor:start;fill:#cccccc;fill-opacity:1;stroke:none;font-family:Courier New;-inkscape-font-specification:Courier New Bold"
       id="text3012" />
    <g
       style="font-size:127.36364746px;font-style:normal;font-variant:normal;font-weight:bold;font-stretch:normal;text-align:start;line-height:125%;letter-spacing:0px;word-spacing:0px;writing-mode:lr-tb;text-anchor:start;fill:#f2f2f2;fill-opacity:1;stroke:none;font-family:Calibri;-inkscape-font-specification:Calibri Bold"
       id="text2987">
      <path
         d="m 174.14706,309.48591 c -6e-5,1.16091 -0.0623,2.1352 -0.18657,2.9229 -0.12443,0.78776 -0.311,1.42002 -0.5597,1.89677 -0.24882,0.47682 -0.53903,0.81886 -0.87065,1.02613 -0.33173,0.20732 -0.68414,0.31097 -1.05722,0.31094 l -19.34086,0 0,21.08217 c -4e-5,0.4146 -0.10369,0.77737 -0.31095,1.08831 -0.20734,0.31096 -0.55974,0.58044 -1.05722,0.80846 -0.49755,0.22804 -1.1609,0.40424 -1.99005,0.52861 -0.82923,0.12439 -1.86572,0.18658 -3.10947,0.18657 -1.24381,10e-6 -2.2803,-0.0622 -3.10946,-0.18657 -0.82922,-0.12437 -1.49257,-0.30057 -1.99006,-0.52861 -0.49754,-0.22802 -0.86031,-0.4975 -1.08831,-0.80846 -0.22805,-0.31094 -0.34207,-0.67371 -0.34204,-1.08831 l 0,-21.08217 -19.27868,0 c -0.37314,3e-5 -0.71518,-0.10362 -1.02612,-0.31094 -0.31095,-0.20727 -0.59081,-0.54931 -0.83956,-1.02613 -0.24876,-0.47675 -0.44569,-1.10901 -0.5908,-1.89677 -0.14511,-0.7877 -0.21766,-1.76199 -0.21766,-2.9229 0,-1.11937 0.0622,-2.0833 0.18657,-2.8918 0.12437,-0.80842 0.30058,-1.45104 0.52861,-1.92786 0.22802,-0.47675 0.48714,-0.81879 0.77736,-1.02613 0.29021,-0.20725 0.62189,-0.3109 0.99503,-0.31094 l 19.46525,0 0,-21.01998 c -3e-5,-0.41453 0.11399,-0.79803 0.34204,-1.1505 0.228,-0.35234 0.59077,-0.64256 1.08831,-0.87065 0.49749,-0.22797 1.16084,-0.40417 1.99006,-0.52861 0.82916,-0.12431 1.86565,-0.1865 3.10946,-0.18657 1.24375,7e-5 2.28024,0.0623 3.10947,0.18657 0.82915,0.12444 1.4925,0.30064 1.99005,0.52861 0.49748,0.22809 0.84988,0.51831 1.05722,0.87065 0.20726,0.35247 0.31091,0.73597 0.31095,1.1505 l 0,21.01998 19.52743,0 c 0.33162,4e-5 0.65293,0.10369 0.96393,0.31094 0.31089,0.20734 0.58038,0.54938 0.80847,1.02613 0.22796,0.47682 0.40417,1.11944 0.5286,1.92786 0.12432,0.8085 0.18651,1.77243 0.18657,2.8918 z"
         style=""
         id="path2987" />
      <path
         d="m 236.46072,321.67501 c -6e-5,4.0216 -0.76706,7.58711 -2.301,10.69656 -1.53406,3.10947 -3.66922,5.72142 -6.4055,7.83585 -2.73637,2.11444 -6.01167,3.72099 -9.8259,4.81967 -3.81432,1.09867 -7.98099,1.64801 -12.50005,1.64801 -2.73635,0 -5.30684,-0.19693 -7.71147,-0.59079 -2.40467,-0.39387 -4.52947,-0.88102 -6.3744,-1.46145 -1.84496,-0.58043 -3.3686,-1.1816 -4.57091,-1.80349 -1.20234,-0.62189 -1.99007,-1.09867 -2.3632,-1.43035 -0.37314,-0.33168 -0.65299,-0.70481 -0.83955,-1.11941 -0.18658,-0.41459 -0.35241,-0.90174 -0.49752,-1.46145 -0.14511,-0.5597 -0.24876,-1.26451 -0.31094,-2.11444 -0.0622,-0.84991 -0.0933,-1.87603 -0.0933,-3.07836 0,-1.99005 0.16584,-3.36858 0.49752,-4.13559 0.33167,-0.76699 0.82918,-1.15049 1.49254,-1.1505 0.41459,10e-6 1.12976,0.27986 2.14553,0.83955 1.01575,0.55972 2.31136,1.16088 3.88683,1.80349 1.57545,0.64264 3.4204,1.2438 5.53485,1.80349 2.11441,0.55972 4.51906,0.83957 7.21395,0.83956 2.28025,10e-6 4.29103,-0.26948 6.03236,-0.80847 1.74127,-0.53896 3.22345,-1.29559 4.44654,-2.2699 1.22302,-0.97429 2.13512,-2.15588 2.73633,-3.54479 0.60112,-1.38888 0.9017,-2.93324 0.90174,-4.6331 -4e-5,-1.86566 -0.36281,-3.54477 -1.08831,-5.03734 -0.72558,-1.49251 -1.80353,-2.76739 -3.23384,-3.82464 -1.43039,-1.05718 -3.23388,-1.87601 -5.41047,-2.45647 -2.17665,-0.5804 -4.73678,-0.87062 -7.68038,-0.87065 l -6.9652,0 c -0.53899,3e-5 -0.99504,-0.0725 -1.36816,-0.21767 -0.37315,-0.14507 -0.6841,-0.44565 -0.93284,-0.90174 -0.24877,-0.45602 -0.42497,-1.08828 -0.52861,-1.89677 -0.10366,-0.80843 -0.15549,-1.85528 -0.15547,-3.14056 -2e-5,-1.20229 0.0518,-2.18695 0.15547,-2.95399 0.10364,-0.76696 0.26947,-1.35776 0.49751,-1.7724 0.22802,-0.41455 0.51823,-0.70476 0.87065,-0.87065 0.3524,-0.16579 0.77736,-0.24871 1.27488,-0.24875 l 7.02739,0 c 2.40463,4e-5 4.53979,-0.27981 6.4055,-0.83956 1.86565,-0.55966 3.43074,-1.35775 4.69529,-2.39429 1.26448,-1.03643 2.22841,-2.29058 2.8918,-3.76245 0.66332,-1.47176 0.99499,-3.09904 0.99503,-4.88186 -4e-5,-1.3681 -0.22806,-2.66371 -0.68408,-3.88683 -0.45609,-1.22299 -1.12981,-2.28021 -2.02115,-3.17165 -0.89142,-0.89131 -2.04192,-1.59612 -3.45151,-2.11444 -1.40965,-0.51817 -3.06803,-0.77729 -4.97514,-0.77736 -2.15592,7e-5 -4.18744,0.32138 -6.09455,0.96393 -1.90716,0.64269 -3.61736,1.3475 -5.13062,2.11444 -1.51328,0.76706 -2.79853,1.48224 -3.85573,2.14553 -1.05723,0.66341 -1.8346,0.99509 -2.3321,0.99503 -0.33168,6e-5 -0.6219,-0.0725 -0.87065,-0.21767 -0.24876,-0.14504 -0.45606,-0.42489 -0.62189,-0.83955 -0.16585,-0.41453 -0.29023,-1.0157 -0.37314,-1.80349 -0.0829,-0.78767 -0.12438,-1.80342 -0.12438,-3.04728 0,-1.03641 0.0207,-1.8967 0.0622,-2.58085 0.0414,-0.68401 0.12437,-1.25408 0.24876,-1.71021 0.12437,-0.45598 0.27984,-0.84984 0.46642,-1.18159 0.18656,-0.3316 0.48714,-0.69437 0.90174,-1.08832 0.41459,-0.39378 1.26451,-0.98458 2.54976,-1.77239 1.28524,-0.78765 2.90216,-1.55465 4.85077,-2.301 1.94858,-0.74619 4.19775,-1.37845 6.74754,-1.89678 2.54973,-0.51816 5.31715,-0.77728 8.30226,-0.77736 3.89716,8e-5 7.34867,0.45613 10.35452,1.36816 3.00577,0.91219 5.5348,2.22853 7.58709,3.94902 2.0522,1.72065 3.60693,3.83508 4.6642,6.34331 1.05716,2.50837 1.58577,5.33798 1.58582,8.48883 -5e-5,2.44618 -0.311,4.72645 -0.93283,6.84083 -0.62195,2.11448 -1.53406,4.00089 -2.73633,5.65922 -1.20238,1.65843 -2.70529,3.06805 -4.50873,4.22887 -1.80353,1.16091 -3.88687,2.03156 -6.25002,2.61195 l 0,0.18657 c 2.8192,0.33172 5.34823,1.04689 7.58709,2.14553 2.23877,1.09872 4.13554,2.47724 5.69032,4.13559 1.55468,1.65841 2.74664,3.53445 3.57589,5.62813 0.82913,2.09373 1.24372,4.34291 1.24378,6.74753 z"
         style=""
         id="path2989" />
    </g>
  </g>
</svg>
