<?xml version="1.0" encoding="UTF-8" standalone="no"?>
<!-- Created with Inkscape (http://www.inkscape.org/) -->

<svg
   xmlns:dc="http://purl.org/dc/elements/1.1/"
   xmlns:cc="http://creativecommons.org/ns#"
   xmlns:rdf="http://www.w3.org/1999/02/22-rdf-syntax-ns#"
   xmlns:svg="http://www.w3.org/2000/svg"
   xmlns="http://www.w3.org/2000/svg"
   xmlns:sodipodi="http://sodipodi.sourceforge.net/DTD/sodipodi-0.dtd"
   xmlns:inkscape="http://www.inkscape.org/namespaces/inkscape"
   version="1.0"
   width="123.0625"
   height="123.0625"
   id="svg2575"
   inkscape:version="0.48.2 r9819"
   sodipodi:docname="scale_p4.svg">
  <sodipodi:namedview
     pagecolor="#ffffff"
     bordercolor="#666666"
     borderopacity="1"
     objecttolerance="10"
     gridtolerance="10"
     guidetolerance="10"
     inkscape:pageopacity="0"
     inkscape:pageshadow="2"
     inkscape:window-width="640"
     inkscape:window-height="480"
     id="namedview10"
     showgrid="false"
     inkscape:zoom="1.9177247"
     inkscape:cx="61.53125"
     inkscape:cy="61.53125"
     inkscape:window-x="0"
     inkscape:window-y="0"
     inkscape:window-maximized="0"
     inkscape:current-layer="layer1" />
  <defs
     id="defs2577" />
  <metadata
     id="metadata2580">
    <rdf:RDF>
      <cc:Work
         rdf:about="">
        <dc:format>image/svg+xml</dc:format>
        <dc:type
           rdf:resource="http://purl.org/dc/dcmitype/StillImage" />
        <dc:title />
      </cc:Work>
    </rdf:RDF>
  </metadata>
  <g
     transform="translate(-116.6875,-247.8125)"
     id="layer1">
    <path
       style="opacity:0;fill:none;stroke:#d1d1d1;stroke-width:1;stroke-linecap:butt;stroke-linejoin:miter;stroke-miterlimit:4;stroke-opacity:1"
       d="m 117.18592,248.30763 122.05878,0 0,122.05878 -122.05878,0 z"
       id="rect2989" />
    <g
       transform="scale(0.96550874,1.0357234)"
       id="text3012"
       style="font-size:73.39572906px;font-style:normal;font-variant:normal;font-weight:bold;font-stretch:normal;text-align:start;line-height:125%;letter-spacing:0px;word-spacing:0px;writing-mode:lr-tb;text-anchor:start;fill:#cccccc;fill-opacity:1;stroke:none;font-family:Courier New;-inkscape-font-specification:Courier New Bold" />
    <g
       style="font-size:127.36364746px;font-style:normal;font-variant:normal;font-weight:bold;font-stretch:normal;text-align:start;line-height:125%;letter-spacing:0px;word-spacing:0px;writing-mode:lr-tb;text-anchor:start;fill:#f2f2f2;fill-opacity:1;stroke:none;font-family:Calibri;-inkscape-font-specification:Calibri Bold"
       id="text2987">
      <path
         d="m 174.14706,309.48591 c -6e-5,1.16091 -0.0623,2.1352 -0.18657,2.9229 -0.12443,0.78776 -0.311,1.42002 -0.5597,1.89677 -0.24882,0.47682 -0.53903,0.81886 -0.87065,1.02613 -0.33173,0.20732 -0.68414,0.31097 -1.05722,0.31094 l -19.34086,0 0,21.08217 c -4e-5,0.4146 -0.10369,0.77737 -0.31095,1.08831 -0.20734,0.31096 -0.55974,0.58044 -1.05722,0.80846 -0.49755,0.22804 -1.1609,0.40424 -1.99005,0.52861 -0.82923,0.12439 -1.86572,0.18658 -3.10947,0.18657 -1.24381,10e-6 -2.2803,-0.0622 -3.10946,-0.18657 -0.82922,-0.12437 -1.49257,-0.30057 -1.99006,-0.52861 -0.49754,-0.22802 -0.86031,-0.4975 -1.08831,-0.80846 -0.22805,-0.31094 -0.34207,-0.67371 -0.34204,-1.08831 l 0,-21.08217 -19.27868,0 c -0.37314,3e-5 -0.71518,-0.10362 -1.02612,-0.31094 -0.31095,-0.20727 -0.59081,-0.54931 -0.83956,-1.02613 -0.24876,-0.47675 -0.44569,-1.10901 -0.5908,-1.89677 -0.14511,-0.7877 -0.21766,-1.76199 -0.21766,-2.9229 0,-1.11937 0.0622,-2.0833 0.18657,-2.8918 0.12437,-0.80842 0.30058,-1.45104 0.52861,-1.92786 0.22802,-0.47675 0.48714,-0.81879 0.77736,-1.02613 0.29021,-0.20725 0.62189,-0.3109 0.99503,-0.31094 l 19.46525,0 0,-21.01998 c -3e-5,-0.41453 0.11399,-0.79803 0.34204,-1.1505 0.228,-0.35234 0.59077,-0.64256 1.08831,-0.87065 0.49749,-0.22797 1.16084,-0.40417 1.99006,-0.52861 0.82916,-0.12431 1.86565,-0.1865 3.10946,-0.18657 1.24375,7e-5 2.28024,0.0623 3.10947,0.18657 0.82915,0.12444 1.4925,0.30064 1.99005,0.52861 0.49748,0.22809 0.84988,0.51831 1.05722,0.87065 0.20726,0.35247 0.31091,0.73597 0.31095,1.1505 l 0,21.01998 19.52743,0 c 0.33162,4e-5 0.65293,0.10369 0.96393,0.31094 0.31089,0.20734 0.58038,0.54938 0.80847,1.02613 0.22796,0.47682 0.40417,1.11944 0.5286,1.92786 0.12432,0.8085 0.18651,1.77243 0.18657,2.8918 z"
         style=""
         id="path2989" />
      <path
         d="m 239.32143,322.11034 c -6e-5,2.11446 -0.21773,3.72101 -0.65299,4.81967 -0.43538,1.09869 -1.02618,1.64803 -1.77239,1.64801 l -7.15177,0 0,14.5523 c -5e-5,0.41459 -0.12443,0.77736 -0.37314,1.08831 -0.2488,0.31094 -0.68413,0.57007 -1.30597,0.77736 -0.62194,0.2073 -1.4304,0.36277 -2.42538,0.46642 -0.99508,0.10365 -2.28032,0.15548 -3.85574,0.15548 -1.49258,0 -2.74673,-0.0518 -3.76245,-0.15548 -1.0158,-0.10365 -1.82426,-0.25912 -2.42538,-0.46642 -0.6012,-0.20729 -1.0158,-0.46642 -1.24379,-0.77736 -0.22806,-0.31095 -0.34207,-0.67372 -0.34204,-1.08831 l 0,-14.5523 -30.78369,0 c -0.58044,2e-5 -1.09868,-0.0725 -1.55473,-0.21766 -0.45606,-0.14509 -0.83956,-0.47677 -1.15051,-0.99503 -0.31095,-0.51822 -0.53897,-1.26449 -0.68408,-2.23881 -0.14511,-0.97428 -0.21766,-2.26989 -0.21766,-3.88683 0,-1.32668 0.0311,-2.47718 0.0933,-3.45151 0.0622,-0.97427 0.16584,-1.85528 0.31095,-2.64304 0.14511,-0.7877 0.3524,-1.53397 0.62189,-2.23882 0.26949,-0.70477 0.61153,-1.45104 1.02613,-2.23881 l 25.00009,-44.0922 c 0.20726,-0.37306 0.55967,-0.69437 1.05721,-0.96393 0.49749,-0.26941 1.19193,-0.49744 2.08335,-0.68409 0.89134,-0.18648 2.02111,-0.32123 3.38931,-0.40423 1.36813,-0.0828 3.02651,-0.12429 4.97514,-0.12437 2.1144,8e-5 3.91788,0.0519 5.41047,0.15547 1.4925,0.10373 2.68446,0.26957 3.57588,0.49751 0.89133,0.22811 1.54432,0.50796 1.95897,0.83956 0.41454,0.33175 0.62184,0.72562 0.62189,1.18159 l 0,48.44545 7.15177,0 c 0.66329,3e-5 1.23336,0.50791 1.7102,1.52364 0.47673,1.01579 0.71512,2.70526 0.71518,5.06843 z m -25.31104,-43.59469 -0.12438,0 -21.20654,37.00262 21.33092,0 z"
         style=""
         id="path2991" />
    </g>
  </g>
</svg>
