<?xml version="1.0" encoding="UTF-8" standalone="no"?>
<!-- Created with Inkscape (http://www.inkscape.org/) -->

<svg
   xmlns:dc="http://purl.org/dc/elements/1.1/"
   xmlns:cc="http://creativecommons.org/ns#"
   xmlns:rdf="http://www.w3.org/1999/02/22-rdf-syntax-ns#"
   xmlns:svg="http://www.w3.org/2000/svg"
   xmlns="http://www.w3.org/2000/svg"
   xmlns:sodipodi="http://sodipodi.sourceforge.net/DTD/sodipodi-0.dtd"
   xmlns:inkscape="http://www.inkscape.org/namespaces/inkscape"
   version="1.0"
   width="716.54242"
   height="716.54242"
   viewBox="0 0 20212.911 28600.451"
   id="svg2"
   style="fill-rule:evenodd"
   inkscape:version="0.48.2 r9819"
   sodipodi:docname="stop.svg">
  <sodipodi:namedview
     pagecolor="#ffffff"
     bordercolor="#666666"
     borderopacity="1"
     objecttolerance="10"
     gridtolerance="10"
     guidetolerance="10"
     inkscape:pageopacity="0"
     inkscape:pageshadow="2"
     inkscape:window-width="640"
     inkscape:window-height="480"
     id="namedview56"
     showgrid="false"
     inkscape:zoom="0.32935943"
     inkscape:cx="358.27121"
     inkscape:cy="358.27121"
     inkscape:window-x="0"
     inkscape:window-y="0"
     inkscape:window-maximized="0"
     inkscape:current-layer="svg2" />
  <defs
     id="defs155" />
  <metadata
     id="metadata4">
    <rdf:RDF>
      <cc:Work
         rdf:about="">
        <dc:title />
        <dc:description>stop sign</dc:description>
        <dc:subject>
          <rdf:Bag>
            <rdf:li>traffic</rdf:li>
            <rdf:li>stop</rdf:li>
            <rdf:li>sing</rdf:li>
          </rdf:Bag>
        </dc:subject>
        <dc:publisher>
          <cc:Agent
             rdf:about="http://www.openclipart.org/">
            <dc:title>Open Clip Art Library</dc:title>
          </cc:Agent>
        </dc:publisher>
        <dc:creator>
          <cc:Agent>
            <dc:title>miguel sanchez</dc:title>
          </cc:Agent>
        </dc:creator>
        <dc:rights>
          <cc:Agent>
            <dc:title>miguel sanchez</dc:title>
          </cc:Agent>
        </dc:rights>
        <dc:date />
        <dc:format>image/svg+xml</dc:format>
        <dc:type
           rdf:resource="http://purl.org/dc/dcmitype/StillImage" />
        <cc:license
           rdf:resource="http://web.resource.org/cc/PublicDomain" />
        <dc:language>en</dc:language>
      </cc:Work>
      <cc:License
         rdf:about="http://web.resource.org/cc/PublicDomain">
        <cc:permits
           rdf:resource="http://web.resource.org/cc/Reproduction" />
        <cc:permits
           rdf:resource="http://web.resource.org/cc/Distribution" />
        <cc:permits
           rdf:resource="http://web.resource.org/cc/DerivativeWorks" />
      </cc:License>
    </rdf:RDF>
  </metadata>
  <g
     transform="translate(-126.36345,-525.79771)"
     id="Predeterminado"
     style="visibility:visible">
    <desc
       id="desc7">Master slide</desc>
  </g>
  <g
     transform="matrix(2.9093464,0,0,2.9093464,-21367.229,-22204.798)"
     id="g56"
     style="fill:none;stroke:#f3f3f3;stroke-width:529.54193115;stroke-linecap:round;stroke-linejoin:round;stroke-miterlimit:4;stroke-opacity:1;stroke-dasharray:none;visibility:visible">
    <desc
       id="desc58">Drawing</desc>
    <g
       id="g60"
       style="fill:none;stroke:#f3f3f3;stroke-width:529.54193115;stroke-linecap:round;stroke-linejoin:round;stroke-miterlimit:4;stroke-opacity:1;stroke-dasharray:none">
      <g
         id="g62"
         style="fill:none;stroke:#f3f3f3;stroke-width:529.54193115;stroke-linecap:round;stroke-linejoin:round;stroke-miterlimit:4;stroke-opacity:1;stroke-dasharray:none">
        <path
           d="m 8902,8047 3891,0 2555,2555 0,3891 -2555,2555 -3891,0 -2555,-2555 0,-3891 2555,-2555 z"
           id="path64"
           style="fill:none;stroke:#f3f3f3;stroke-width:529.54193115;stroke-linecap:round;stroke-linejoin:round;stroke-miterlimit:4;stroke-opacity:1;stroke-dasharray:none" />
      </g>
      <g
         id="g66"
         style="fill:none;stroke:#f3f3f3;stroke-width:529.54193115;stroke-linecap:round;stroke-linejoin:round;stroke-miterlimit:4;stroke-opacity:1;stroke-dasharray:none">
        <path
           d="m 8902,7897 3891,0 0,150 0,150 -3891,0 0,-150 0,-150 z"
           id="path68"
           style="fill:none;stroke:#f3f3f3;stroke-width:529.54193115;stroke-linecap:round;stroke-linejoin:round;stroke-miterlimit:4;stroke-opacity:1;stroke-dasharray:none" />
        <path
           d="m 12793,8047 0,-150 26,2 25,7 24,11 21,15 10,9 -106,106 z"
           id="path70"
           style="fill:none;stroke:#f3f3f3;stroke-width:529.54193115;stroke-linecap:round;stroke-linejoin:round;stroke-miterlimit:4;stroke-opacity:1;stroke-dasharray:none" />
        <path
           d="m 12899,7941 2555,2555 -106,106 -106,106 -2555,-2555 106,-106 106,-106 z"
           id="path72"
           style="fill:none;stroke:#f3f3f3;stroke-width:529.54193115;stroke-linecap:round;stroke-linejoin:round;stroke-miterlimit:4;stroke-opacity:1;stroke-dasharray:none" />
        <path
           d="m 15348,10602 106,-106 17,20 13,23 9,24 4,26 1,13 -150,0 z"
           id="path74"
           style="fill:none;stroke:#f3f3f3;stroke-width:529.54193115;stroke-linecap:round;stroke-linejoin:round;stroke-miterlimit:4;stroke-opacity:1;stroke-dasharray:none" />
        <path
           d="m 15498,10602 0,3891 -150,0 -150,0 0,-3891 150,0 150,0 z"
           id="path76"
           style="fill:none;stroke:#f3f3f3;stroke-width:529.54193115;stroke-linecap:round;stroke-linejoin:round;stroke-miterlimit:4;stroke-opacity:1;stroke-dasharray:none" />
        <path
           d="m 15348,14493 150,0 -2,26 -7,25 -11,24 -15,21 -9,10 -106,-106 z"
           id="path78"
           style="fill:none;stroke:#f3f3f3;stroke-width:529.54193115;stroke-linecap:round;stroke-linejoin:round;stroke-miterlimit:4;stroke-opacity:1;stroke-dasharray:none" />
        <path
           d="m 15454,14599 -2555,2555 -106,-106 -106,-106 2555,-2555 106,106 106,106 z"
           id="path80"
           style="fill:none;stroke:#f3f3f3;stroke-width:529.54193115;stroke-linecap:round;stroke-linejoin:round;stroke-miterlimit:4;stroke-opacity:1;stroke-dasharray:none" />
        <path
           d="m 12793,17048 106,106 -20,17 -23,13 -24,9 -26,4 -13,1 0,-150 z"
           id="path82"
           style="fill:none;stroke:#f3f3f3;stroke-width:529.54193115;stroke-linecap:round;stroke-linejoin:round;stroke-miterlimit:4;stroke-opacity:1;stroke-dasharray:none" />
        <path
           d="m 12793,17198 -3891,0 0,-150 0,-150 3891,0 0,150 0,150 z"
           id="path84"
           style="fill:none;stroke:#f3f3f3;stroke-width:529.54193115;stroke-linecap:round;stroke-linejoin:round;stroke-miterlimit:4;stroke-opacity:1;stroke-dasharray:none" />
        <path
           d="m 8902,17048 0,150 -26,-2 -25,-7 -24,-11 -21,-15 -10,-9 106,-106 z"
           id="path86"
           style="fill:none;stroke:#f3f3f3;stroke-width:529.54193115;stroke-linecap:round;stroke-linejoin:round;stroke-miterlimit:4;stroke-opacity:1;stroke-dasharray:none" />
        <path
           d="m 8796,17154 -2555,-2555 106,-106 106,-106 2555,2555 -106,106 -106,106 z"
           id="path88"
           style="fill:none;stroke:#f3f3f3;stroke-width:529.54193115;stroke-linecap:round;stroke-linejoin:round;stroke-miterlimit:4;stroke-opacity:1;stroke-dasharray:none" />
        <path
           d="m 6347,14493 -106,106 -17,-20 -13,-23 -9,-24 -4,-26 -1,-13 150,0 z"
           id="path90"
           style="fill:none;stroke:#f3f3f3;stroke-width:529.54193115;stroke-linecap:round;stroke-linejoin:round;stroke-miterlimit:4;stroke-opacity:1;stroke-dasharray:none" />
        <path
           d="m 6197,14493 0,-3891 150,0 150,0 0,3891 -150,0 -150,0 z"
           id="path92"
           style="fill:none;stroke:#f3f3f3;stroke-width:529.54193115;stroke-linecap:round;stroke-linejoin:round;stroke-miterlimit:4;stroke-opacity:1;stroke-dasharray:none" />
        <path
           d="m 6347,10602 -150,0 2,-26 7,-25 11,-24 15,-21 9,-10 106,106 z"
           id="path94"
           style="fill:none;stroke:#f3f3f3;stroke-width:529.54193115;stroke-linecap:round;stroke-linejoin:round;stroke-miterlimit:4;stroke-opacity:1;stroke-dasharray:none" />
        <path
           d="m 6241,10496 2555,-2555 106,106 106,106 -2555,2555 -106,-106 -106,-106 z"
           id="path96"
           style="fill:none;stroke:#f3f3f3;stroke-width:529.54193115;stroke-linecap:round;stroke-linejoin:round;stroke-miterlimit:4;stroke-opacity:1;stroke-dasharray:none" />
        <path
           d="m 8902,8047 -106,-106 20,-17 23,-13 24,-9 26,-4 13,-1 0,150 z"
           id="path98"
           style="fill:none;stroke:#f3f3f3;stroke-width:529.54193115;stroke-linecap:round;stroke-linejoin:round;stroke-miterlimit:4;stroke-opacity:1;stroke-dasharray:none" />
      </g>
      <g
         id="g100"
         style="fill:none;stroke:#f3f3f3;stroke-width:529.54193115;stroke-linecap:round;stroke-linejoin:round;stroke-miterlimit:4;stroke-opacity:1;stroke-dasharray:none" />
    </g>
  </g>
  <g
     transform="matrix(2.0448312,0,0,1.6884795,-12270.476,-6578.7492)"
     id="g102"
     style="fill:#f2f2f2;visibility:visible">
    <desc
       id="desc104">Group</desc>
    <g
       id="g106"
       style="fill:#f2f2f2">
      <desc
         id="desc108">Drawing</desc>
      <g
         id="g110"
         style="fill:#f2f2f2">
        <g
           id="g112"
           style="fill:#f2f2f2;stroke:none">
          <path
             d="m 6851,13061 428,-62 11,77 14,71 15,66 19,61 21,56 23,51 25,45 28,40 15,18 16,16 16,16 17,14 18,14 18,12 19,11 20,10 20,8 21,8 22,6 22,6 23,4 23,3 49,2 52,-2 48,-6 23,-5 22,-6 21,-7 21,-7 20,-9 18,-10 19,-11 17,-12 16,-13 16,-13 15,-15 14,-16 25,-34 21,-35 18,-37 15,-38 11,-39 8,-41 5,-42 2,-44 -1,-27 -1,-27 -3,-26 -5,-25 -6,-24 -8,-22 -9,-22 -11,-20 -13,-20 -14,-18 -17,-19 -19,-17 -20,-18 -23,-16 -26,-16 -27,-16 -50,-22 -76,-31 -226,-84 -85,-33 -78,-35 -72,-37 -66,-39 -59,-41 -52,-42 -46,-44 -39,-46 -46,-69 -41,-72 -34,-75 -28,-79 -22,-82 -15,-85 -10,-89 -3,-93 1,-61 5,-60 7,-59 11,-58 13,-57 16,-56 19,-55 22,-54 25,-51 28,-49 30,-45 33,-42 35,-39 38,-36 40,-32 42,-29 46,-26 48,-23 51,-19 52,-15 54,-12 57,-9 59,-5 62,-2 100,4 93,12 44,9 43,12 41,13 39,15 38,18 36,19 35,22 33,23 31,26 30,28 28,30 26,32 49,69 43,75 37,79 30,86 25,91 18,96 12,102 5,108 -440,28 -8,-60 -10,-55 -12,-50 -14,-47 -17,-42 -18,-38 -20,-34 -11,-15 -11,-15 -12,-13 -13,-12 -14,-11 -14,-11 -15,-9 -15,-9 -17,-8 -17,-7 -18,-6 -18,-6 -39,-8 -43,-5 -45,-2 -46,2 -44,5 -42,9 -19,6 -19,7 -19,7 -18,9 -17,10 -16,10 -16,11 -15,13 -14,13 -14,14 -9,10 -7,10 -8,10 -7,11 -6,11 -5,11 -6,12 -4,13 -8,25 -5,28 -3,29 -1,30 1,27 3,27 5,26 7,25 9,23 11,23 14,22 16,21 11,13 13,13 15,13 17,13 39,26 47,27 54,26 61,27 146,54 150,57 67,28 62,29 57,29 51,29 46,29 41,30 38,32 35,34 33,37 31,39 29,42 27,45 25,47 23,51 20,53 18,57 15,59 13,62 9,65 7,69 5,70 1,74 -2,69 -5,67 -8,66 -11,65 -15,64 -18,62 -21,62 -24,60 -28,59 -30,54 -33,51 -35,47 -38,43 -41,38 -43,35 -46,31 -49,27 -52,23 -55,20 -58,16 -61,13 -64,9 -67,5 -70,2 -100,-4 -94,-13 -45,-10 -43,-12 -42,-14 -41,-17 -39,-18 -37,-21 -36,-23 -34,-25 -33,-27 -32,-30 -30,-31 -28,-34 -53,-73 -46,-77 -40,-76 -33,-72 -62,-160 -30,-360 z"
             id="path114"
             style="fill:#f2f2f2"
             inkscape:connector-curvature="0" />
        </g>
        <g
           id="g116"
           style="fill:#f2f2f2" />
      </g>
    </g>
    <g
       id="g118"
       style="fill:#f2f2f2">
      <desc
         id="desc120">Drawing</desc>
      <g
         id="g122"
         style="fill:#f2f2f2">
        <g
           id="g124"
           style="fill:#f2f2f2;stroke:none">
          <path
             d="m 9483,14102 0,-2660 -646,0 0,-541 1731,0 0,541 -646,0 0,2660 0,0 -439,0 z"
             id="path126"
             style="fill:#f2f2f2"
             inkscape:connector-curvature="0" />
        </g>
        <g
           id="g128"
           style="fill:#f2f2f2" />
      </g>
    </g>
    <g
       id="g130"
       style="fill:#f2f2f2">
      <desc
         id="desc132">Drawing</desc>
      <g
         id="g134"
         style="fill:#f2f2f2">
        <g
           id="g136"
           style="fill:#f2f2f2;stroke:none">
          <path
             d="m 11215,12499 3,132 8,124 13,116 19,107 24,99 30,90 35,83 19,38 21,36 44,66 23,30 24,27 25,25 25,24 26,20 27,19 27,16 29,15 28,12 30,10 30,7 31,6 32,3 32,1 33,-1 32,-3 31,-6 30,-7 30,-10 29,-12 28,-14 28,-17 26,-18 26,-21 25,-23 25,-25 23,-27 23,-30 44,-65 20,-36 19,-38 35,-82 28,-91 24,-100 18,-109 14,-118 7,-126 3,-135 -3,-133 -7,-124 -13,-116 -18,-107 -23,-98 -28,-90 -33,-81 -18,-38 -20,-35 -43,-64 -23,-28 -23,-27 -25,-24 -25,-22 -26,-20 -27,-18 -28,-16 -28,-13 -30,-12 -30,-9 -31,-8 -32,-5 -33,-3 -34,-1 -34,1 -33,3 -31,6 -32,7 -30,10 -29,11 -29,14 -28,17 -27,18 -26,20 -25,23 -24,24 -24,27 -23,29 -43,65 -39,72 -33,76 -29,77 -24,72 -31,115 -8,34 -2,9 -1,2 0,1 0,0 0,0 0,0 0,0 0,367 z m -452,23 6,-234 8,-111 10,-105 14,-100 17,-96 21,-91 23,-85 20,-60 21,-59 22,-57 25,-56 26,-54 28,-52 29,-51 32,-50 33,-47 33,-44 34,-40 34,-38 36,-34 36,-32 36,-27 38,-25 52,-30 54,-26 56,-22 58,-17 60,-14 62,-10 64,-6 66,-2 59,2 58,5 56,8 55,12 53,16 52,19 50,22 49,26 48,29 46,32 44,36 43,39 42,43 40,46 38,50 37,53 68,115 58,126 50,136 41,148 32,158 23,169 13,180 5,190 -4,189 -14,178 -22,167 -32,157 -40,146 -50,136 -58,125 -68,115 -37,53 -38,50 -39,46 -41,42 -43,40 -44,36 -46,32 -47,29 -49,26 -50,22 -52,18 -53,16 -55,12 -57,8 -58,5 -59,2 -60,-2 -58,-5 -56,-8 -55,-12 -54,-15 -52,-19 -51,-22 -49,-26 -47,-29 -46,-32 -45,-36 -43,-39 -41,-42 -40,-46 -38,-49 -37,-53 -67,-113 -58,-118 -49,-116 -40,-108 -72,-236 0,-509 z"
             id="path138"
             style="fill:#f2f2f2"
             inkscape:connector-curvature="0" />
        </g>
        <g
           id="g140"
           style="fill:#f2f2f2" />
      </g>
    </g>
    <g
       id="g142"
       style="fill:#f2f2f2">
      <desc
         id="desc144">Drawing</desc>
      <g
         id="g146"
         style="fill:#f2f2f2">
        <g
           id="g148"
           style="fill:#f2f2f2;stroke:none">
          <path
             d="m 13659,11442 0,909 240,0 120,-3 52,-4 46,-5 41,-7 35,-9 30,-10 13,-5 12,-6 21,-14 20,-15 19,-18 18,-18 17,-21 15,-22 15,-24 13,-26 11,-27 10,-29 9,-29 7,-31 5,-31 4,-34 2,-34 1,-36 -1,-42 -3,-40 -6,-39 -7,-36 -10,-35 -12,-33 -14,-32 -17,-29 -18,-28 -19,-24 -20,-22 -22,-20 -11,-8 -12,-8 -12,-7 -12,-7 -12,-6 -13,-5 -13,-4 -14,-4 -22,-5 -26,-4 -32,-4 -37,-3 -89,-5 -108,-1 0,0 -214,0 z m -440,2660 0,-3201 706,0 183,3 149,9 61,6 52,9 44,9 18,6 16,6 23,10 23,11 22,12 22,14 21,14 21,17 40,36 38,42 37,47 34,52 33,57 30,63 25,68 22,71 18,76 13,81 10,85 6,89 2,94 -1,71 -3,69 -6,66 -8,63 -10,60 -12,58 -15,54 -17,52 -19,49 -20,46 -22,44 -22,40 -24,39 -25,35 -26,33 -28,30 -28,28 -28,25 -28,23 -28,20 -29,17 -28,16 -29,12 -29,11 -42,11 -46,9 -50,8 -55,7 -123,9 -140,3 -288,0 0,1206 0,0 -440,0 z"
             id="path150"
             style="fill:#f2f2f2"
             inkscape:connector-curvature="0" />
        </g>
        <g
           id="g152"
           style="fill:#f2f2f2" />
      </g>
    </g>
  </g>
</svg>
