<?xml version="1.0" encoding="UTF-8" standalone="no"?>
<!-- Created with Inkscape (http://www.inkscape.org/) -->

<svg
   xmlns:dc="http://purl.org/dc/elements/1.1/"
   xmlns:cc="http://creativecommons.org/ns#"
   xmlns:rdf="http://www.w3.org/1999/02/22-rdf-syntax-ns#"
   xmlns:svg="http://www.w3.org/2000/svg"
   xmlns="http://www.w3.org/2000/svg"
   xmlns:xlink="http://www.w3.org/1999/xlink"
   xmlns:sodipodi="http://sodipodi.sourceforge.net/DTD/sodipodi-0.dtd"
   xmlns:inkscape="http://www.inkscape.org/namespaces/inkscape"
   version="1.1"
   width="533.57501"
   height="533.57501"
   id="svg12215"
   inkscape:version="0.48.2 r9819"
   sodipodi:docname="bash.svg">
  <sodipodi:namedview
     pagecolor="#ffffff"
     bordercolor="#666666"
     borderopacity="1"
     objecttolerance="10"
     gridtolerance="10"
     guidetolerance="10"
     inkscape:pageopacity="0"
     inkscape:pageshadow="2"
     inkscape:window-width="572"
     inkscape:window-height="545"
     id="namedview14"
     showgrid="false"
     inkscape:zoom="0.44229957"
     inkscape:cx="346.53095"
     inkscape:cy="266.78751"
     inkscape:window-x="1198"
     inkscape:window-y="72"
     inkscape:window-maximized="0"
     inkscape:current-layer="svg12215" />
  <defs
     id="defs12217">
    <linearGradient
       id="linearGradient12975">
      <stop
         id="stop12977"
         style="stop-color:#ffffff;stop-opacity:1"
         offset="0" />
      <stop
         id="stop12979"
         style="stop-color:#d2d5d8;stop-opacity:1"
         offset="1" />
    </linearGradient>
    <filter
       color-interpolation-filters="sRGB"
       id="filter12971">
      <feGaussianBlur
         id="feGaussianBlur12973"
         stdDeviation="3.2250001" />
    </filter>
    <linearGradient
       x1="-113.21428"
       y1="601.64789"
       x2="-144.28572"
       y2="700.20581"
       id="linearGradient12981"
       xlink:href="#linearGradient12975"
       gradientUnits="userSpaceOnUse"
       gradientTransform="matrix(4.7719882,0,0,4.7719882,896.75599,-2714.7514)" />
  </defs>
  <metadata
     id="metadata12220">
    <rdf:RDF>
      <cc:Work
         rdf:about="">
        <dc:format>image/svg+xml</dc:format>
        <dc:type
           rdf:resource="http://purl.org/dc/dcmitype/StillImage" />
        <dc:title></dc:title>
        <cc:license
           rdf:resource="http://creativecommons.org/licenses/publicdomain/" />
        <dc:creator>
          <cc:Agent>
            <dc:title>Sergio Luiz Araujo Silva</dc:title>
          </cc:Agent>
        </dc:creator>
        <dc:subject>
          <rdf:Bag>
            <rdf:li>search</rdf:li>
            <rdf:li>icons</rdf:li>
            <rdf:li>informatic</rdf:li>
            <rdf:li>computer</rdf:li>
          </rdf:Bag>
        </dc:subject>
      </cc:Work>
      <cc:License
         rdf:about="http://creativecommons.org/licenses/publicdomain/">
        <cc:permits
           rdf:resource="http://creativecommons.org/ns#Reproduction" />
        <cc:permits
           rdf:resource="http://creativecommons.org/ns#Distribution" />
        <cc:permits
           rdf:resource="http://creativecommons.org/ns#DerivativeWorks" />
      </cc:License>
    </rdf:RDF>
  </metadata>
  <rect
     style="fill:#000000;fill-opacity:1;stroke:#ffffff;stroke-width:22.87744141;stroke-linecap:butt;stroke-linejoin:miter;stroke-miterlimit:4;stroke-opacity:1;stroke-dasharray:none"
     id="rect3761"
     width="498.76138"
     height="491.88809"
     x="16.231079"
     y="18.582561"
     ry="41.35342" />
  <g
     transform="scale(1.0363754,0.96490131)"
     style="font-size:152.14242554px;font-style:normal;font-variant:normal;font-weight:bold;font-stretch:normal;text-align:start;line-height:125%;letter-spacing:0px;word-spacing:0px;writing-mode:lr-tb;text-anchor:start;fill:#ffffff;fill-opacity:1;stroke:none;font-family:Arial;-inkscape-font-specification:Arial Bold"
     id="text3765">
    <path
       d="m 70.257908,170.60115 0,-108.906638 20.875011,0 0,39.224218 c 6.438281,-7.3297 14.065201,-10.994586 22.880791,-10.994666 9.60789,8e-5 17.55673,3.479245 23.84655,10.437506 6.28965,6.9584 9.43452,16.95016 9.43461,29.97533 -9e-5,13.47097 -3.20686,23.84655 -9.62034,31.12679 -6.41362,7.28026 -14.2015,10.92038 -23.36366,10.92038 -4.50688,0 -8.95179,-1.12671 -13.33475,-3.38012 -4.383048,-2.25341 -8.159366,-5.58399 -11.328967,-9.99177 l 0,11.58897 z m 20.726434,-41.15571 c -3.1e-5,8.17174 1.287632,14.21385 3.862992,18.12634 3.615325,5.54688 8.419296,8.3203 14.411926,8.32029 4.60582,1e-5 8.53072,-1.96862 11.7747,-5.90592 3.24386,-3.93726 4.86581,-10.14032 4.86588,-18.60922 -7e-5,-9.0136 -1.63441,-15.51382 -4.90303,-19.50068 -3.26874,-3.98674 -7.45364,-5.98014 -12.55472,-5.9802 -5.00212,6e-5 -9.162261,1.94394 -12.480432,5.83163 -3.318243,3.88781 -4.977347,9.79372 -4.977316,17.71776 z"
       style="font-family:Arial;-inkscape-font-specification:Arial Bold"
       id="path3788" />
    <path
       d="m 179.75885,115.77639 -18.94351,-3.41726 c 2.12958,-7.62687 5.79447,-13.272772 10.99466,-16.937733 5.20016,-3.66481 12.92614,-5.497253 23.17795,-5.497333 9.31075,8e-5 16.24432,1.102022 20.80072,3.305829 4.55629,2.203961 7.76306,5.00215 9.62034,8.394577 1.85713,3.39256 2.78573,9.62039 2.78581,18.68351 l -0.22287,24.36656 c -7e-5,6.93359 0.33423,12.04709 1.0029,15.34053 0.66851,3.29345 1.91903,6.82214 3.75155,10.58608 l -20.65214,0 c -0.54484,-1.38671 -1.21343,-3.44202 -2.00579,-6.16593 -0.34673,-1.23813 -0.59436,-2.0553 -0.74288,-2.45151 -3.56589,3.46679 -7.37935,6.06688 -11.4404,7.80027 -4.06113,1.73339 -8.39461,2.60009 -13.00045,2.60009 -8.12221,0 -14.52338,-2.20389 -19.20352,-6.61166 -4.68017,-4.40776 -7.02025,-9.97938 -7.02024,-16.71486 -1e-5,-4.45728 1.06479,-8.4317 3.19439,-11.92328 2.12959,-3.49151 5.1135,-6.16588 8.95174,-8.02313 3.83821,-1.85717 9.37268,-3.47912 16.60344,-4.86588 9.75648,-1.8324 16.51671,-3.54103 20.2807,-5.1259 l 0,-2.08007 c -5e-5,-4.01151 -0.99056,-6.87161 -2.97153,-8.5803 -1.98107,-1.70856 -5.72025,-2.56288 -11.21753,-2.56294 -3.71446,6e-5 -6.6117,0.73056 -8.69173,2.1915 -2.08011,1.46107 -3.76397,4.02401 -5.05161,7.68884 z m 27.9324,16.93773 c -2.67443,0.8915 -6.90886,1.9563 -12.7033,3.1944 -5.79452,1.23817 -9.58322,2.45154 -11.36611,3.64012 -2.72393,1.93153 -4.08588,4.38304 -4.08585,7.35454 -3e-5,2.92203 1.08953,5.44783 3.26868,7.57741 2.17909,2.12961 4.95252,3.19441 8.32029,3.1944 3.7639,1e-5 7.3545,-1.23813 10.7718,-3.71442 2.52575,-1.88195 4.18486,-4.18488 4.97732,-6.90881 0.54473,-1.78289 0.81712,-5.17539 0.81717,-10.17749 z"
       style="font-family:Arial;-inkscape-font-specification:Arial Bold"
       id="path3790" />
    <path
       d="m 241.49243,148.0918 20.9493,-3.1944 c 0.89143,4.06112 2.69911,7.14408 5.42304,9.24889 2.72387,2.10485 6.53734,3.15727 11.4404,3.15726 5.39824,1e-5 9.45932,-0.9905 12.18328,-2.97154 1.83239,-1.38669 2.74861,-3.2439 2.74867,-5.57162 -6e-5,-1.58479 -0.49531,-2.89722 -1.48577,-3.93728 -1.04009,-0.99048 -3.36779,-1.9067 -6.9831,-2.74866 -16.83871,-3.71439 -27.51145,-7.10688 -32.01825,-10.1775 -6.24023,-4.25915 -9.36033,-10.17745 -9.36033,-17.7549 0,-6.83446 2.69913,-12.57942 8.09743,-17.234887 5.39826,-4.655321 13.76806,-6.983019 25.10944,-6.983099 10.79651,8e-5 18.81964,1.758235 24.06941,5.274468 5.24963,3.516385 8.86499,8.716558 10.84609,15.600538 l -19.6864,3.64013 c -0.84199,-3.07052 -2.43919,-5.42298 -4.7916,-7.05739 -2.35251,-1.63428 -5.70786,-2.45145 -10.06606,-2.45151 -5.49737,6e-5 -9.43464,0.76771 -11.81184,2.30294 -1.58484,1.08962 -2.37725,2.5011 -2.37722,4.23443 -3e-5,1.48582 0.69333,2.74872 2.08007,3.7887 1.88194,1.38677 8.38216,3.34303 19.50068,5.86878 11.11842,2.52585 18.88154,5.62119 23.28938,9.28603 4.35817,3.71445 6.53729,8.88987 6.53737,15.52626 -8e-5,7.23074 -3.02114,13.44619 -9.06318,18.64636 -6.04217,5.20018 -14.98152,7.80027 -26.81807,7.80027 -10.74707,0 -19.25307,-2.17912 -25.51803,-6.53737 -6.26499,-4.35824 -10.36322,-10.27653 -12.29471,-17.7549 z"
       style="font-family:Arial;-inkscape-font-specification:Arial Bold"
       id="path3792" />
    <path
       d="m 354.33632,61.694512 0,40.041388 c 6.73543,-7.87448 14.78332,-11.811756 24.1437,-11.811836 4.80391,8e-5 9.13739,0.891539 13.00045,2.674378 3.86292,1.782995 6.77254,4.061167 8.72887,6.834523 1.95618,2.773495 3.29337,5.844075 4.01157,9.211745 0.71804,3.3678 1.0771,8.59274 1.07718,15.67483 l 0,46.28161 -20.87501,0 0,-41.67573 c -6e-5,-8.27072 -0.39627,-13.52042 -1.18861,-15.74912 -0.79247,-2.22859 -2.19157,-3.99913 -4.19729,-5.31161 -2.00584,-1.31237 -4.51926,-1.96858 -7.54026,-1.96864 -3.46684,6e-5 -6.56218,0.84199 -9.28604,2.5258 -2.72394,1.68393 -4.71734,4.22211 -5.98021,7.61455 -1.26293,3.39255 -1.89438,8.407 -1.89435,15.04338 l 0,39.52137 -20.87501,0 0,-108.906638 z"
       style="font-family:Arial;-inkscape-font-specification:Arial Bold"
       id="path3794" />
  </g>
  <g
     transform="scale(0.92776953,1.0778539)"
     style="font-size:219.40013123px;font-style:normal;font-variant:normal;font-weight:bold;font-stretch:normal;text-align:start;line-height:125%;letter-spacing:0px;word-spacing:0px;writing-mode:lr-tb;text-anchor:start;fill:#ffffff;fill-opacity:1;stroke:none;font-family:Courier New;-inkscape-font-specification:Courier New Bold"
     id="text3765-1">
    <path
       d="M 160.16265,286.14197 89.029012,246.71851 c -3.57098,-1.99963 -5.94567,-3.78512 -7.124077,-5.35645 -1.178428,-1.57111 -1.767637,-3.57085 -1.767628,-5.99922 -9e-6,-3.07091 1.106989,-5.71342 3.320998,-7.92754 2.213984,-2.21388 4.820787,-3.32088 7.820415,-3.321 1.85688,1.2e-4 4.71365,1.0357 8.570318,3.10674 L 205.79959,286.14197 99.849038,345.06291 c -3.856668,2.14258 -6.713438,3.21387 -8.570318,3.21387 -2.999628,0 -5.606431,-1.107 -7.820415,-3.321 -2.214009,-2.21399 -3.321007,-4.89222 -3.320998,-8.03467 -9e-6,-2.42825 0.5892,-4.42799 1.767628,-5.99923 1.178407,-1.5712 3.553097,-3.35668 7.124077,-5.35645 z"
       style=""
       id="path3797" />
    <path
       d="m 329.3193,414.58961 -120.62722,0 c -5.28503,-7e-5 -9.0524,-0.99994 -11.30211,-2.99961 -2.2497,-1.9998 -3.37455,-4.64232 -3.37456,-7.92755 1e-5,-3.28534 1.12486,-5.9457 3.37456,-7.9811 2.24971,-2.0355 6.01708,-3.05322 11.30211,-3.05318 l 120.62722,0 c 5.21348,-4e-5 8.94513,1.01768 11.19498,3.05318 2.24956,2.0354 3.37442,4.69576 3.37456,7.9811 -1.4e-4,3.21381 -1.10714,5.83847 -3.321,7.87398 -2.21413,2.03539 -5.96364,3.05311 -11.24854,3.05318 z"
       style=""
       id="path3799" />
  </g>
</svg>
