<?xml version="1.0" encoding="UTF-8" standalone="no"?>
<!-- Created with Inkscape (http://www.inkscape.org/) -->

<svg
   xmlns:dc="http://purl.org/dc/elements/1.1/"
   xmlns:cc="http://creativecommons.org/ns#"
   xmlns:rdf="http://www.w3.org/1999/02/22-rdf-syntax-ns#"
   xmlns:svg="http://www.w3.org/2000/svg"
   xmlns="http://www.w3.org/2000/svg"
   xmlns:xlink="http://www.w3.org/1999/xlink"
   xmlns:sodipodi="http://sodipodi.sourceforge.net/DTD/sodipodi-0.dtd"
   xmlns:inkscape="http://www.inkscape.org/namespaces/inkscape"
   version="1.1"
   width="533.57501"
   height="533.57501"
   id="svg12215"
   inkscape:version="0.48.2 r9819"
   sodipodi:docname="dos.svg">
  <sodipodi:namedview
     pagecolor="#ffffff"
     bordercolor="#666666"
     borderopacity="1"
     objecttolerance="10"
     gridtolerance="10"
     guidetolerance="10"
     inkscape:pageopacity="0"
     inkscape:pageshadow="2"
     inkscape:window-width="640"
     inkscape:window-height="480"
     id="namedview14"
     showgrid="false"
     inkscape:zoom="0.44229957"
     inkscape:cx="452.37926"
     inkscape:cy="266.78751"
     inkscape:window-x="0"
     inkscape:window-y="0"
     inkscape:window-maximized="0"
     inkscape:current-layer="svg12215" />
  <defs
     id="defs12217">
    <linearGradient
       id="linearGradient12975">
      <stop
         id="stop12977"
         style="stop-color:#ffffff;stop-opacity:1"
         offset="0" />
      <stop
         id="stop12979"
         style="stop-color:#d2d5d8;stop-opacity:1"
         offset="1" />
    </linearGradient>
    <filter
       color-interpolation-filters="sRGB"
       id="filter12971">
      <feGaussianBlur
         stdDeviation="3.2250001"
         id="feGaussianBlur12973" />
    </filter>
    <linearGradient
       x1="-113.21428"
       y1="601.64789"
       x2="-144.28572"
       y2="700.20581"
       id="linearGradient12981"
       xlink:href="#linearGradient12975"
       gradientUnits="userSpaceOnUse"
       gradientTransform="matrix(4.7719882,0,0,4.7719882,896.75599,-2714.7514)" />
  </defs>
  <metadata
     id="metadata12220">
    <rdf:RDF>
      <cc:Work
         rdf:about="">
        <dc:format>image/svg+xml</dc:format>
        <dc:type
           rdf:resource="http://purl.org/dc/dcmitype/StillImage" />
        <dc:title />
        <cc:license
           rdf:resource="http://creativecommons.org/licenses/publicdomain/" />
        <dc:creator>
          <cc:Agent>
            <dc:title>Sergio Luiz Araujo Silva</dc:title>
          </cc:Agent>
        </dc:creator>
        <dc:subject>
          <rdf:Bag>
            <rdf:li>search</rdf:li>
            <rdf:li>icons</rdf:li>
            <rdf:li>informatic</rdf:li>
            <rdf:li>computer</rdf:li>
          </rdf:Bag>
        </dc:subject>
      </cc:Work>
      <cc:License
         rdf:about="http://creativecommons.org/licenses/publicdomain/">
        <cc:permits
           rdf:resource="http://creativecommons.org/ns#Reproduction" />
        <cc:permits
           rdf:resource="http://creativecommons.org/ns#Distribution" />
        <cc:permits
           rdf:resource="http://creativecommons.org/ns#DerivativeWorks" />
      </cc:License>
    </rdf:RDF>
  </metadata>
  <rect
     width="498.76138"
     height="491.88809"
     ry="41.35342"
     x="16.231079"
     y="18.582561"
     id="rect3761"
     style="fill:#000000;fill-opacity:1;stroke:#ffffff;stroke-width:22.87744141;stroke-linecap:butt;stroke-linejoin:miter;stroke-miterlimit:4;stroke-opacity:1;stroke-dasharray:none" />
  <g
     transform="scale(0.97790549,1.0225937)"
     style="font-size:153.10845947px;font-style:normal;font-variant:normal;font-weight:bold;font-stretch:normal;text-align:start;line-height:125%;letter-spacing:0px;word-spacing:0px;writing-mode:lr-tb;text-anchor:start;fill:#ffffff;fill-opacity:1;stroke:none;font-family:Arial;-inkscape-font-specification:Arial Bold"
     id="text3765">
    <path
       d="m 71.852446,70.196426 40.445154,0 c 9.12066,1.09e-4 16.07333,0.697868 20.85804,2.093279 6.42928,1.894026 11.93659,5.258222 16.52196,10.092599 4.58518,4.834572 8.07398,10.753065 10.46639,17.755496 2.39222,7.00259 3.58838,15.63736 3.58848,25.90434 -1e-4,9.02108 -1.1215,16.79611 -3.3642,23.32512 -2.74129,7.97442 -6.65373,14.42869 -11.73731,19.36283 -3.83777,3.73801 -9.02112,6.65365 -15.55008,8.74692 -4.88439,1.54504 -11.41342,2.31756 -19.58712,2.31756 l -41.641314,0 z m 22.128957,18.540477 0,72.591947 16.521957,0 c 6.1801,2e-5 10.64078,-0.34886 13.38204,-1.04664 3.58841,-0.8971 6.56635,-2.41721 8.93382,-4.56036 2.36732,-2.14309 4.29862,-5.66927 5.7939,-10.57853 1.49512,-4.9092 2.24272,-11.60022 2.2428,-20.07306 -8e-5,-8.47274 -0.74768,-14.97685 -2.2428,-19.51236 -1.49528,-4.53536 -3.58856,-8.073996 -6.27984,-10.615918 -2.69143,-2.541752 -6.10547,-4.26123 -10.24212,-5.158439 -3.09014,-0.697669 -9.14569,-1.046549 -18.16668,-1.04664 z"
       style="font-family:Arial;-inkscape-font-specification:Arial Bold"
       id="path3039" />
    <path
       d="m 178.08639,125.66834 c -1e-5,-11.1641 1.66963,-20.534 5.00892,-28.109758 2.49198,-5.581991 5.89356,-10.590906 10.20474,-15.026758 4.31113,-4.435658 9.03347,-7.725094 14.16702,-9.868319 6.82803,-2.890609 14.70274,-4.335968 23.62415,-4.336079 16.14808,1.11e-4 29.06909,5.009026 38.76306,15.026758 9.69377,10.017925 14.5407,23.948186 14.54082,41.790836 -1.2e-4,17.69323 -4.80967,31.53628 -14.42868,41.52917 -9.61921,9.99292 -22.47792,14.98938 -38.57616,14.98938 -16.29772,0 -29.2561,-4.97154 -38.87519,-14.91462 -9.61913,-9.94305 -14.42869,-23.63658 -14.42868,-41.08061 z m 22.8018,-0.7476 c -3e-5,12.4102 2.86576,21.81749 8.5974,28.22189 5.73155,6.40446 13.00818,9.60668 21.82991,9.60666 8.82161,2e-5 16.06086,-3.17728 21.71778,-9.5319 5.65675,-6.35456 8.48517,-15.88645 8.48526,-28.59569 -9e-5,-12.55961 -2.75375,-21.92952 -8.26098,-28.109758 -5.5074,-6.18007 -12.82141,-9.270146 -21.94206,-9.270239 -9.12077,9.3e-5 -16.47216,3.127549 -22.05419,9.382379 -5.58212,6.254998 -8.37315,15.687208 -8.37312,28.296658 z"
       style="font-family:Arial;-inkscape-font-specification:Arial Bold"
       id="path3041" />
    <path
       d="m 295.9829,144.13406 21.53087,-2.09328 c 1.29581,7.22683 3.92487,12.53478 7.88718,15.92387 3.96224,3.38914 9.30758,5.0837 16.03602,5.08368 7.12706,2e-5 12.49731,-1.50764 16.11078,-4.52298 3.61333,-3.01529 5.42002,-6.54147 5.4201,-10.57853 -8e-5,-2.59165 -0.76013,-4.79707 -2.28018,-6.61626 -1.52019,-1.81912 -4.17417,-3.40154 -7.96194,-4.74726 -2.59174,-0.89708 -8.49777,-2.49196 -17.71812,-4.78464 -11.86195,-2.94051 -20.18522,-6.55391 -24.96984,-10.8402 -6.72841,-6.03058 -10.0926,-13.38197 -10.09259,-22.054198 -10e-6,-5.581993 1.5824,-10.802727 4.74725,-15.662218 3.16483,-4.859298 7.72518,-8.559914 13.68108,-11.101859 5.95585,-2.541729 13.14526,-3.812648 21.56826,-3.812759 13.75578,1.11e-4 24.11002,3.015428 31.06278,9.045959 6.95259,6.030735 10.60336,14.079886 10.95233,24.147475 l -22.12895,0.97188 c -0.94703,-5.631835 -2.97801,-9.68133 -6.09294,-12.148497 -3.11506,-2.466988 -7.78756,-3.700526 -14.0175,-3.70062 -6.4294,9.4e-5 -11.46324,1.320852 -15.10152,3.96228 -2.34251,1.694647 -3.51375,3.962365 -3.51372,6.803159 -3e-5,2.591758 1.09645,4.809638 3.28944,6.653638 2.79101,2.34255 9.56924,4.78471 20.33472,7.32648 10.76537,2.54191 18.7273,5.17096 23.88582,7.88718 5.15835,2.71634 9.19539,6.42941 12.11111,11.13924 2.91555,4.70992 4.37337,10.52873 4.37346,17.45646 -9e-5,6.27986 -1.74449,12.16097 -5.2332,17.64335 -3.48888,5.48241 -8.42303,9.55683 -14.80247,12.22326 -6.37959,2.66644 -14.32906,3.99966 -23.84844,3.99966 -13.85555,0 -24.49638,-3.20222 -31.92252,-9.60666 -7.42617,-6.40442 -11.86192,-15.73695 -13.30727,-27.99761 z"
       style="font-family:Arial;-inkscape-font-specification:Arial Bold"
       id="path3043" />
  </g>
  <g
     transform="scale(0.92121808,1.0855193)"
     style="font-size:190.53445435px;font-style:normal;font-variant:normal;font-weight:bold;font-stretch:normal;text-align:start;line-height:125%;letter-spacing:0px;word-spacing:0px;writing-mode:lr-tb;text-anchor:start;fill:#ffffff;fill-opacity:1;stroke:none;font-family:Courier New;-inkscape-font-specification:Courier New Bold"
     id="text3765-4">
    <path
       d="M 147.74964,297.22656 85.974794,262.9899 c -3.101159,-1.73655 -5.163419,-3.28712 -6.186787,-4.65172 -1.023387,-1.36441 -1.535076,-3.10105 -1.535068,-5.20992 -8e-6,-2.66689 0.961347,-4.96173 2.884066,-6.88455 1.922699,-1.9226 4.186534,-2.88396 6.791512,-2.88406 1.612577,1e-4 4.093492,0.89944 7.442752,2.69799 l 92.011021,51.16892 -92.011021,51.16893 c -3.34926,1.86068 -5.830175,2.79103 -7.442752,2.79103 -2.604978,0 -4.868813,-0.96136 -6.791512,-2.88407 -1.922719,-1.92271 -2.884074,-4.24856 -2.884066,-6.97758 -8e-6,-2.10877 0.511681,-3.84541 1.535068,-5.20993 1.023368,-1.36448 3.085628,-2.91506 6.186787,-4.65172 z"
       style=""
       id="path3034" />
    <path
       d="m 294.65096,408.77481 -104.75674,0 c -4.5897,-6e-5 -7.8614,-0.86838 -9.81513,-2.60496 -1.95371,-1.7367 -2.93057,-4.03154 -2.93058,-6.88455 1e-5,-2.8531 0.97687,-5.16345 2.93058,-6.93106 1.95373,-1.76769 5.22543,-2.65152 9.81513,-2.65148 l 104.75674,0 c 4.52756,-4e-5 7.76825,0.88379 9.72209,2.65148 1.9536,1.76761 2.93046,4.07796 2.93059,6.93106 -1.3e-4,2.79098 -0.96148,5.07032 -2.88407,6.83803 -1.92283,1.7676 -5.17903,2.65142 -9.76861,2.65148 z"
       style=""
       id="path3036" />
  </g>
</svg>
