<?xml version="1.0" encoding="UTF-8" standalone="no"?>
<!-- Created with Inkscape (http://www.inkscape.org/) -->

<svg
   xmlns:dc="http://purl.org/dc/elements/1.1/"
   xmlns:cc="http://creativecommons.org/ns#"
   xmlns:rdf="http://www.w3.org/1999/02/22-rdf-syntax-ns#"
   xmlns:svg="http://www.w3.org/2000/svg"
   xmlns="http://www.w3.org/2000/svg"
   xmlns:xlink="http://www.w3.org/1999/xlink"
   xmlns:sodipodi="http://sodipodi.sourceforge.net/DTD/sodipodi-0.dtd"
   xmlns:inkscape="http://www.inkscape.org/namespaces/inkscape"
   version="1.0"
   width="60"
   height="60"
   id="svg1"
   inkscape:version="0.48.2 r9819"
   sodipodi:docname="formula.svg">
  <sodipodi:namedview
     pagecolor="#ffffff"
     bordercolor="#666666"
     borderopacity="1"
     objecttolerance="10"
     gridtolerance="10"
     guidetolerance="10"
     inkscape:pageopacity="0"
     inkscape:pageshadow="2"
     inkscape:window-width="708"
     inkscape:window-height="480"
     id="namedview15"
     showgrid="false"
     showguides="true"
     inkscape:guide-bbox="true"
     inkscape:zoom="3.9333333"
     inkscape:cx="30"
     inkscape:cy="30"
     inkscape:window-x="953"
     inkscape:window-y="193"
     inkscape:window-maximized="0"
     inkscape:current-layer="svg1" />
  <metadata
     id="metadata3">
    <rdf:RDF>
      <cc:Work
         rdf:about="">
        <dc:title></dc:title>
        <dc:description />
        <dc:subject>
          <rdf:Bag>
            <rdf:li>hash</rdf:li>
            <rdf:li />
            <rdf:li>action</rdf:li>
            <rdf:li>computer</rdf:li>
            <rdf:li>icons</rdf:li>
            <rdf:li>theme</rdf:li>
          </rdf:Bag>
        </dc:subject>
        <dc:publisher>
          <cc:Agent
             rdf:about="http://www.openclipart.org">
            <dc:title>Danny Allen</dc:title>
          </cc:Agent>
        </dc:publisher>
        <dc:creator>
          <cc:Agent>
            <dc:title>Danny Allen</dc:title>
          </cc:Agent>
        </dc:creator>
        <dc:rights>
          <cc:Agent>
            <dc:title>Danny Allen</dc:title>
          </cc:Agent>
        </dc:rights>
        <dc:date />
        <dc:format>image/svg+xml</dc:format>
        <dc:type
           rdf:resource="http://purl.org/dc/dcmitype/StillImage" />
        <cc:license
           rdf:resource="http://web.resource.org/cc/PublicDomain" />
        <dc:language>en</dc:language>
      </cc:Work>
      <cc:License
         rdf:about="http://web.resource.org/cc/PublicDomain">
        <cc:permits
           rdf:resource="http://web.resource.org/cc/Reproduction" />
        <cc:permits
           rdf:resource="http://web.resource.org/cc/Distribution" />
        <cc:permits
           rdf:resource="http://web.resource.org/cc/DerivativeWorks" />
      </cc:License>
    </rdf:RDF>
  </metadata>
  <defs
     id="defs3">
    <linearGradient
       id="linearGradient900">
      <stop
         id="stop901"
         style="stop-color:#000000;stop-opacity:1"
         offset="0" />
      <stop
         id="stop902"
         style="stop-color:#ffffff;stop-opacity:1"
         offset="1" />
    </linearGradient>
    <linearGradient
       id="linearGradient903"
       xlink:href="#linearGradient900" />
    <linearGradient
       id="linearGradient904"
       xlink:href="#linearGradient900" />
    <linearGradient
       id="linearGradient905"
       xlink:href="#linearGradient900" />
    <linearGradient
       id="linearGradient906"
       xlink:href="#linearGradient900" />
    <linearGradient
       id="linearGradient907"
       xlink:href="#linearGradient900" />
  </defs>
  <path
     d="m 30.662377,47.458904 3.434985,-3.700185 -2.083723,-2.247896 c -0.505145,-0.538821 -0.846117,-0.905051 -1.022918,-1.09869 -0.168382,-0.202057 -0.298878,-0.399905 -0.391487,-0.593544 -0.09261,-0.202059 -0.138915,-0.429373 -0.138915,-0.681946 0,-0.606174 0.197848,-1.10711 0.593545,-1.502806 0.395697,-0.395697 0.841908,-0.593545 1.338634,-0.593545 0.479888,0 0.858746,0.06735 1.136576,0.202057 0.27783,0.134706 0.564078,0.395697 0.858746,0.782975 l 2.146865,2.689897 2.146866,-2.689897 c 0.311506,-0.387278 0.601965,-0.648269 0.871375,-0.782975 0.269411,-0.134704 0.64406,-0.202057 1.123947,-0.202057 0.496726,0 0.942938,0.193639 1.338635,0.580917 0.395696,0.387277 0.593544,0.892422 0.593544,1.515434 0,0.252573 -0.0463,0.479887 -0.138914,0.681946 -0.09261,0.193639 -0.227315,0.391487 -0.404116,0.593544 -0.168382,0.193639 -0.505145,0.559869 -1.01029,1.09869 l -2.083723,2.247896 3.434986,3.700185 c 0.218896,0.235735 0.404116,0.492517 0.555659,0.770346 0.159963,0.269411 0.239944,0.589336 0.239944,0.959776 0,0.614593 -0.197849,1.111318 -0.593546,1.490177 -0.395696,0.37044 -0.884002,0.555659 -1.464919,0.555659 -0.378859,0 -0.690365,-0.07998 -0.934518,-0.239943 -0.235734,-0.159963 -0.521984,-0.425164 -0.858747,-0.795604 l -2.816183,-3.333956 -2.816181,3.333956 c -0.294669,0.336764 -0.572499,0.593546 -0.83349,0.770346 -0.260992,0.176801 -0.580917,0.265201 -0.959775,0.265201 -0.580917,0 -1.069224,-0.185219 -1.46492,-0.555659 -0.395697,-0.378859 -0.593545,-0.875584 -0.593545,-1.490177 0,-0.362021 0.06735,-0.669318 0.202058,-0.92189 0.143124,-0.252572 0.340972,-0.521983 0.593545,-0.808232 z"
     id="path837"
     style="font-size:12px;font-weight:900;fill:#e6e6e6;stroke-width:1pt;font-family:VAG Rounded Black SSi"
     inkscape:connector-curvature="0" />
  <path
     d="M 32.626672,30.56631 C 23.255015,33.222145 28.570596,52.631368 19.728348,55.227257"
     id="path836"
     style="fill:none;stroke:#dedede;stroke-width:2.69762421;stroke-linecap:round;stroke-linejoin:round;stroke-opacity:1"
     inkscape:connector-curvature="0" />
  <rect
     style="fill:#ffffff;fill-opacity:1;stroke:#e8e8e8;stroke-width:3.02336335;stroke-linecap:butt;stroke-linejoin:miter;stroke-miterlimit:4;stroke-opacity:1;stroke-dasharray:none"
     id="rect3778"
     width="51.601936"
     height="19.057533"
     x="5.2159824"
     y="4.6333351"
     rx="2.8883562"
     ry="2.891444" />
  <g
     id="g3895"
     transform="matrix(0.12600044,0,0,0.12600044,-0.33641735,-14.823117)">
    <path
       transform="translate(-63.810014,41.932295)"
       d="m 253.41692,222.55632 c 0,3.52413 -2.85687,6.381 -6.381,6.381 -3.52413,0 -6.381,-2.85687 -6.381,-6.381 0,-3.52413 2.85687,-6.381 6.381,-6.381 3.52413,0 6.381,2.85687 6.381,6.381 z"
       sodipodi:ry="6.3810015"
       sodipodi:rx="6.3810015"
       sodipodi:cy="222.55632"
       sodipodi:cx="247.03592"
       id="path3806"
       style="fill:#ffffff;fill-opacity:1;stroke:#515151;stroke-width:15.80000019;stroke-linecap:round;stroke-linejoin:round;stroke-miterlimit:4;stroke-opacity:1;stroke-dasharray:none"
       sodipodi:type="arc" />
    <path
       transform="translate(-22.789297,41.93229)"
       d="m 253.41692,222.55632 c 0,3.52413 -2.85687,6.381 -6.381,6.381 -3.52413,0 -6.381,-2.85687 -6.381,-6.381 0,-3.52413 2.85687,-6.381 6.381,-6.381 3.52413,0 6.381,2.85687 6.381,6.381 z"
       sodipodi:ry="6.3810015"
       sodipodi:rx="6.3810015"
       sodipodi:cy="222.55632"
       sodipodi:cx="247.03592"
       id="path3806-4"
       style="fill:#ffffff;fill-opacity:1;stroke:#515151;stroke-width:15.80000019;stroke-linecap:round;stroke-linejoin:round;stroke-miterlimit:4;stroke-opacity:1;stroke-dasharray:none"
       sodipodi:type="arc" />
    <path
       transform="translate(19.142996,42.843861)"
       d="m 253.41692,222.55632 c 0,3.52413 -2.85687,6.381 -6.381,6.381 -3.52413,0 -6.381,-2.85687 -6.381,-6.381 0,-3.52413 2.85687,-6.381 6.381,-6.381 3.52413,0 6.381,2.85687 6.381,6.381 z"
       sodipodi:ry="6.3810015"
       sodipodi:rx="6.3810015"
       sodipodi:cy="222.55632"
       sodipodi:cx="247.03592"
       id="path3806-4-0"
       style="fill:#ffffff;fill-opacity:1;stroke:#515151;stroke-width:15.80000019;stroke-linecap:round;stroke-linejoin:round;stroke-miterlimit:4;stroke-opacity:1;stroke-dasharray:none"
       sodipodi:type="arc" />
  </g>
  <path
     style="fill:none;stroke:#b7b7b7;stroke-width:3.53797865;stroke-linecap:round;stroke-linejoin:miter;stroke-miterlimit:4;stroke-opacity:1;stroke-dasharray:none"
     d="m 14.451559,9.0312278 c 0,9.9685552 0,9.9685552 0,9.9685552"
     id="path3893"
     inkscape:connector-curvature="0" />
</svg>
