<?xml version="1.0" encoding="UTF-8" standalone="no"?>
<!-- Created with Inkscape (http://www.inkscape.org/) -->

<svg
   xmlns:dc="http://purl.org/dc/elements/1.1/"
   xmlns:cc="http://creativecommons.org/ns#"
   xmlns:rdf="http://www.w3.org/1999/02/22-rdf-syntax-ns#"
   xmlns:svg="http://www.w3.org/2000/svg"
   xmlns="http://www.w3.org/2000/svg"
   xmlns:xlink="http://www.w3.org/1999/xlink"
   version="1.1"
   width="201.98639"
   height="201.98639"
   id="svg2965">
  <defs
     id="defs2967">
    <linearGradient
       x1="381.89471"
       y1="-310.05496"
       x2="387.75485"
       y2="-147.97206"
       id="linearGradient5325"
       xlink:href="#linearGradient3917"
       gradientUnits="userSpaceOnUse"
       gradientTransform="matrix(0.93571428,0,0,0.97142857,96.553265,671.01127)" />
    <linearGradient
       id="linearGradient3917">
      <stop
         id="stop3919"
         style="stop-color:#edf4fd;stop-opacity:0.52845526"
         offset="0" />
      <stop
         id="stop3921"
         style="stop-color:#175bb3;stop-opacity:0"
         offset="1" />
    </linearGradient>
    <linearGradient
       x1="379.92142"
       y1="-298.53522"
       x2="387.75485"
       y2="-148.13335"
       id="linearGradient5372"
       xlink:href="#linearGradient3952-8"
       gradientUnits="userSpaceOnUse" />
    <linearGradient
       id="linearGradient3952-8">
      <stop
         id="stop3954-1"
         style="stop-color:#0146a8;stop-opacity:1"
         offset="0" />
      <stop
         id="stop3956-0"
         style="stop-color:#0146a8;stop-opacity:0"
         offset="1" />
    </linearGradient>
    <linearGradient
       x1="381.89471"
       y1="-310.05496"
       x2="387.75485"
       y2="-147.97206"
       id="linearGradient5374"
       xlink:href="#linearGradient3917-2"
       gradientUnits="userSpaceOnUse"
       gradientTransform="matrix(0.93571428,0,0,0.97142857,-395.59376,1094.2791)" />
    <linearGradient
       id="linearGradient3917-2">
      <stop
         id="stop3919-2"
         style="stop-color:#edf4fd;stop-opacity:0.52845526"
         offset="0" />
      <stop
         id="stop3921-9"
         style="stop-color:#175bb3;stop-opacity:0"
         offset="1" />
    </linearGradient>
    <linearGradient
       x1="381.89471"
       y1="-310.05496"
       x2="387.75485"
       y2="-147.97206"
       id="linearGradient3093"
       xlink:href="#linearGradient3917-2"
       gradientUnits="userSpaceOnUse"
       gradientTransform="matrix(0.93571428,0,0,0.97142857,-395.59376,1094.2791)" />
    <linearGradient
       x1="379.92142"
       y1="-298.53522"
       x2="387.75485"
       y2="-148.13335"
       id="linearGradient4173"
       xlink:href="#linearGradient3952"
       gradientUnits="userSpaceOnUse" />
    <linearGradient
       id="linearGradient3952">
      <stop
         id="stop3954"
         style="stop-color:#0146a8;stop-opacity:1"
         offset="0" />
      <stop
         id="stop3956"
         style="stop-color:#0146a8;stop-opacity:0"
         offset="1" />
    </linearGradient>
    <linearGradient
       x1="381.89471"
       y1="-310.05496"
       x2="387.75485"
       y2="-147.97206"
       id="linearGradient5377"
       xlink:href="#linearGradient3917-8"
       gradientUnits="userSpaceOnUse"
       gradientTransform="matrix(0.93571428,0,0,0.97142857,387.17357,670.22793)" />
    <linearGradient
       id="linearGradient3917-8">
      <stop
         id="stop3919-1"
         style="stop-color:#edf4fd;stop-opacity:0.52845526"
         offset="0" />
      <stop
         id="stop3921-2"
         style="stop-color:#175bb3;stop-opacity:0"
         offset="1" />
    </linearGradient>
    <linearGradient
       x1="381.89471"
       y1="-310.05496"
       x2="387.75485"
       y2="-147.97206"
       id="linearGradient3179"
       xlink:href="#linearGradient3917-8"
       gradientUnits="userSpaceOnUse"
       gradientTransform="matrix(0.93571428,0,0,0.97142857,387.17357,670.22793)" />
    <linearGradient
       x1="381.89471"
       y1="-310.05496"
       x2="387.75485"
       y2="-147.97206"
       id="linearGradient3015"
       xlink:href="#linearGradient3917-8"
       gradientUnits="userSpaceOnUse"
       gradientTransform="matrix(0.70976448,0,0,0.73685473,271.9845,673.34073)" />
    <linearGradient
       x1="379.92142"
       y1="-298.53522"
       x2="387.75485"
       y2="-148.13335"
       id="linearGradient3021"
       xlink:href="#linearGradient3952"
       gradientUnits="userSpaceOnUse" />
  </defs>
  <metadata
     id="metadata2970">
    <rdf:RDF>
      <cc:Work
         rdf:about="">
        <dc:format>image/svg+xml</dc:format>
        <dc:type
           rdf:resource="http://purl.org/dc/dcmitype/StillImage" />
        <dc:title></dc:title>
      </cc:Work>
    </rdf:RDF>
  </metadata>
  <g
     transform="matrix(1.2627119,0,0,1.2627119,-547.63119,-530.3191)"
     id="layer1">
    <path
       d="m 536.51713,478.7662 0,82.395 c -7e-5,5.70884 -2.17544,10.02525 -6.52614,12.94929 -4.35082,2.92402 -9.87293,4.38602 -16.56635,4.38604 -6.69348,-2e-5 -12.15982,-1.49683 -16.39898,-4.49047 -4.12768,-2.99365 -6.19148,-7.27526 -6.19145,-12.84486 l 0,-81.55955 c -3e-5,-5.63911 2.06377,-9.8859 6.19145,-12.74043 4.23916,-2.8543 9.7055,-4.28149 16.39898,-4.28162 6.69342,1.3e-4 12.21553,1.42732 16.56635,4.28162 4.3507,2.85453 6.52607,6.82284 6.52614,11.90498 m -22.59047,-29.44917 c -6.35882,1.4e-4 -11.82515,-1.2182 -16.39898,-3.65503 -4.46236,-2.43656 -6.6935,-5.88273 -6.69347,-10.33853 -3e-5,-4.0378 2.28689,-7.34476 6.8608,-9.92082 4.68538,-2.64541 10.09593,-3.96818 16.23165,-3.96833 5.91251,1.5e-4 11.15574,1.18368 15.72967,3.55061 4.57379,2.36721 6.86073,5.81339 6.8608,10.33854 -7e-5,4.38616 -2.23123,7.83235 -6.69348,10.33853 -4.46237,2.43683 -9.76137,3.65517 -15.89699,3.65503"
       id="path4187"
       style="font-size:144px;font-style:normal;font-variant:normal;font-weight:bold;font-stretch:normal;fill:#eeeeee;fill-opacity:1;stroke:none;font-family:Arial Rounded MT Bold;-inkscape-font-specification:'Arial Rounded MT Bold, Bold'" />
  </g>
  <rect
     width="200.98639"
     height="200.98639"
     x="0.5"
     y="0.5"
     id="rect3008"
     style="opacity:0;fill:none;stroke:#5cc2ff;stroke-width:1;stroke-linecap:round;stroke-linejoin:miter;stroke-miterlimit:4;stroke-opacity:1;stroke-dasharray:none" />
</svg>
