<?xml version="1.0" encoding="UTF-8" standalone="no"?>
<!-- Created with Inkscape (http://www.inkscape.org/) -->

<svg
   xmlns:dc="http://purl.org/dc/elements/1.1/"
   xmlns:cc="http://creativecommons.org/ns#"
   xmlns:rdf="http://www.w3.org/1999/02/22-rdf-syntax-ns#"
   xmlns:svg="http://www.w3.org/2000/svg"
   xmlns="http://www.w3.org/2000/svg"
   version="1.1"
   width="409.8125"
   height="409.8125"
   id="svg1">
  <metadata
     id="metadata3">
    <rdf:RDF>
      <cc:Work
         rdf:about="">
        <dc:title></dc:title>
        <dc:description />
        <dc:subject>
          <rdf:Bag>
            <rdf:li>engine</rdf:li>
            <rdf:li>mecanica</rdf:li>
            <rdf:li>engrenagem</rdf:li>
            <rdf:li>shape</rdf:li>
            <rdf:li>svg</rdf:li>
          </rdf:Bag>
        </dc:subject>
        <dc:publisher>
          <cc:Agent
             rdf:about="http://www.openclipart.org/">
            <dc:title>Open Clip Art Library</dc:title>
          </cc:Agent>
        </dc:publisher>
        <dc:creator>
          <cc:Agent>
            <dc:title>S  rgio Luiz Ara  jo Silva</dc:title>
          </cc:Agent>
        </dc:creator>
        <dc:rights>
          <cc:Agent>
            <dc:title>S  rgio Luiz Ara  jo Silva</dc:title>
          </cc:Agent>
        </dc:rights>
        <dc:date />
        <dc:format>image/svg+xml</dc:format>
        <dc:type
           rdf:resource="http://purl.org/dc/dcmitype/StillImage" />
        <cc:license
           rdf:resource="http://web.resource.org/cc/PublicDomain" />
        <dc:language>en</dc:language>
      </cc:Work>
      <cc:License
         rdf:about="http://web.resource.org/cc/PublicDomain">
        <cc:permits
           rdf:resource="http://web.resource.org/cc/Reproduction" />
        <cc:permits
           rdf:resource="http://web.resource.org/cc/Distribution" />
        <cc:permits
           rdf:resource="http://web.resource.org/cc/DerivativeWorks" />
      </cc:License>
    </rdf:RDF>
  </metadata>
  <defs
     id="defs3" />
  <path
     d="m 181.56248,5 -10.78125,83.875 c -8.38219,2.45985 -16.41537,5.72629 -23.9375,9.843736 L 79.46874,47.625 47.03124,80.0625 98.624986,146.875 c -4.142296,7.54683 -7.402776,15.61676 -9.874996,24.03126 L 5,182.40626 l 0,45.84375 83.68749,10.75 c 2.46809,8.4514 5.75444,16.5465 9.906246,24.125 l -50.968746,67.21875 32.4375,32.43749 66.65624,-51.49999 c 7.59013,4.16746 15.68881,7.49137 24.15625,9.96875 l 11.5,83.56249 45.875,0 10.71875,-83.59374 c 8.46829,-2.48244 16.56639,-5.79573 24.15626,-9.96875 l 67.1875,50.93749 32.4375,-32.43749 -51.5,-66.71875 c 4.13666,-7.56755 7.41604,-15.65753 9.875,-24.09375 l 83.6875,-11.5 0,-45.875 -83.75,-10.75 c -2.47406,-8.39773 -5.79955,-16.43632 -9.9375,-23.96876 L 362.18749,79.5 329.74999,47.0625 262.87499,98.687486 C 255.35192,94.57517 247.31968,91.3299 238.93749,88.875 L 227.40624,5 z"
     id="path908"
     style="fill:#ececec;fill-opacity:1;fill-rule:evenodd;stroke:#646464;stroke-width:10;stroke-linecap:round;stroke-linejoin:round;stroke-miterlimit:4;stroke-opacity:1;stroke-dasharray:none" />
  <g
     transform="matrix(1.648541,0,0,1.7684278,-99.665972,-324.41175)"
     id="text3012"
     style="font-size:73.39572906px;font-style:normal;font-variant:normal;font-weight:bold;font-stretch:normal;text-align:start;line-height:125%;letter-spacing:0px;word-spacing:0px;writing-mode:lr-tb;text-anchor:start;fill:#666666;fill-opacity:1;stroke:none;font-family:Courier New;-inkscape-font-specification:Courier New Bold">
    <path
       d="m 143.9513,297.99285 0,12.29235 c -2e-5,1.768 -0.33451,3.0283 -1.00345,3.78089 -0.669,0.75259 -1.553,1.12889 -2.652,1.12889 -1.09904,0 -1.98901,-0.3763 -2.66991,-1.12889 -0.68094,-0.75259 -1.0214,-2.01289 -1.02138,-3.78089 l 0,-12.29235 -10.50046,0 c -1.768,2e-5 -3.0283,-0.34044 -3.78088,-1.02137 -0.7526,-0.6809 -1.1289,-1.57087 -1.12889,-2.66992 -10e-6,-1.099 0.37629,-1.98897 1.12889,-2.66991 0.75258,-0.68089 2.01288,-1.0094 3.78088,-0.98554 l 10.50046,0 0,-12.25651 c -2e-5,-1.74407 0.34044,-2.99839 1.02138,-3.76297 0.6809,-0.76449 1.57087,-1.14676 2.66991,-1.1468 1.099,4e-5 1.98897,0.37633 2.66991,1.12889 0.6809,0.75263 1.02136,2.01292 1.02138,3.78088 l -0.0358,12.25651 10.50047,0 c 1.76795,3e-5 3.02825,0.33451 3.78088,1.00346 0.75255,0.66899 1.12885,1.55299 1.12889,2.65199 -4e-5,1.09905 -0.37634,1.98902 -1.12889,2.66992 -0.75263,0.68093 -2.01293,1.02139 -3.78088,1.02137 z"
       id="path2986"
       style="fill:#666666" />
    <path
       d="m 187.96007,297.99285 0,12.29235 c -3e-5,1.768 -0.33451,3.0283 -1.00346,3.78089 -0.66899,0.75259 -1.55299,1.12889 -2.65199,1.12889 -1.09905,0 -1.98902,-0.3763 -2.66991,-1.12889 -0.68094,-0.75259 -1.0214,-2.01289 -1.02138,-3.78089 l 0,-12.29235 -10.50046,0 c -1.76801,2e-5 -3.0283,-0.34044 -3.78089,-1.02137 -0.75259,-0.6809 -1.12889,-1.57087 -1.12889,-2.66992 0,-1.099 0.3763,-1.98897 1.12889,-2.66991 0.75259,-0.68089 2.01288,-1.0094 3.78089,-0.98554 l 10.50046,0 0,-12.25651 c -2e-5,-1.74407 0.34044,-2.99839 1.02138,-3.76297 0.68089,-0.76449 1.57086,-1.14676 2.66991,-1.1468 1.099,4e-5 1.98897,0.37633 2.66991,1.12889 0.68089,0.75263 1.02135,2.01292 1.02138,3.78088 l -0.0358,12.25651 10.50046,0 c 1.76796,3e-5 3.02825,0.33451 3.78089,1.00346 0.75255,0.66899 1.12884,1.55299 1.12889,2.65199 -5e-5,1.09905 -0.37634,1.98902 -1.12889,2.66992 -0.75264,0.68093 -2.01293,1.02139 -3.78089,1.02137 z"
       id="path2988"
       style="fill:#666666" />
    <path
       d="m 219.17476,311.14531 0,12.04149 4.40804,0 c 1.76798,-1e-5 3.02827,0.34045 3.78088,1.02137 0.75257,0.68091 1.12887,1.57088 1.12889,2.66992 -2e-5,1.07512 -0.37632,1.95314 -1.12889,2.63407 -0.75261,0.6809 -2.0129,1.02136 -3.78088,1.02138 l -13.00911,0 c -1.76799,-2e-5 -3.02829,-0.34048 -3.78088,-1.02138 -0.75259,-0.68093 -1.12889,-1.55895 -1.12889,-2.63407 0,-1.09904 0.38227,-1.98901 1.14681,-2.66992 0.76454,-0.68092 2.01886,-1.02138 3.76296,-1.02137 l 1.25433,0 0,-33.18577 -1.25433,0 c -1.76799,3e-5 -3.02829,-0.34043 -3.78088,-1.02137 -0.75259,-0.68089 -1.12889,-1.57086 -1.12889,-2.66992 0,-1.0751 0.3763,-1.95312 1.12889,-2.63407 0.75259,-0.68089 2.01289,-1.02135 3.78088,-1.02138 l 8.60107,0 0,2.50865 c 1.72019,-1.17067 3.50013,-2.04272 5.33982,-2.61616 1.83965,-0.57337 3.72711,-0.86007 5.66237,-0.86011 5.01725,4e-5 9.29389,1.70233 12.82992,5.10688 3.53595,3.40462 5.30394,7.30495 5.30398,11.70103 -4e-5,4.85006 -2.09057,8.85194 -6.2716,12.00565 -3.48825,2.6281 -7.41845,3.94215 -11.79063,3.94215 -1.88747,0 -3.75104,-0.27475 -5.59069,-0.82426 -1.83969,-0.54951 -3.66741,-1.37378 -5.48317,-2.47281 z m 21.78935,-12.61489 c -3e-5,-1.02733 -0.40619,-2.33541 -1.21848,-3.92424 -0.81236,-1.58878 -2.0607,-2.91478 -3.74505,-3.97799 -1.6844,-1.06316 -3.66145,-1.59475 -5.93115,-1.59478 -3.65547,3e-5 -6.55832,1.37381 -8.70857,4.12135 -1.45742,1.88747 -2.18612,3.70325 -2.1861,5.44733 -2e-5,1.95915 1.04525,3.86452 3.1358,5.71613 2.09052,1.85162 4.67681,2.77743 7.75887,2.77742 3.10592,10e-6 5.69818,-0.91982 7.7768,-2.7595 2.07855,-1.83966 3.11785,-3.7749 3.11788,-5.80572 z"
       id="path2990"
       style="fill:#666666" />
  </g>
</svg>
