<?xml version="1.0" encoding="UTF-8" standalone="no"?>
<!-- Created with Inkscape (http://www.inkscape.org/) -->

<svg
   xmlns:dc="http://purl.org/dc/elements/1.1/"
   xmlns:cc="http://creativecommons.org/ns#"
   xmlns:rdf="http://www.w3.org/1999/02/22-rdf-syntax-ns#"
   xmlns:svg="http://www.w3.org/2000/svg"
   xmlns="http://www.w3.org/2000/svg"
   xmlns:xlink="http://www.w3.org/1999/xlink"
   xmlns:sodipodi="http://sodipodi.sourceforge.net/DTD/sodipodi-0.dtd"
   xmlns:inkscape="http://www.inkscape.org/namespaces/inkscape"
   version="1.0"
   width="972.49243"
   height="956.54736"
   id="Yes_check"
   inkscape:version="0.48.2 r9819"
   sodipodi:docname="output.svg">
  <sodipodi:namedview
     pagecolor="#ffffff"
     bordercolor="#666666"
     borderopacity="1"
     objecttolerance="10"
     gridtolerance="10"
     guidetolerance="10"
     inkscape:pageopacity="0"
     inkscape:pageshadow="2"
     inkscape:window-width="1323"
     inkscape:window-height="804"
     id="namedview18"
     showgrid="false"
     inkscape:zoom="0.25198949"
     inkscape:cx="486.2462"
     inkscape:cy="478.27368"
     inkscape:window-x="0"
     inkscape:window-y="0"
     inkscape:window-maximized="0"
     inkscape:current-layer="Yes_check"
     fit-margin-top="0"
     fit-margin-left="0"
     fit-margin-right="0"
     fit-margin-bottom="0" />
  <metadata
     id="metadata1375">
    <rdf:RDF>
      <cc:Work
         rdf:about="">
        <dc:format>image/svg+xml</dc:format>
        <dc:type
           rdf:resource="http://purl.org/dc/dcmitype/StillImage" />
        <dc:title />
      </cc:Work>
    </rdf:RDF>
  </metadata>
  <defs
     id="defs1373">
    <linearGradient
       id="linearGradient2250">
      <stop
         id="stop2252"
         style="stop-color:#008700;stop-opacity:1"
         offset="0" />
      <stop
         id="stop2254"
         style="stop-color:#006f00;stop-opacity:1"
         offset="1" />
    </linearGradient>
    <radialGradient
       cx="206.95187"
       cy="329.383"
       r="292.31146"
       fx="206.95187"
       fy="329.383"
       id="radialGradient2256"
       xlink:href="#linearGradient2250"
       gradientUnits="userSpaceOnUse"
       gradientTransform="matrix(1,0,0,0.98278,0,5.165947)" />
  </defs>
  <rect
     width="932.14941"
     height="916.20435"
     ry="109.03233"
     x="20.171499"
     y="20.171499"
     id="rect3777-4-9-1-0"
     style="fill:none;stroke:#f4f4f4;stroke-width:40.3429985;stroke-linejoin:round;stroke-miterlimit:4;stroke-opacity:1;stroke-dasharray:none" />
  <g
     style="font-size:363.58636475px;font-style:normal;font-variant:normal;font-weight:bold;font-stretch:normal;text-align:start;line-height:125%;letter-spacing:0px;word-spacing:0px;writing-mode:lr-tb;text-anchor:start;fill:#f9f9f9;fill-opacity:1;stroke:none;font-family:Consolas;-inkscape-font-specification:Consolas Bold"
     id="text3763"
     transform="translate(10.000167,10.000167)">
    <path
       d="M 117.21583,197.1631 236.87267,297.82397 117.21583,398.66238 89.69831,370.61226 177.57685,298.17904 89.69831,225.21322 z"
       id="path3772"
       inkscape:connector-curvature="0" />
    <path
       d="m 442.45519,302.97241 c -1.9e-4,14.20267 -2.01222,27.19211 -6.0361,38.96836 -4.02425,11.77636 -9.82363,21.86611 -17.39818,30.26928 -7.57487,8.40321 -16.86572,14.91273 -27.87258,19.52856 -11.00714,4.61584 -23.55275,6.92376 -37.63687,6.92377 -13.3742,-10e-6 -25.32803,-1.95286 -35.86155,-5.85857 -10.53364,-3.90571 -19.46943,-9.73468 -26.80739,-17.48694 -7.33804,-7.75223 -12.95989,-17.45732 -16.86558,-29.11532 -3.90573,-11.6579 -5.85858,-25.23911 -5.85857,-40.74369 -1e-5,-14.32084 2.04161,-27.33987 6.12487,-39.05712 4.08322,-11.717 9.94178,-21.71799 17.57571,-30.00298 7.63385,-8.28468 16.95429,-14.70543 27.96135,-19.26227 11.00693,-4.55648 23.43419,-6.83481 37.2818,-6.83499 13.49235,1.8e-4 25.50537,1.98262 36.03908,5.94733 10.53344,3.96507 19.46923,9.85322 26.8074,17.66448 7.33783,7.81157 12.9301,17.48708 16.77681,29.02654 3.84635,11.53973 5.76961,24.88424 5.7698,40.03356 z m -45.09323,1.0652 c -1.4e-4,-18.69998 -3.5212,-32.75461 -10.56318,-42.16395 -7.04224,-9.40908 -17.42788,-14.11368 -31.15693,-14.11383 -7.57481,1.5e-4 -14.02515,1.47959 -19.35104,4.43831 -5.32604,2.95902 -9.70517,7.01267 -13.13739,12.16097 -3.43236,5.14857 -5.9474,11.15508 -7.54513,18.01954 -1.59785,6.86469 -2.39675,14.20269 -2.39669,22.01402 -6e-5,18.81851 3.7873,32.9915 11.36207,42.51901 7.57464,9.52761 17.93069,14.29139 31.06818,14.29136 7.21954,3e-5 13.49234,-1.44981 18.81843,-4.34954 5.32585,-2.89966 9.6458,-6.92372 12.95987,-12.07221 3.3138,-5.14838 5.79925,-11.21407 7.45636,-18.19707 1.65682,-6.98287 2.48531,-14.4984 2.48545,-22.54661 z"
       id="path3774"
       inkscape:connector-curvature="0" />
    <path
       d="m 523.23243,214.20621 0,117.52645 c -7e-5,9.82351 1.83443,17.25028 5.5035,22.28032 3.66893,5.03012 9.23161,7.54516 16.68805,7.54512 7.21955,4e-5 14.1729,-2.98842 20.86006,-8.96538 6.68693,-5.97688 13.75863,-14.05459 21.21512,-24.23317 l 0,-114.15334 43.31791,0 0,180.37292 -37.45934,0 -1.0652,-26.62986 c -3.78749,4.61587 -7.63402,8.81746 -11.5396,12.6048 -3.90584,3.78737 -8.13702,7.01254 -12.69357,9.67552 -4.55677,2.66299 -9.52767,4.7342 -14.91272,6.21363 -5.38524,1.47944 -11.33257,2.21915 -17.84201,2.21916 -9.23175,-10e-6 -17.30947,-1.50903 -24.23317,-4.52708 -6.92381,-3.01805 -12.69361,-7.30841 -17.30941,-12.8711 -4.61588,-5.56266 -8.07775,-12.22012 -10.38565,-19.97239 -2.30794,-7.75221 -3.4619,-16.4217 -3.46188,-26.0085 l 0,-121.0771 z"
       id="path3776"
       inkscape:connector-curvature="0" />
    <path
       d="m 829.2983,392.80381 c -7.81159,1.77532 -15.68218,3.19558 -23.61181,4.26078 -7.92992,1.06519 -15.44545,1.59778 -22.54661,1.59779 -11.83561,-10e-6 -22.04371,-1.24273 -30.62434,-3.72818 -8.58082,-2.48545 -15.68211,-6.27281 -21.30389,-11.36208 -5.62193,-5.08924 -9.76435,-11.56917 -12.42727,-19.4398 -2.66304,-7.87056 -3.99454,-17.25018 -3.99448,-28.13888 l 0,-88.05607 -48.46634,0 0,-33.73116 48.46634,0 0,-46.15843 44.3831,-11.5396 0,57.69803 70.1253,0 0,33.73116 -70.1253,0 0,84.86049 c -10e-5,10.29693 2.367,18.07876 7.1013,23.34551 4.73408,5.26682 12.66385,7.90022 23.78934,7.90019 7.10116,3e-5 14.02491,-0.59175 20.77129,-1.77533 6.74607,-1.18351 12.90052,-2.54459 18.46337,-4.08324 z"
       id="path3778"
       inkscape:connector-curvature="0" />
  </g>
</svg>
