<?xml version="1.0" encoding="UTF-8" standalone="no"?>
<!-- Created with Inkscape (http://www.inkscape.org/) -->

<svg
   xmlns:svg="http://www.w3.org/2000/svg"
   xmlns="http://www.w3.org/2000/svg"
   xmlns:xlink="http://www.w3.org/1999/xlink"
   version="1.0"
   width="328.04877"
   height="355.90125"
   id="svg701">
  <defs
     id="defs2426">
    <linearGradient
       x1="112.49854"
       y1="6.1372099"
       x2="112.49853"
       y2="129.3468"
       id="path1082_2_"
       gradientUnits="userSpaceOnUse"
       gradientTransform="translate(287,-83)">
      <stop
         style="stop-color:#ffffff;stop-opacity:0"
         offset="0" />
      <stop
          style="stop-color:#ffffff;stop-opacity:0.27450982"
         offset="1" />
      <stop
         style="stop-color:#FFFFFF"
         offset="0" />
      <stop
         style="stop-color:#FFFFFF"
         offset="0.5" />
      <stop
         style="stop-color:#000000"
         offset="1" />
    </linearGradient>
    <linearGradient
       x1="541.33502"
       y1="104.50665"
       x2="606.91248"
       y2="303.14029"
       id="linearGradient2544"
       xlink:href="#path1082_2_"
       gradientUnits="userSpaceOnUse"
       gradientTransform="matrix(-0.6066055,0,0,0.6065715,524.31501,9.2325237)" />
    <filter
       color-interpolation-filters="sRGB"
       id="filter3783">
      <feGaussianBlur
         id="feGaussianBlur3785"
         stdDeviation="0.16360645" />
    </filter>
  </defs>
  <path
     d="m 49.524693,0.49395404 c -0.85684,-0.0141 -1.72618,0.089 -2.59375,0.1875 -2.80991,1.02365996 -5.75934,1.85919996 -8.25,3.59374996 -2.00834,1.99225 -3.31203,4.65683 -4.875,7.03125 -1.99719,2.02164 -4.65089,3.42039 -6.71875,5.40625 -2.45802,2.09752 -3.54844,5.20547 -4.5,8.1875 0.0795,1.29954 -1.04774,2.71807 -2.3125,1.6875 -0.27401,-1.46704 0.10989,-2.9627 0.5,-4.375 0.96513,-2.29846 1.22202,-4.75376 1.375,-7.21875 -0.32535,-3.22336 -1.22522,-6.48121 -3.21875,-9.09375 -0.48959,-1.40965 -1.88384,-1.7028 -3.125,-2.1875 -1.06921,-0.34725 -2.72266,-0.88815 -3.53125,0.0937 -2.2803699,2.79506 -6.1482269,2.89509 -9.4687499,3 -1.003406,1.01421 -2.35052999,2.15804 -2.31249999,3.6875 0.01622,1.29896 1.29660999,2.43645 2.62499999,2.40625 1.070389,0.47398 2.906984,0.0478 3.34375,1.3125 0.803004,2.28979 -1.450924,4.28796 -1.6875,6.53125 -0.249204,3.73909 -0.137409,7.53842 0.8125,11.1875 1.800295,3.18575 3.90051,6.2665 6.6562499,8.71875 1.47962,1.02365 2.92161,2.4834 4.8125,2.5625 2.07019,0.69554 4.12161,-0.26378 6.21875,-0.0937 1.12354,1.52573 0.35055,3.37558 0.28125,5.09375 0.33129,2.49461 0.68655,4.99589 0.53125,7.53125 0.81848,2.05334 0.65977,4.21629 0.53125,6.375 0.33536,1.80831 0.7885,3.62086 0.0937,5.40625 -0.4577,2.68939 -1.17884,5.30288 -2.40625,7.75 l 0.125,0.15625 0.15625,0.15625 c 0.66829,0.98684 2.50957,0.42701 3.25,-0.15625 0.73959,-2.1034 0.54933,-4.47883 0.9375,-6.6875 -0.0483,-2.44903 1.1642,-4.54659 2.0625,-6.75 -0.092,-2.97658 -0.43199,-6.13354 0.96875,-8.875 0.85864,-1.34561 1.27088,-2.80506 1.15625,-4.40625 0.21902,-1.35395 0.25166,-3.00745 1.75,-3.5625 0.94323,-0.24797 2.73457,-0.6367 3.21875,0.46875 0.61127,1.88766 -0.11289,3.99658 -0.5,5.90625 -0.87042,1.84761 -1.79791,3.84824 -1.40625,5.96875 0.0195,1.59198 0.90582,2.89869 2.25,3.71875 2.59684,1.95184 5.45274,4.17663 6.125,7.53125 0.0985,1.1513 -0.70036,2.54868 -1.75,3.15625 -0.97695,1.03655 -3.49957,1.37113 -2.875,3.21875 1.07851,1.05614 2.51711,0.79597 3.875,0.65625 1.86673,-0.21559 2.36616,-2.20261 3.71875,-3.21875 1.44829,0.43006 1.68627,2.53966 3.25,2.96875 1.79142,0.16138 1.51552,-2.18641 1.90625,-3.375 0.14349,-2.27611 -1.89327,-2.93213 -2.8125,-4.8125 -0.59878,-1.68606 1.46132,-3.71329 2.4375,-5.25 0.8507,-1.67305 2.02729,-3.06213 3.34375,-4.40625 0.28649,-1.27027 -0.1455,-2.79361 -0.125,-4.15625 0.10672,-3.3189 0.0502,-6.79959 1.65625,-9.8125 0.80045,-1.28854 1.08598,-3.42096 2.8125,-3.6875 1.62125,1.74589 1.66586,4.27909 2.34375,6.46875 1.10201,2.74175 2.44669,5.4058 3.40625,8.21875 0.2072,2.528 -0.34032,5.14954 0.375,7.65625 0.63387,2.6992 0.21563,5.45437 -0.625,8.0625 -0.86724,1.73683 -0.68698,3.77443 -1.5,5.5 -1.19785,1.2464 -0.11905,2.42868 1.3125,2.53125 1.08827,0.14938 2.75671,0.90814 3.5,-0.1875 0.31964,-1.36096 0.0598,-2.93576 0.15625,-4.375 -0.86327,-2.43868 -1.92099,-5.03349 -1.125,-7.625 0.0529,-1.93517 0.6779,-3.74552 1.15625,-5.59375 0.76443,-1.71661 -0.24718,-3.33426 -0.65625,-5 0.16283,-1.61788 0.50012,-3.27613 0.1875,-4.9375 -0.14891,-5.02466 -1.03982,-10.1875 0.4375,-15.09375 0.22008,-0.83679 0.69487,-3.32834 1.84375,-2.28125 0.68412,1.41457 0.62945,3.19865 0.8125,4.78125 0.32464,2.53625 0.26184,5.24531 -1.28125,7.40625 -0.75476,0.99508 -0.29319,2.79292 1.1875,2.46875 1.12805,-1.37807 2.08862,-2.88542 2.84375,-4.5 0.38827,-3.8582 0.80738,-7.82681 -0.15625,-11.625 -1.73497,-3.36904 -4.44275,-6.20844 -5.96875,-9.71875 -1.28718,-2.15905 -1.91769,-4.7833 -3.65625,-6.625 -1.66684,-1.28113 -2.14813,-3.32831 -2.90625,-5.1875 -0.7833,-2.46736 -1.81421,-4.80401 -3.34375,-6.90625 -1.22972,-0.98331 -2.50388,-2.18962 -4.125,-2.46874996 -0.82286,-0.37092 -1.67441,-0.48591 -2.53125,-0.5 z m -2.8125,43.43749996 c 0.26759,0.0576 0.76433,-0.1554 0.78125,0.25 0.21002,0.6881 0.50791,1.36006 0.5,2.09375 0.28371,2.92923 0.48848,5.85278 0.78125,8.78125 -0.20388,1.31123 -0.34922,2.63562 -0.59375,3.9375 -0.35915,1.09469 -0.68427,2.22671 -1.0625,3.3125 -0.56296,0.86345 -1.09569,1.75337 -1.6875,2.59375 -0.22195,0.17419 -0.41642,0.51246 -0.65625,0.59375 -0.65067,-0.30574 -1.35036,-0.54577 -1.96875,-0.90625 -0.52298,-0.43321 -1.14709,-0.77467 -1.5,-1.375 l -0.40625,-0.5625 c -0.49552,-0.92205 -1.02829,-1.81925 -1.5,-2.75 -0.0661,-0.44762 -0.24396,-0.90687 -0.25,-1.34375 0.41985,-0.62631 0.76487,-1.32981 1.25,-1.90625 0.95841,-1.02968 1.94026,-2.02484 2.78125,-3.15625 0.28893,-0.30923 0.15363,-0.79851 0.25,-1.1875 0.0717,-0.49354 0.10831,-1.02108 0.21875,-1.5 0.64406,-0.87334 1.22453,-1.76951 1.75,-2.71875 0.26696,-0.4911 0.25204,-1.09022 0.40625,-1.625 0.17299,-0.87978 0.60786,-1.68969 0.90625,-2.53125 z"
     transform="matrix(4.4859402,0,0,4.4859402,-0.05727331,-0.05504301)"
     id="path2995"
     style="fill:#e6e6e6;fill-opacity:1;stroke:#000000;stroke-width:0.2;stroke-linecap:butt;stroke-linejoin:miter;stroke-miterlimit:4;stroke-opacity:1;stroke-dasharray:none;filter:url(#filter3783)" />
</svg>
