<?xml version="1.0" encoding="UTF-8" standalone="no"?>
<svg
   xmlns:dc="http://purl.org/dc/elements/1.1/"
   xmlns:cc="http://creativecommons.org/ns#"
   xmlns:rdf="http://www.w3.org/1999/02/22-rdf-syntax-ns#"
   xmlns:svg="http://www.w3.org/2000/svg"
   xmlns="http://www.w3.org/2000/svg"
   xmlns:sodipodi="http://sodipodi.sourceforge.net/DTD/sodipodi-0.dtd"
   xmlns:inkscape="http://www.inkscape.org/namespaces/inkscape"
   version="1.1"
   x="0px"
   y="0px"
   width="269.44238"
   height="273.76538"
   viewBox="0 0 269.44237 273.76538"
   xml:space="preserve"
   id="svg2"
   inkscape:version="0.48.2 r9819"
   sodipodi:docname="pin.svg"><metadata
   id="metadata10"><rdf:RDF><cc:Work
       rdf:about=""><dc:format>image/svg+xml</dc:format><dc:type
         rdf:resource="http://purl.org/dc/dcmitype/StillImage" /><dc:title></dc:title></cc:Work></rdf:RDF></metadata><defs
   id="defs8" /><sodipodi:namedview
   pagecolor="#ffffff"
   bordercolor="#666666"
   borderopacity="1"
   objecttolerance="10"
   gridtolerance="10"
   guidetolerance="10"
   inkscape:pageopacity="0"
   inkscape:pageshadow="2"
   inkscape:window-width="640"
   inkscape:window-height="480"
   id="namedview6"
   showgrid="false"
   inkscape:zoom="0.34766083"
   inkscape:cx="309.40122"
   inkscape:cy="-0.0029081129"
   inkscape:window-x="374"
   inkscape:window-y="142"
   inkscape:window-maximized="0"
   inkscape:current-layer="svg2"
   fit-margin-top="0"
   fit-margin-left="0"
   fit-margin-right="0"
   fit-margin-bottom="0" />
  <path
   d="M 237.05558,30.301919 C 194.6968,-10.902864 126.96527,-9.9675006 85.760482,32.391286 68.072698,50.57444 58.150796,73.446403 55.944143,96.8801 53.254549,125.33646 72.778235,175.13293 16.617189,243.84673 12.999725,247.5655 -8.1120532,259.30048 3.4012449,270.50012 14.909526,281.69487 27.358978,260.81165 30.970167,257.09933 98.106912,199.06219 147.13845,216.65147 175.5041,213.18283 c 23.36398,-2.84161 45.95168,-13.40121 63.64086,-31.5858 41.20408,-42.35806 40.25795,-110.101486 -2.08938,-151.295111 z M 137.0239,130.73724 C 123.32651,117.413 123.029,95.510979 136.35393,81.812865 149.67328,68.120481 171.57445,67.812372 185.27256,81.1373 c 13.6974,13.324229 13.99996,35.23256 0.68061,48.92494 -13.33051,13.70384 -35.23114,13.99992 -48.92927,0.675 z"
   id="path4"
   inkscape:connector-curvature="0"
   sodipodi:nodetypes="ssccsccsssssss"
   style="fill:#e6e6e6" />
</svg>