<?xml version="1.0" encoding="UTF-8" standalone="no"?>
<!-- Created with Inkscape (http://www.inkscape.org/) -->

<svg
   xmlns:dc="http://purl.org/dc/elements/1.1/"
   xmlns:cc="http://creativecommons.org/ns#"
   xmlns:rdf="http://www.w3.org/1999/02/22-rdf-syntax-ns#"
   xmlns:svg="http://www.w3.org/2000/svg"
   xmlns="http://www.w3.org/2000/svg"
   version="1.1"
   width="442.90619"
   height="488.78198"
   id="svg2">
  <title
     id="title4">Gray Power Button</title>
  <metadata
     id="metadata16">
    <rdf:RDF>
      <cc:Work
         rdf:about="">
        <dc:format>image/svg+xml</dc:format>
        <dc:type
           rdf:resource="http://purl.org/dc/dcmitype/StillImage" />
        <dc:title>Gray Power Button</dc:title>
      </cc:Work>
    </rdf:RDF>
  </metadata>
  <defs
     id="defs14" />
  <g
     transform="translate(-88.593803,-166.53101)"
     id="g6">
    <title
       id="title8">Layer 1</title>
    <g
       id="layer1">
      <path
         d="m 310.06299,655.31299 c -122.24599,0 -221.469187,-99.22498 -221.469187,-221.469 0,-60.88598 24.712197,-115.94198 64.531197,-155.96899 l 0.188,0.18799 c 8.049,-11.11399 21.051,-18.40698 35.812,-18.40698 24.449,0 44.313,19.833 44.313,44.28198 0,14.992 -7.498,28.203 -18.90699,36.21802 l 0.15699,0.15698 c -23.92601,24.09601 -38.90699,56.99701 -38.90699,93.531 0,73.70102 60.11099,133.53101 134.15698,133.53101 74.04501,0 134.125,-59.82999 134.125,-133.53101 0,-33.34298 -12.54099,-63.57998 -32.90698,-86.93798 C 399.04199,339 390.96899,325.379 390.96899,309.84399 c 0,-24.449 19.86301,-44.31298 44.31202,-44.31298 11.953,0 22.74899,4.82699 30.71899,12.53198 l 0.625,-0.625 c 40.052,40.056 64.875,95.319 64.875,156.406 0,122.24402 -99.19199,221.469 -221.43701,221.469 z m -0.032,-219.93799 c -24.53702,0 -44.28101,-20.10199 -44.28101,-45.09399 l 0,-178.65601 c 0,-24.991 19.74399,-45.09399 44.28101,-45.09399 24.53799,0 44.31298,20.10299 44.31298,45.09399 l 0,178.65601 c 0,24.992 -19.77499,45.09399 -44.31298,45.09399 z"
         id="path8"
         style="fill:#bfbfbf" />
    </g>
  </g>
</svg>
