<?xml version="1.0" encoding="UTF-8" standalone="no"?>
<!-- Created with Inkscape (http://www.inkscape.org/) -->

<svg
   xmlns:dc="http://purl.org/dc/elements/1.1/"
   xmlns:cc="http://creativecommons.org/ns#"
   xmlns:rdf="http://www.w3.org/1999/02/22-rdf-syntax-ns#"
   xmlns:svg="http://www.w3.org/2000/svg"
   xmlns="http://www.w3.org/2000/svg"
   xmlns:sodipodi="http://sodipodi.sourceforge.net/DTD/sodipodi-0.dtd"
   xmlns:inkscape="http://www.inkscape.org/namespaces/inkscape"
   height="72"
   width="100"
   version="1.0"
   id="svg2"
   inkscape:version="0.48.2 r9819"
   sodipodi:docname="r_simple.svg">
  <defs
     id="defs14">
    <filter
       inkscape:collect="always"
       id="filter3919">
      <feGaussianBlur
         inkscape:collect="always"
         stdDeviation="2.5454"
         id="feGaussianBlur3921" />
    </filter>
    <filter
       inkscape:collect="always"
       id="filter3780">
      <feGaussianBlur
         inkscape:collect="always"
         stdDeviation="0.56944565"
         id="feGaussianBlur3782" />
    </filter>
    <filter
       inkscape:collect="always"
       id="filter3834">
      <feGaussianBlur
         inkscape:collect="always"
         stdDeviation="1.2527804"
         id="feGaussianBlur3836" />
    </filter>
  </defs>
  <sodipodi:namedview
     pagecolor="#ffffff"
     bordercolor="#666666"
     borderopacity="1"
     objecttolerance="10"
     gridtolerance="10"
     guidetolerance="10"
     inkscape:pageopacity="0"
     inkscape:pageshadow="2"
     inkscape:window-width="1143"
     inkscape:window-height="836"
     id="namedview12"
     showgrid="false"
     inkscape:zoom="5.84"
     inkscape:cx="57.83782"
     inkscape:cy="33.037385"
     inkscape:window-x="0"
     inkscape:window-y="0"
     inkscape:window-maximized="0"
     inkscape:current-layer="svg2" />
  <title
     id="title4">Rlogo simple</title>
  <metadata
     id="metadata6">
    <rdf:RDF>
      <cc:Work
         rdf:about="">
        <dc:format>image/svg+xml</dc:format>
        <dc:type
           rdf:resource="http://purl.org/dc/dcmitype/StillImage" />
        <dc:title>Rlogo simple</dc:title>
        <cc:license
           rdf:resource="http://creativecommons.org/licenses/by-sa/3.0/" />
        <dc:creator>
          <cc:Agent>
            <dc:title>towolf</dc:title>
          </cc:Agent>
        </dc:creator>
      </cc:Work>
      <cc:License
         rdf:about="http://creativecommons.org/licenses/by-sa/3.0/">
        <cc:permits
           rdf:resource="http://creativecommons.org/ns#Reproduction" />
        <cc:permits
           rdf:resource="http://creativecommons.org/ns#Distribution" />
        <cc:requires
           rdf:resource="http://creativecommons.org/ns#Notice" />
        <cc:requires
           rdf:resource="http://creativecommons.org/ns#Attribution" />
        <cc:permits
           rdf:resource="http://creativecommons.org/ns#DerivativeWorks" />
        <cc:requires
           rdf:resource="http://creativecommons.org/ns#ShareAlike" />
      </cc:License>
    </rdf:RDF>
  </metadata>
  <path
     d="m49.49,0.5922c-25.89,0-46.9,14.08-46.9,31.42s21.01,31.42,46.9,31.42,46.9-14.08,46.9-31.42-21.01-31.42-46.9-31.42zm7.987,12.06c19.68,0,35.65,9.644,35.65,21.53,0.0000032,11.88-15.97,21.52-35.65,21.52s-35.65-9.642-35.65-21.52c0.000001-11.88,15.97-21.53,35.65-21.53z"
     id="path8"
     fill="#9fa29c" />
  <path
     style="fill:#ffffff;opacity:0.65044248000000005;filter:url(#filter3919)"
     inkscape:connector-curvature="0"
     d="m 51.027397,1.5389041 c -25.889999,0 -46.8999998,14.0799999 -46.8999998,31.4200009 0,17.34 21.0100008,31.42 46.8999998,31.42 25.89,0 46.9,-14.08 46.9,-31.42 0,-17.340001 -21.01,-31.4200009 -46.9,-31.4200009 z m 7.987,12.0599999 c 19.68,0 35.65,9.644001 35.65,21.530001 3e-6,11.88 -15.97,21.52 -35.65,21.52 -19.68,0 -35.649999,-9.642 -35.649999,-21.52 10e-7,-11.88 15.969999,-21.530001 35.649999,-21.530001 z"
     id="path8-7" />
  <path
     d="m 41.066027,18.361233 c 0,0 -0.0028,53.21 -0.0028,53.21 h 15.83 c 0,0 0.1031,-13.77 0.1546,-20.66 2.839,-0.2797 6.375,-0.3761 7.906,2.566 3.299,5.949 9.624,18.1 9.624,18.1 h 18.04 c 0,0 -7.234,-14.41 -12.36,-20.76 -1.635,-1.756 -4.249,-2.144 -6.424,-3.074 5.321,-0.524 10.9,-3.386 12.79,-8.674 1.72,-5.037 1.416,-11.23 -2.148,-15.43 -3.556,-4.124 -9.269,-5.517 -14.53,-5.227 -9.479,-0.01198 -28.89,-0.04683 -28.89,-0.04683 z m 15.99,11.76 c 3.629,0.01492 7.257,0.02984 10.89,0.04476 3.091,0.3374 4.114,4.134 2.822,6.576 -0.957,2.147 -3.446,2.412 -5.502,2.25 -2.737,-0.01548 -5.474,-0.03095 -8.21,-0.04643 -0.1351,-2.934 -0.1327,-5.891 0.0041,-8.825 z"
     id="path10"
     style="fill:#000000;fill-opacity:0.79365079;filter:url(#filter3780)"
     inkscape:connector-curvature="0" />
  <path
     style="fill:#688ad2;fill-opacity:1"
     inkscape:connector-curvature="0"
     d="m 39.297694,16.967343 c 0,0 -0.0028,53.21 -0.0028,53.21 h 15.83 c 0,0 0.1031,-13.77 0.1546,-20.66 2.839,-0.2797 6.375,-0.3761 7.906,2.566 3.299,5.949 9.624,18.1 9.624,18.1 h 18.04 c 0,0 -7.234,-14.41 -12.36,-20.76 -1.635,-1.756 -4.249,-2.144 -6.424,-3.074 5.321,-0.524 10.9,-3.386 12.79,-8.674 1.72,-5.037 1.416,-11.23 -2.148,-15.43 -3.556,-4.124 -9.269,-5.517 -14.53,-5.227 -9.479,-0.01198 -28.89,-0.04683 -28.89,-0.04683 z m 15.99,11.76 c 3.629,0.01492 7.257,0.02984 10.89,0.04476 3.091,0.3374 4.114,4.134 2.822,6.576 -0.957,2.147 -3.446,2.412 -5.502,2.25 -2.737,-0.01548 -5.474,-0.03095 -8.21,-0.04643 -0.1351,-2.934 -0.1327,-5.891 0.0041,-8.825 z"
     id="path10-1" />
  <path
     style="fill:#cccccc;fill-opacity:0.51851849;filter:url(#filter3834)"
     inkscape:connector-curvature="0"
     d="m 39.126461,16.624876 c 0,0 -0.0028,53.21 -0.0028,53.21 h 15.83 c 0,0 0.1031,-13.77 0.1546,-20.66 2.839,-0.2797 6.375,-0.3761 7.906,2.566 3.299,5.949 9.624,18.1 9.624,18.1 h 18.04 c 0,0 -7.234,-14.41 -12.36,-20.76 -1.635,-1.756 -4.249,-2.144 -6.424,-3.074 5.321,-0.524 10.9,-3.386 12.79,-8.674 1.72,-5.037 1.416,-11.23 -2.148,-15.43 -3.556,-4.124 -9.269,-5.517 -14.53,-5.227 -9.479,-0.01198 -28.89,-0.04683 -28.89,-0.04683 z m 15.99,11.76 c 3.629,0.01492 7.257,0.02984 10.89,0.04476 3.091,0.3374 4.114,4.134 2.822,6.576 -0.957,2.147 -3.446,2.412 -5.502,2.25 -2.737,-0.01548 -5.474,-0.03095 -8.21,-0.04643 -0.1351,-2.934 -0.1327,-5.891 0.0041,-8.825 z"
     id="path10-1-7" />
</svg>
