<?xml version="1.0" encoding="UTF-8" standalone="no"?>
<!-- Created with Inkscape (http://www.inkscape.org/) -->

<svg
   xmlns:dc="http://purl.org/dc/elements/1.1/"
   xmlns:cc="http://creativecommons.org/ns#"
   xmlns:rdf="http://www.w3.org/1999/02/22-rdf-syntax-ns#"
   xmlns:svg="http://www.w3.org/2000/svg"
   xmlns="http://www.w3.org/2000/svg"
   xmlns:sodipodi="http://sodipodi.sourceforge.net/DTD/sodipodi-0.dtd"
   xmlns:inkscape="http://www.inkscape.org/namespaces/inkscape"
   version="1.0"
   width="123.0625"
   height="123.0625"
   id="svg2575"
   inkscape:version="0.48.2 r9819"
   sodipodi:docname="scale_m2.svg">
  <sodipodi:namedview
     pagecolor="#ffffff"
     bordercolor="#666666"
     borderopacity="1"
     objecttolerance="10"
     gridtolerance="10"
     guidetolerance="10"
     inkscape:pageopacity="0"
     inkscape:pageshadow="2"
     inkscape:window-width="1170"
     inkscape:window-height="752"
     id="namedview12"
     showgrid="false"
     inkscape:zoom="3.8354495"
     inkscape:cx="21.170685"
     inkscape:cy="53.186217"
     inkscape:window-x="88"
     inkscape:window-y="19"
     inkscape:window-maximized="0"
     inkscape:current-layer="layer1" />
  <defs
     id="defs2577" />
  <metadata
     id="metadata2580">
    <rdf:RDF>
      <cc:Work
         rdf:about="">
        <dc:format>image/svg+xml</dc:format>
        <dc:type
           rdf:resource="http://purl.org/dc/dcmitype/StillImage" />
        <dc:title />
      </cc:Work>
    </rdf:RDF>
  </metadata>
  <g
     transform="translate(-116.6875,-247.8125)"
     id="layer1">
    <rect
       width="122.05878"
       height="122.05878"
       x="117.18592"
       y="248.30763"
       id="rect2989"
       style="opacity:0;fill:none;stroke:#d1d1d1;stroke-width:1;stroke-linecap:butt;stroke-linejoin:miter;stroke-miterlimit:4;stroke-opacity:1;stroke-dasharray:none" />
    <g
       transform="scale(0.96550874,1.0357234)"
       style="font-size:73.39572906px;font-style:normal;font-variant:normal;font-weight:bold;font-stretch:normal;text-align:start;line-height:125%;letter-spacing:0px;word-spacing:0px;writing-mode:lr-tb;text-anchor:start;fill:#cccccc;fill-opacity:1;stroke:none;font-family:Courier New;-inkscape-font-specification:Courier New Bold"
       id="text3012" />
    <g
       style="font-size:127.36364746px;font-style:normal;font-variant:normal;font-weight:bold;font-stretch:normal;text-align:start;line-height:125%;letter-spacing:0px;word-spacing:0px;writing-mode:lr-tb;text-anchor:start;fill:#f2f2f2;fill-opacity:1;stroke:none;font-family:Calibri;-inkscape-font-specification:Calibri Bold"
       id="text2987">
      <path
         d="m 161.26473,314.485 c -3e-5,2.40468 -0.22806,4.08379 -0.68408,5.03733 -0.45609,0.95359 -1.18163,1.43038 -2.17662,1.43035 l -25.87074,0 c -1.0365,3e-5 -1.78277,-0.48712 -2.23882,-1.46145 -0.45606,-0.97427 -0.68408,-2.64301 -0.68408,-5.00623 0,-2.3217 0.22802,-3.95935 0.68408,-4.91296 0.45605,-0.95353 1.20232,-1.43031 2.23882,-1.43035 l 25.87074,0 c 0.49748,4e-5 0.92244,0.10369 1.27488,0.31095 0.35237,0.20733 0.65295,0.55974 0.90174,1.05721 0.24872,0.49755 0.42493,1.16091 0.52861,1.99006 0.10362,0.82922 0.15544,1.82425 0.15547,2.98509 z"
         style=""
         id="path2987" />
      <path
         d="m 224.44904,339.11195 c -6e-5,1.20233 -0.0519,2.22846 -0.15547,3.07837 -0.10371,0.84992 -0.25918,1.54437 -0.46642,2.08334 -0.20736,0.53898 -0.47684,0.92248 -0.80846,1.1505 -0.33173,0.22803 -0.70487,0.34204 -1.11941,0.34204 l -46.26882,0 c -0.91212,0 -1.69985,-0.0829 -2.3632,-0.24875 -0.66336,-0.16584 -1.20233,-0.48715 -1.61692,-0.96394 -0.4146,-0.47678 -0.71518,-1.17123 -0.90174,-2.08334 -0.18657,-0.9121 -0.27986,-2.0937 -0.27985,-3.54479 -1e-5,-1.36815 0.0622,-2.53938 0.18656,-3.51369 0.12438,-0.97429 0.3524,-1.84494 0.68409,-2.61195 0.33167,-0.76699 0.75663,-1.51326 1.27488,-2.23881 0.51823,-0.72553 1.19195,-1.52363 2.02115,-2.39429 l 13.9304,-14.92543 c 2.77776,-2.90213 5.01657,-5.54517 6.71644,-7.92913 1.69981,-2.38388 3.02651,-4.5605 3.98011,-6.52988 0.95354,-1.96928 1.60652,-3.78313 1.95897,-5.44156 0.35237,-1.65833 0.52857,-3.23379 0.5286,-4.72638 -3e-5,-1.36811 -0.21769,-2.66372 -0.65298,-3.88683 -0.43536,-1.223 -1.07799,-2.29058 -1.92787,-3.20275 -0.84995,-0.91205 -1.91754,-1.62722 -3.20275,-2.14553 -1.28527,-0.51818 -2.79854,-0.7773 -4.53982,-0.77737 -2.44613,7e-5 -4.61239,0.31101 -6.49878,0.93284 -1.88642,0.62196 -3.5448,1.31641 -4.97514,2.08334 -1.43036,0.76707 -2.62233,1.47188 -3.57588,2.11444 -0.95358,0.64268 -1.69985,0.96399 -2.23882,0.96393 -0.37314,6e-5 -0.69445,-0.12432 -0.96393,-0.37313 -0.26949,-0.2487 -0.48716,-0.6633 -0.65299,-1.24379 -0.16584,-0.58037 -0.30059,-1.35774 -0.40423,-2.3321 -0.10365,-0.97423 -0.15548,-2.16619 -0.15547,-3.57588 -1e-5,-0.9535 0.0311,-1.7516 0.0933,-2.39429 0.0622,-0.64255 0.15547,-1.20225 0.27986,-1.67911 0.12437,-0.47671 0.2902,-0.89131 0.49751,-1.24379 0.20729,-0.35233 0.57006,-0.77729 1.08831,-1.27488 0.51824,-0.49743 1.4718,-1.12969 2.86071,-1.89677 1.38888,-0.76692 3.09908,-1.51319 5.13061,-2.23881 2.0315,-0.72546 4.27031,-1.33699 6.71645,-1.83459 2.44608,-0.49743 4.99584,-0.74619 7.64928,-0.74627 4.18737,8e-5 7.84617,0.52869 10.97641,1.58583 3.13014,1.0573 5.73173,2.52911 7.80475,4.41544 2.07293,1.88648 3.61729,4.12529 4.6331,6.71644 1.01571,2.59129 1.52358,5.37944 1.52364,8.36446 -6e-5,2.61201 -0.24881,5.18249 -0.74627,7.71147 -0.49757,2.52908 -1.53406,5.25504 -3.10947,8.17789 -1.57551,2.92294 -3.79359,6.15678 -6.65425,9.70153 -2.86075,3.54482 -6.65429,7.65967 -11.38064,12.34457 l -9.39058,9.63934 31.71653,0 c 0.41454,1e-5 0.79804,0.12439 1.15051,0.37313 0.35234,0.24877 0.65293,0.63227 0.90174,1.15051 0.2487,0.51825 0.43527,1.20233 0.5597,2.05224 0.12432,0.84993 0.18651,1.85532 0.18657,3.01618 z"
         style=""
         id="path2989" />
    </g>
  </g>
</svg>
