<?xml version="1.0" encoding="UTF-8" standalone="no"?>
<!-- Created with Inkscape (http://www.inkscape.org/) -->

<svg
   xmlns:dc="http://purl.org/dc/elements/1.1/"
   xmlns:cc="http://creativecommons.org/ns#"
   xmlns:rdf="http://www.w3.org/1999/02/22-rdf-syntax-ns#"
   xmlns:svg="http://www.w3.org/2000/svg"
   xmlns="http://www.w3.org/2000/svg"
   xmlns:sodipodi="http://sodipodi.sourceforge.net/DTD/sodipodi-0.dtd"
   xmlns:inkscape="http://www.inkscape.org/namespaces/inkscape"
   version="1.0"
   width="123.0625"
   height="123.0625"
   id="svg2575"
   inkscape:version="0.48.2 r9819"
   sodipodi:docname="scale_p2.svg">
  <sodipodi:namedview
     pagecolor="#ffffff"
     bordercolor="#666666"
     borderopacity="1"
     objecttolerance="10"
     gridtolerance="10"
     guidetolerance="10"
     inkscape:pageopacity="0"
     inkscape:pageshadow="2"
     inkscape:window-width="1170"
     inkscape:window-height="752"
     id="namedview12"
     showgrid="false"
     inkscape:zoom="3.8354495"
     inkscape:cx="21.170685"
     inkscape:cy="53.186217"
     inkscape:window-x="88"
     inkscape:window-y="19"
     inkscape:window-maximized="0"
     inkscape:current-layer="layer1" />
  <defs
     id="defs2577" />
  <metadata
     id="metadata2580">
    <rdf:RDF>
      <cc:Work
         rdf:about="">
        <dc:format>image/svg+xml</dc:format>
        <dc:type
           rdf:resource="http://purl.org/dc/dcmitype/StillImage" />
        <dc:title />
      </cc:Work>
    </rdf:RDF>
  </metadata>
  <g
     transform="translate(-116.6875,-247.8125)"
     id="layer1">
    <rect
       width="122.05878"
       height="122.05878"
       x="117.18592"
       y="248.30763"
       id="rect2989"
       style="opacity:0;fill:none;stroke:#d1d1d1;stroke-width:1;stroke-linecap:butt;stroke-linejoin:miter;stroke-miterlimit:4;stroke-opacity:1;stroke-dasharray:none" />
    <g
       transform="scale(0.96550874,1.0357234)"
       style="font-size:73.39572906px;font-style:normal;font-variant:normal;font-weight:bold;font-stretch:normal;text-align:start;line-height:125%;letter-spacing:0px;word-spacing:0px;writing-mode:lr-tb;text-anchor:start;fill:#cccccc;fill-opacity:1;stroke:none;font-family:Courier New;-inkscape-font-specification:Courier New Bold"
       id="text3012" />
    <g
       style="font-size:127.36364746px;font-style:normal;font-variant:normal;font-weight:bold;font-stretch:normal;text-align:start;line-height:125%;letter-spacing:0px;word-spacing:0px;writing-mode:lr-tb;text-anchor:start;fill:#f2f2f2;fill-opacity:1;stroke:none;font-family:Calibri;-inkscape-font-specification:Calibri Bold"
       id="text2987">
      <path
         d="m 174.14706,309.48591 c -6e-5,1.16091 -0.0623,2.1352 -0.18657,2.9229 -0.12443,0.78776 -0.311,1.42002 -0.5597,1.89677 -0.24882,0.47682 -0.53903,0.81886 -0.87065,1.02613 -0.33173,0.20732 -0.68414,0.31097 -1.05722,0.31094 l -19.34086,0 0,21.08217 c -4e-5,0.4146 -0.10369,0.77737 -0.31095,1.08831 -0.20734,0.31096 -0.55974,0.58044 -1.05722,0.80846 -0.49755,0.22804 -1.1609,0.40424 -1.99005,0.52861 -0.82923,0.12439 -1.86572,0.18658 -3.10947,0.18657 -1.24381,10e-6 -2.2803,-0.0622 -3.10946,-0.18657 -0.82922,-0.12437 -1.49257,-0.30057 -1.99006,-0.52861 -0.49754,-0.22802 -0.86031,-0.4975 -1.08831,-0.80846 -0.22805,-0.31094 -0.34207,-0.67371 -0.34204,-1.08831 l 0,-21.08217 -19.27868,0 c -0.37314,3e-5 -0.71518,-0.10362 -1.02612,-0.31094 -0.31095,-0.20727 -0.59081,-0.54931 -0.83956,-1.02613 -0.24876,-0.47675 -0.44569,-1.10901 -0.5908,-1.89677 -0.14511,-0.7877 -0.21766,-1.76199 -0.21766,-2.9229 0,-1.11937 0.0622,-2.0833 0.18657,-2.8918 0.12437,-0.80842 0.30058,-1.45104 0.52861,-1.92786 0.22802,-0.47675 0.48714,-0.81879 0.77736,-1.02613 0.29021,-0.20725 0.62189,-0.3109 0.99503,-0.31094 l 19.46525,0 0,-21.01998 c -3e-5,-0.41453 0.11399,-0.79803 0.34204,-1.1505 0.228,-0.35234 0.59077,-0.64256 1.08831,-0.87065 0.49749,-0.22797 1.16084,-0.40417 1.99006,-0.52861 0.82916,-0.12431 1.86565,-0.1865 3.10946,-0.18657 1.24375,7e-5 2.28024,0.0623 3.10947,0.18657 0.82915,0.12444 1.4925,0.30064 1.99005,0.52861 0.49748,0.22809 0.84988,0.51831 1.05722,0.87065 0.20726,0.35247 0.31091,0.73597 0.31095,1.1505 l 0,21.01998 19.52743,0 c 0.33162,4e-5 0.65293,0.10369 0.96393,0.31094 0.31089,0.20734 0.58038,0.54938 0.80847,1.02613 0.22796,0.47682 0.40417,1.11944 0.5286,1.92786 0.12432,0.8085 0.18651,1.77243 0.18657,2.8918 z"
         style=""
         id="path2987" />
      <path
         d="m 236.83386,338.5905 c -6e-5,1.20233 -0.0519,2.22845 -0.15548,3.07837 -0.1037,0.84992 -0.25918,1.54437 -0.46642,2.08334 -0.20735,0.53897 -0.47684,0.92247 -0.80846,1.1505 -0.33173,0.22803 -0.70486,0.34204 -1.1194,0.34204 l -46.26883,0 c -0.91212,0 -1.69985,-0.0829 -2.36319,-0.24876 -0.66336,-0.16583 -1.20233,-0.48714 -1.61692,-0.96393 -0.4146,-0.47678 -0.71518,-1.17123 -0.90175,-2.08334 -0.18657,-0.91211 -0.27985,-2.0937 -0.27985,-3.54479 0,-1.36816 0.0622,-2.53939 0.18657,-3.51369 0.12437,-0.97429 0.3524,-1.84494 0.68408,-2.61195 0.33167,-0.76699 0.75663,-1.51326 1.27488,-2.23882 0.51824,-0.72552 1.19195,-1.52362 2.02115,-2.39429 l 13.9304,-14.92542 c 2.77776,-2.90213 5.01658,-5.54518 6.71644,-7.92914 1.69981,-2.38388 3.02652,-4.5605 3.98012,-6.52987 0.95353,-1.96928 1.60652,-3.78313 1.95896,-5.44156 0.35237,-1.65833 0.52857,-3.23379 0.52861,-4.72639 -4e-5,-1.3681 -0.2177,-2.66371 -0.65299,-3.88683 -0.43536,-1.22299 -1.07798,-2.29057 -1.92786,-3.20275 -0.84996,-0.91204 -1.91754,-1.62722 -3.20275,-2.14553 -1.28528,-0.51817 -2.79855,-0.7773 -4.53982,-0.77736 -2.44614,6e-5 -4.61239,0.31101 -6.49878,0.93284 -1.88643,0.62196 -3.54481,1.3164 -4.97514,2.08334 -1.43037,0.76706 -2.62233,1.47187 -3.57589,2.11443 -0.95358,0.64269 -1.69985,0.964 -2.23881,0.96394 -0.37314,6e-5 -0.69446,-0.12432 -0.96393,-0.37314 -0.2695,-0.24869 -0.48716,-0.66329 -0.65299,-1.24378 -0.16585,-0.58037 -0.30059,-1.35774 -0.40423,-2.3321 -0.10366,-0.97424 -0.15548,-2.1662 -0.15548,-3.57589 0,-0.9535 0.0311,-1.75159 0.0933,-2.39428 0.0622,-0.64255 0.15546,-1.20226 0.27985,-1.67911 0.12437,-0.47672 0.29021,-0.89131 0.49751,-1.24379 0.20729,-0.35233 0.57006,-0.77729 1.08832,-1.27488 0.51823,-0.49744 1.4718,-1.1297 2.8607,-1.89677 1.38888,-0.76693 3.09909,-1.5132 5.13062,-2.23882 2.0315,-0.72546 4.27031,-1.33699 6.71644,-1.83458 2.44609,-0.49743 4.99585,-0.74619 7.64928,-0.74627 4.18738,8e-5 7.84618,0.52869 10.97641,1.58582 3.13015,1.0573 5.73173,2.52911 7.80476,4.41544 2.07292,1.88649 3.61729,4.1253 4.6331,6.71645 1.0157,2.59128 1.52358,5.37943 1.52364,8.36445 -6e-5,2.61201 -0.24882,5.1825 -0.74628,7.71148 -0.49757,2.52908 -1.53405,5.25504 -3.10946,8.17789 -1.57551,2.92293 -3.79359,6.15677 -6.65425,9.70152 -2.86075,3.54482 -6.6543,7.65968 -11.38064,12.34458 l -9.39058,9.63933 31.71653,0 c 0.41454,2e-5 0.79804,0.1244 1.1505,0.37314 0.35235,0.24877 0.65293,0.63227 0.90175,1.1505 0.24869,0.51826 0.43526,1.20234 0.5597,2.05225 0.12432,0.84993 0.18651,1.85532 0.18657,3.01618 z"
         style=""
         id="path2989" />
    </g>
  </g>
</svg>
