<?xml version="1.0" encoding="UTF-8" standalone="no"?>
<!-- Created with Inkscape (http://www.inkscape.org/) -->

<svg
   xmlns:dc="http://purl.org/dc/elements/1.1/"
   xmlns:cc="http://creativecommons.org/ns#"
   xmlns:rdf="http://www.w3.org/1999/02/22-rdf-syntax-ns#"
   xmlns:svg="http://www.w3.org/2000/svg"
   xmlns="http://www.w3.org/2000/svg"
   xmlns:sodipodi="http://sodipodi.sourceforge.net/DTD/sodipodi-0.dtd"
   xmlns:inkscape="http://www.inkscape.org/namespaces/inkscape"
   version="1.0"
   width="123.0625"
   height="123.0625"
   id="svg2575"
   inkscape:version="0.48.2 r9819"
   sodipodi:docname="scale_m4.svg">
  <sodipodi:namedview
     pagecolor="#ffffff"
     bordercolor="#666666"
     borderopacity="1"
     objecttolerance="10"
     gridtolerance="10"
     guidetolerance="10"
     inkscape:pageopacity="0"
     inkscape:pageshadow="2"
     inkscape:window-width="1170"
     inkscape:window-height="752"
     id="namedview12"
     showgrid="false"
     inkscape:zoom="3.8354495"
     inkscape:cx="21.170685"
     inkscape:cy="53.186217"
     inkscape:window-x="88"
     inkscape:window-y="19"
     inkscape:window-maximized="0"
     inkscape:current-layer="layer1" />
  <defs
     id="defs2577" />
  <metadata
     id="metadata2580">
    <rdf:RDF>
      <cc:Work
         rdf:about="">
        <dc:format>image/svg+xml</dc:format>
        <dc:type
           rdf:resource="http://purl.org/dc/dcmitype/StillImage" />
        <dc:title />
      </cc:Work>
    </rdf:RDF>
  </metadata>
  <g
     transform="translate(-116.6875,-247.8125)"
     id="layer1">
    <rect
       width="122.05878"
       height="122.05878"
       x="117.18592"
       y="248.30763"
       id="rect2989"
       style="opacity:0;fill:none;stroke:#d1d1d1;stroke-width:1;stroke-linecap:butt;stroke-linejoin:miter;stroke-miterlimit:4;stroke-opacity:1;stroke-dasharray:none" />
    <g
       transform="scale(0.96550874,1.0357234)"
       style="font-size:73.39572906px;font-style:normal;font-variant:normal;font-weight:bold;font-stretch:normal;text-align:start;line-height:125%;letter-spacing:0px;word-spacing:0px;writing-mode:lr-tb;text-anchor:start;fill:#cccccc;fill-opacity:1;stroke:none;font-family:Courier New;-inkscape-font-specification:Courier New Bold"
       id="text3012" />
    <g
       style="font-size:127.36364746px;font-style:normal;font-variant:normal;font-weight:bold;font-stretch:normal;text-align:start;line-height:125%;letter-spacing:0px;word-spacing:0px;writing-mode:lr-tb;text-anchor:start;fill:#f2f2f2;fill-opacity:1;stroke:none;font-family:Calibri;-inkscape-font-specification:Calibri Bold"
       id="text2987">
      <path
         d="m 161.26473,314.485 c -3e-5,2.40468 -0.22806,4.08379 -0.68408,5.03733 -0.45609,0.95359 -1.18163,1.43038 -2.17662,1.43035 l -25.87074,0 c -1.0365,3e-5 -1.78277,-0.48712 -2.23882,-1.46145 -0.45606,-0.97427 -0.68408,-2.64301 -0.68408,-5.00623 0,-2.3217 0.22802,-3.95935 0.68408,-4.91296 0.45605,-0.95353 1.20232,-1.43031 2.23882,-1.43035 l 25.87074,0 c 0.49748,4e-5 0.92244,0.10369 1.27488,0.31095 0.35237,0.20733 0.65295,0.55974 0.90174,1.05721 0.24872,0.49755 0.42493,1.16091 0.52861,1.99006 0.10362,0.82922 0.15544,1.82425 0.15547,2.98509 z"
         style=""
         id="path2987" />
      <path
         d="m 226.93661,322.63179 c -6e-5,2.11446 -0.21772,3.72101 -0.65298,4.81967 -0.43539,1.0987 -1.02619,1.64803 -1.7724,1.64802 l -7.15177,0 0,14.55229 c -5e-5,0.4146 -0.12443,0.77737 -0.37313,1.08831 -0.24881,0.31095 -0.68413,0.57007 -1.30598,0.77737 -0.62194,0.2073 -1.4304,0.36277 -2.42538,0.46642 -0.99507,0.10365 -2.28032,0.15547 -3.85573,0.15547 -1.49259,0 -2.74674,-0.0518 -3.76245,-0.15547 -1.0158,-0.10365 -1.82426,-0.25912 -2.42539,-0.46642 -0.6012,-0.2073 -1.01579,-0.46642 -1.24378,-0.77737 -0.22807,-0.31094 -0.34208,-0.67371 -0.34204,-1.08831 l 0,-14.55229 -30.7837,0 c -0.58044,10e-6 -1.09868,-0.0725 -1.55473,-0.21766 -0.45606,-0.1451 -0.83956,-0.47677 -1.1505,-0.99503 -0.31095,-0.51823 -0.53898,-1.2645 -0.68408,-2.23882 -0.14511,-0.97428 -0.21767,-2.26988 -0.21767,-3.88683 0,-1.32668 0.0311,-2.47718 0.0933,-3.4515 0.0622,-0.97427 0.16583,-1.85529 0.31094,-2.64305 0.14511,-0.7877 0.35241,-1.53397 0.6219,-2.23881 0.26948,-0.70478 0.61152,-1.45105 1.02612,-2.23882 l 25.00009,-44.0922 c 0.20727,-0.37305 0.55967,-0.69436 1.05722,-0.96393 0.49748,-0.26941 1.19193,-0.49743 2.08334,-0.68408 0.89135,-0.18649 2.02112,-0.32123 3.38932,-0.40423 1.36812,-0.0828 3.0265,-0.1243 4.97514,-0.12438 2.11439,8e-5 3.91788,0.0519 5.41047,0.15547 1.49249,0.10373 2.68445,0.26957 3.57588,0.49752 0.89133,0.2281 1.54432,0.50796 1.95896,0.83955 0.41454,0.33176 0.62184,0.72562 0.62189,1.1816 l 0,48.44545 7.15177,0 c 0.66329,3e-5 1.23336,0.50791 1.71021,1.52364 0.47672,1.01578 0.71511,2.70526 0.71517,5.06842 z m -25.31103,-43.59468 -0.12438,0 -21.20655,37.00262 21.33093,0 z"
         style=""
         id="path2989" />
    </g>
  </g>
</svg>
