<?xml version="1.0" encoding="UTF-8" standalone="no"?>
<!-- Created with Inkscape (http://www.inkscape.org/) -->

<svg
   xmlns:dc="http://purl.org/dc/elements/1.1/"
   xmlns:cc="http://creativecommons.org/ns#"
   xmlns:rdf="http://www.w3.org/1999/02/22-rdf-syntax-ns#"
   xmlns:svg="http://www.w3.org/2000/svg"
   xmlns="http://www.w3.org/2000/svg"
   xmlns:xlink="http://www.w3.org/1999/xlink"
   xmlns:sodipodi="http://sodipodi.sourceforge.net/DTD/sodipodi-0.dtd"
   xmlns:inkscape="http://www.inkscape.org/namespaces/inkscape"
   version="1.1"
   width="533.57501"
   height="533.57501"
   id="svg12215"
   inkscape:version="0.48.2 r9819"
   sodipodi:docname="shell.svg">
  <sodipodi:namedview
     pagecolor="#ffffff"
     bordercolor="#666666"
     borderopacity="1"
     objecttolerance="10"
     gridtolerance="10"
     guidetolerance="10"
     inkscape:pageopacity="0"
     inkscape:pageshadow="2"
     inkscape:window-width="640"
     inkscape:window-height="480"
     id="namedview14"
     showgrid="false"
     inkscape:zoom="0.44229957"
     inkscape:cx="266.78751"
     inkscape:cy="266.78751"
     inkscape:window-x="472"
     inkscape:window-y="443"
     inkscape:window-maximized="0"
     inkscape:current-layer="svg12215" />
  <defs
     id="defs12217">
    <linearGradient
       id="linearGradient12975">
      <stop
         id="stop12977"
         style="stop-color:#ffffff;stop-opacity:1"
         offset="0" />
      <stop
         id="stop12979"
         style="stop-color:#d2d5d8;stop-opacity:1"
         offset="1" />
    </linearGradient>
    <filter
       color-interpolation-filters="sRGB"
       id="filter12971">
      <feGaussianBlur
         stdDeviation="3.2250001"
         id="feGaussianBlur12973" />
    </filter>
    <linearGradient
       x1="-113.21428"
       y1="601.64789"
       x2="-144.28572"
       y2="700.20581"
       id="linearGradient12981"
       xlink:href="#linearGradient12975"
       gradientUnits="userSpaceOnUse"
       gradientTransform="matrix(4.7719882,0,0,4.7719882,896.75599,-2714.7514)" />
  </defs>
  <metadata
     id="metadata12220">
    <rdf:RDF>
      <cc:Work
         rdf:about="">
        <dc:format>image/svg+xml</dc:format>
        <dc:type
           rdf:resource="http://purl.org/dc/dcmitype/StillImage" />
        <dc:title />
        <cc:license
           rdf:resource="http://creativecommons.org/licenses/publicdomain/" />
        <dc:creator>
          <cc:Agent>
            <dc:title>Sergio Luiz Araujo Silva</dc:title>
          </cc:Agent>
        </dc:creator>
        <dc:subject>
          <rdf:Bag>
            <rdf:li>search</rdf:li>
            <rdf:li>icons</rdf:li>
            <rdf:li>informatic</rdf:li>
            <rdf:li>computer</rdf:li>
          </rdf:Bag>
        </dc:subject>
      </cc:Work>
      <cc:License
         rdf:about="http://creativecommons.org/licenses/publicdomain/">
        <cc:permits
           rdf:resource="http://creativecommons.org/ns#Reproduction" />
        <cc:permits
           rdf:resource="http://creativecommons.org/ns#Distribution" />
        <cc:permits
           rdf:resource="http://creativecommons.org/ns#DerivativeWorks" />
      </cc:License>
    </rdf:RDF>
  </metadata>
  <rect
     width="498.76138"
     height="491.88809"
     ry="41.35342"
     x="16.231079"
     y="18.582561"
     id="rect3761"
     style="fill:#000000;fill-opacity:1;stroke:#ffffff;stroke-width:22.87744141;stroke-linecap:butt;stroke-linejoin:miter;stroke-miterlimit:4;stroke-opacity:1;stroke-dasharray:none" />
  <g
     transform="scale(0.92121808,1.0855193)"
     style="font-size:245.45921326px;font-style:normal;font-variant:normal;font-weight:bold;font-stretch:normal;text-align:start;line-height:125%;letter-spacing:0px;word-spacing:0px;writing-mode:lr-tb;text-anchor:start;fill:#ffffff;fill-opacity:1;stroke:none;font-family:Courier New;-inkscape-font-specification:Courier New Bold"
     id="text3765">
    <path
       d="M 194.94752,160.57665 115.36504,116.4707 c -3.99512,-2.23715 -6.65186,-4.2347 -7.97023,-5.99266 -1.31839,-1.75772 -1.97759,-3.99498 -1.97758,-6.71178 -1e-5,-3.43566 1.23848,-6.39203 3.71545,-8.869128 2.47695,-2.476826 5.39337,-3.715307 8.74928,-3.715447 2.07743,1.4e-4 5.27351,1.158719 9.58825,3.475741 l 118.53475,65.919224 -118.53475,65.91922 c -4.31474,2.39706 -7.51082,3.5956 -9.58825,3.59559 -3.35591,10e-6 -6.27233,-1.23848 -8.74928,-3.71544 -2.47697,-2.47696 -3.71546,-5.47329 -3.71545,-8.98899 -1e-5,-2.71665 0.65919,-4.95391 1.97758,-6.71177 1.31837,-1.75783 3.97511,-3.75538 7.97023,-5.99266 z"
       style=""
       id="path3025" />
    <path
       d="m 384.19561,304.28055 -134.95462,0 c -5.91276,-7e-5 -10.12759,-1.1187 -12.64451,-3.35588 -2.5169,-2.23733 -3.77536,-5.19371 -3.77537,-8.86914 1e-5,-3.67555 1.25847,-6.6519 3.77537,-8.92905 2.51692,-2.27726 6.73175,-3.41587 12.64451,-3.41582 l 134.95462,0 c 5.83271,-5e-5 10.00759,1.13856 12.52466,3.41582 2.51676,2.27715 3.77521,5.2535 3.77537,8.92905 -1.6e-4,3.59553 -1.23864,6.53193 -3.71545,8.80921 -2.47711,2.27714 -6.67197,3.41574 -12.58458,3.41581 z"
       style=""
       id="path3027" />
  </g>
</svg>
